<svg id="圖層_2" data-name="圖層 2" xmlns="http://www.w3.org/2000/svg" viewBox="0 0 50 50"><defs><style>.cls-1{fill:#fff;}</style></defs><title>line_s</title><path class="cls-1" d="M24.28,47.83h-.87a1.69,1.69,0,0,1-.89-1.93c.2-1.33.33-2.68.45-4a1.26,1.26,0,0,0-1.19-1.51c-.5-.09-1-.12-1.5-.21C14.59,39.23,9.52,37,5.58,32.7,1,27.72-.41,22,2,15.55a19.15,19.15,0,0,1,9.11-9.88A28.41,28.41,0,0,1,29.73,2.56,25.13,25.13,0,0,1,44.26,9.79a16,16,0,0,1,3,19,31.94,31.94,0,0,1-6.58,8.27A62.33,62.33,0,0,1,27,46.39Zm5.08-25.16-.15.05L28.64,22c-1.39-1.81-2.79-3.62-4.17-5.44A1.19,1.19,0,0,0,23,16.06a1.17,1.17,0,0,0-.8,1.24q0,4.55,0,9.1a1.5,1.5,0,0,0,.19.75,1.1,1.1,0,0,0,1.31.5,1.17,1.17,0,0,0,.89-1.25c0-1.54,0-3.08,0-4.62v-.94l.56.68c1.4,1.81,2.81,3.6,4.19,5.42.41.54.87.94,1.58.68s.83-.86.83-1.52c0-2.86,0-5.72,0-8.59,0-.94-.43-1.48-1.18-1.5s-1.25.54-1.25,1.5Q29.35,20.08,29.36,22.67Zm6.79-4.29c1.24,0,2.44,0,3.64,0A1.22,1.22,0,0,0,41,17.15,1.19,1.19,0,0,0,39.81,16q-2.45,0-4.91,0a1.15,1.15,0,0,0-1.22,1.23q0,4.62,0,9.24a1.13,1.13,0,0,0,1.17,1.21c1.68,0,3.37,0,5.05,0a1.43,1.43,0,0,0,1-.62,1.16,1.16,0,0,0-1.09-1.75c-1.2,0-2.39,0-3.63,0V23.06H37c.94,0,1.88,0,2.81,0A1.22,1.22,0,0,0,41,21.82a1.26,1.26,0,0,0-1.28-1.21c-.29,0-.58,0-.87,0H36.15Zm-24.41,7V17.54c0-.88-.45-1.4-1.18-1.41s-1.21.5-1.22,1.39q0,4.44,0,8.88c0,1,.44,1.42,1.48,1.42h4.41c.93,0,1.47-.46,1.46-1.22s-.56-1.18-1.43-1.19ZM17.9,21.8v4.61c0,1,.3,1.27,1.23,1.26s1.17-.29,1.17-1.25q0-4.61,0-9.23c0-.94-.29-1.23-1.19-1.23s-1.21.3-1.21,1.21C17.89,18.73,17.9,20.26,17.9,21.8Z"/></svg>