<svg xmlns="http://www.w3.org/2000/svg" viewBox="0 0 168.75 168.75"><defs><style>.cls-1{fill:none;stroke:#a2b5e0;stroke-miterlimit:10;stroke-width:0.75px;}.cls-2{fill:#a2b5e0;}</style></defs><title>circle_1</title><g id="圖層_2" data-name="圖層 2"><g id="圖層_1-2" data-name="圖層 1"><circle class="cls-1" cx="84.38" cy="84.37" r="0.83"/><circle class="cls-1" cx="84.38" cy="84.38" r="0.87"/><circle class="cls-1" cx="84.38" cy="84.38" r="0.92"/><circle class="cls-1" cx="84.38" cy="84.37" r="0.97"/><circle class="cls-1" cx="84.38" cy="84.37" r="1.02"/><circle class="cls-1" cx="84.38" cy="84.38" r="1.07"/><circle class="cls-1" cx="84.38" cy="84.38" r="1.13"/><circle class="cls-1" cx="84.38" cy="84.37" r="1.19"/><circle class="cls-1" cx="84.38" cy="84.37" r="1.25"/><circle class="cls-1" cx="84.38" cy="84.37" r="1.32"/><circle class="cls-1" cx="84.38" cy="84.37" r="1.39"/><circle class="cls-1" cx="84.38" cy="84.38" r="1.46"/><circle class="cls-1" cx="84.38" cy="84.37" r="1.54"/><circle class="cls-1" cx="84.38" cy="84.37" r="1.62"/><circle class="cls-1" cx="84.38" cy="84.38" r="1.7"/><circle class="cls-1" cx="84.38" cy="84.38" r="1.79"/><circle class="cls-1" cx="84.38" cy="84.38" r="1.89"/><circle class="cls-1" cx="84.38" cy="84.37" r="1.99"/><circle class="cls-1" cx="84.38" cy="84.37" r="2.09"/><circle class="cls-1" cx="84.38" cy="84.38" r="2.2"/><circle class="cls-1" cx="84.38" cy="84.37" r="2.32"/><circle class="cls-1" cx="84.38" cy="84.37" r="2.44"/><circle class="cls-1" cx="84.38" cy="84.38" r="2.57"/><circle class="cls-1" cx="84.38" cy="84.37" r="2.7"/><circle class="cls-1" cx="84.38" cy="84.37" r="2.84"/><circle class="cls-1" cx="84.38" cy="84.37" r="2.99"/><circle class="cls-1" cx="84.38" cy="84.37" r="3.15"/><circle class="cls-1" cx="84.38" cy="84.38" r="3.32"/><circle class="cls-1" cx="84.38" cy="84.37" r="3.49"/><circle class="cls-1" cx="84.38" cy="84.37" r="3.68"/><circle class="cls-1" cx="84.38" cy="84.38" r="3.87"/><circle class="cls-1" cx="84.38" cy="84.38" r="4.07"/><circle class="cls-1" cx="84.38" cy="84.38" r="4.29"/><circle class="cls-1" cx="84.38" cy="84.38" r="4.51"/><circle class="cls-1" cx="84.38" cy="84.37" r="4.75"/><circle class="cls-1" cx="84.38" cy="84.38" r="5"/><circle class="cls-1" cx="84.38" cy="84.37" r="5.26"/><circle class="cls-1" cx="84.38" cy="84.37" r="5.54"/><circle class="cls-1" cx="84.38" cy="84.38" r="5.83"/><circle class="cls-1" cx="84.38" cy="84.37" r="6.14"/><circle class="cls-1" cx="84.38" cy="84.37" r="6.46"/><circle class="cls-1" cx="84.38" cy="84.37" r="6.8"/><circle class="cls-1" cx="84.38" cy="84.38" r="7.16"/><circle class="cls-1" cx="84.38" cy="84.37" r="7.54"/><circle class="cls-1" cx="84.38" cy="84.38" r="7.94"/><circle class="cls-1" cx="84.38" cy="84.37" r="8.35"/><circle class="cls-1" cx="84.38" cy="84.37" r="8.79"/><circle class="cls-1" cx="84.38" cy="84.37" r="9.26"/><circle class="cls-1" cx="84.38" cy="84.37" r="9.74"/><circle class="cls-1" cx="84.38" cy="84.38" r="10.26"/><circle class="cls-1" cx="84.38" cy="84.37" r="10.8"/><circle class="cls-1" cx="84.38" cy="84.37" r="11.36"/><circle class="cls-1" cx="84.38" cy="84.37" r="11.96"/><circle class="cls-1" cx="84.38" cy="84.38" r="12.59"/><circle class="cls-1" cx="84.38" cy="84.38" r="13.25"/><circle class="cls-1" cx="84.38" cy="84.37" r="13.95"/><circle class="cls-1" cx="84.38" cy="84.37" r="14.69"/><circle class="cls-1" cx="84.38" cy="84.37" r="15.46"/><circle class="cls-1" cx="84.38" cy="84.38" r="16.27"/><circle class="cls-1" cx="84.38" cy="84.38" r="17.13"/><circle class="cls-1" cx="84.38" cy="84.38" r="18.03"/><circle class="cls-1" cx="84.38" cy="84.37" r="18.98"/><circle class="cls-1" cx="84.38" cy="84.37" r="19.98"/><circle class="cls-1" cx="84.38" cy="84.37" r="21.03"/><circle class="cls-1" cx="84.38" cy="84.37" r="22.14"/><circle class="cls-1" cx="84.38" cy="84.37" r="23.3"/><circle class="cls-1" cx="84.38" cy="84.38" r="24.53"/><circle class="cls-1" cx="84.38" cy="84.37" r="25.82"/><circle class="cls-1" cx="84.38" cy="84.37" r="27.18"/><circle class="cls-1" cx="84.38" cy="84.37" r="28.61"/><circle class="cls-1" cx="84.38" cy="84.37" r="30.11"/><circle class="cls-1" cx="84.38" cy="84.38" r="31.7"/><circle class="cls-1" cx="84.38" cy="84.38" r="33.37"/><circle class="cls-1" cx="84.38" cy="84.37" r="35.12"/><circle class="cls-1" cx="84.38" cy="84.38" r="36.97"/><circle class="cls-1" cx="84.38" cy="84.37" r="38.92"/><circle class="cls-1" cx="84.38" cy="84.37" r="40.96"/><circle class="cls-1" cx="84.38" cy="84.37" r="43.12"/><circle class="cls-1" cx="84.38" cy="84.37" r="45.39"/><circle class="cls-1" cx="84.38" cy="84.37" r="47.78"/><circle class="cls-1" cx="84.38" cy="84.37" r="50.29"/><circle class="cls-1" cx="84.38" cy="84.37" r="52.94"/><circle class="cls-1" cx="84.38" cy="84.38" r="55.73"/><circle class="cls-1" cx="84.38" cy="84.38" r="58.66"/><circle class="cls-1" cx="84.38" cy="84.37" r="61.75"/><circle class="cls-1" cx="84.38" cy="84.37" r="65"/><circle class="cls-1" cx="84.38" cy="84.37" r="68.42"/><circle class="cls-1" cx="84.38" cy="84.38" r="72.02"/><circle class="cls-1" cx="84.38" cy="84.37" r="75.81"/><circle class="cls-1" cx="84.38" cy="84.37" r="79.8"/><circle class="cls-1" cx="84.38" cy="84.37" r="84"/><circle class="cls-2" cx="84.38" cy="84.37" r="6"/></g></g></svg>