<?xml version="1.0" encoding="utf-8"?>
<!-- Generator: Adobe Illustrator 24.0.1, SVG Export Plug-In . SVG Version: 6.00 Build 0)  -->
<svg version="1.1" id="圖層_1" xmlns="http://www.w3.org/2000/svg" xmlns:xlink="http://www.w3.org/1999/xlink" x="0px" y="0px"
	 viewBox="0 0 219.1 42.9" style="enable-background:new 0 0 219.1 42.9;" xml:space="preserve">
<style type="text/css">
	.st0{fill:#FFFFFF;}
	.st1{fill:none;}
	.st2{fill:#BBCD20;}
	.st3{fill:#231815;}
</style>
<g>
	<g>
		<g>
			<g>
				<polygon class="st0" points="65.1,11.6 65.1,9.7 62.4,9.7 62.4,8.7 60.5,8.7 60.5,9.7 53.8,9.7 53.8,8.7 51.9,8.7 51.9,9.7 
					49.5,9.7 49.5,11.6 51.9,11.6 51.9,12.4 49.5,12.4 49.5,28 51.4,28 51.4,14.3 55,14.3 55,15.2 52.3,15.2 52.3,17 56.9,17 
					56.9,12.4 53.8,12.4 53.8,11.6 60.5,11.6 60.5,12.4 57.7,12.4 57.7,17 62.4,17 62.4,15.2 59.6,15.2 59.6,14.3 63.2,14.3 
					63.2,28 65.1,28 65.1,12.4 62.4,12.4 62.4,11.6 				"/>
				<polygon class="st0" points="56.4,17.9 52.3,17.9 52.3,19.8 56.4,19.8 56.4,23.4 54.1,23.4 54.1,22.5 55.5,22.5 55.5,20.6 
					52.3,20.6 52.3,23.4 52.3,25.3 52.3,28 55.5,28 55.5,26.1 54.1,26.1 54.1,25.3 56.4,25.3 56.4,28 58.2,28 58.2,27.6 58.2,25.3 
					60.6,25.3 60.6,26.1 59.1,26.1 59.1,28 62.4,28 62.4,25.3 62.4,23.4 62.4,20.6 59.1,20.6 59.1,22.5 60.6,22.5 60.6,23.4 
					58.2,23.4 58.2,19.8 62.4,19.8 62.4,17.9 58.2,17.9 				"/>
			</g>
			<path class="st0" d="M118.1,11.7V9.8h-6.8V9.1h-1.9v0.7h-6.9v1.9h2.9v0.9h-2.9v1.9h6.9v0.9h-0.1h-6.9v1.3v0.6V18v1.9h1.9h5.1v0.9
				h-6.9v1.9h6.9v0.8h-6.9v1.9h6.9v0.8h-6.9V28h6.9h1.9h6.9v-1.9h-6.9v-0.8h6.9v-1.9h-6.9v-0.8h5h1.9v-1.9v-3.6v-0.6v-1.3h-6.8v-0.9
				h6.9v-1.9h-2.8v-0.9h2.6V11.7z M109.4,18h-5.1v-0.9h5h0.1V18z M116.2,17.1v3.6h-5v-0.9h4.1V18h-4.1v-0.9H116.2z M113.4,12.5h-2.2
				h-1.9h-2.2v-0.9h2.2h4L113.4,12.5L113.4,12.5z"/>
			<g>
				<polygon class="st0" points="97.6,16.1 97.6,11.3 98.5,11.3 98.5,15.3 100.3,15.3 100.3,9.4 95.7,9.4 95.7,18 100.4,18 
					100.4,16.1 				"/>
				<rect x="90.2" y="18.9" class="st0" width="10.1" height="1.9"/>
				<polygon class="st0" points="90.2,9.4 90.2,12.5 92.1,12.5 92.1,11.3 93,11.3 93,13.4 90.2,13.4 90.2,15.3 93,15.3 93,16.1 
					90.2,16.1 90.2,18 94.9,18 94.9,9.4 				"/>
				<path class="st0" d="M89.4,16.1V9.4h-2.7h-2V28h1.9v-0.9h2.7V17h-2.7v-0.9H89.4z M86.6,11.3h0.9v2.9h-0.9V11.3z M87.5,18.9v6.4
					h-0.9v-6.4H87.5z"/>
				<polygon class="st0" points="99,26.2 99,23.5 100.4,23.5 100.4,21.6 90.2,21.6 90.2,23.5 91.6,23.5 91.6,26.2 90.2,26.2 
					90.2,28 91.6,28 93.5,28 93.5,26.2 93.5,23.5 94.4,23.5 94.4,28 96.2,28 96.2,23.5 97.1,23.5 97.1,26.2 97.1,28 99,28 100.4,28 
					100.4,26.2 				"/>
			</g>
			<g>
				<path class="st0" d="M82.7,9.5H67.1V28h15.6V9.5z M80.8,26H69V11.4h11.8C80.8,11.4,80.8,26,80.8,26z"/>
				<rect x="69.9" y="23.5" class="st0" width="4.6" height="1.9"/>
				<rect x="78.1" y="12.2" class="st0" width="1.9" height="1.9"/>
				<path class="st0" d="M80,16.8v-1.9h-2.8v-2.8h-4.6V14h2.7v0.9h-3.6v-2.7h-1.9v4.6h5.4v0.8h-5.5v5h2.7h1.9v-1.9v-1.3h0.9v4v1.9
					H78h1.9v-0.7v-1.2v-4v-1.9h-2.8v-0.8H80V16.8z M72.6,20.8h-0.9v-1.3h0.9V20.8z M78.1,19.5v4h-0.9v-4H78.1z"/>
			</g>
			<g>
				<polygon class="st0" points="181.3,14.3 181.3,28.1 183.2,28.1 183.2,16.1 186.7,16.1 186.7,26.5 185.9,26.5 185.9,17.1 
					184,17.1 184,26.5 184,28.1 185.9,28.1 188.6,28.1 188.6,26.5 188.6,14.3 				"/>
				<path class="st0" d="M180.4,21.6v-7.3H173l0,0l0,0v13.8h7.4v-5.5h-2.8h-1.9l0,0v1.9l0,0v1h1.9v-1h1v1.8h-3.7v-4.6L180.4,21.6
					L180.4,21.6z M174.9,16.1h3.7V17h-3.7V16.1z M174.9,18.8h3.7v0.9h-3.7V18.8z"/>
				<polygon class="st0" points="174.9,10.5 174.9,9.7 173,9.7 173,10.5 173,12.4 173,13.3 174.9,13.3 174.9,12.4 176.4,12.4 
					176.4,13.3 178.3,13.3 178.3,12.4 180.4,12.4 180.4,12.4 180.4,10.5 				"/>
				<polygon class="st0" points="188.6,10.5 183.1,10.5 183.1,9.7 183.1,9.7 181.2,9.7 181.2,10.5 181.2,12.4 181.2,13.3 
					183.1,13.3 183.1,13.3 183.1,12.4 184.6,12.4 184.6,13.3 186.5,13.3 186.5,12.4 188.6,12.4 				"/>
			</g>
			<g>
				<rect x="158.1" y="15.1" class="st0" width="1.8" height="12.9"/>
				<rect x="155.4" y="15.1" class="st0" width="1.8" height="12.9"/>
				<polygon class="st0" points="168,9.7 166.2,9.7 166.2,11.6 168,11.6 170.8,11.6 171,11.6 171,9.7 				"/>
				<rect x="163.5" y="9.7" class="st0" width="1.8" height="1.9"/>
				<polygon class="st0" points="160,11.6 160,9.7 155.4,9.7 155.4,11.6 158.1,11.6 				"/>
				<polygon class="st0" points="155.4,14.3 156.5,14.3 157.2,14.3 157.2,12.4 155.4,12.4 				"/>
				<polygon class="st0" points="169.1,12.4 168,12.4 166.2,12.4 166.2,14.3 168,14.3 169.1,14.3 169.1,28.1 171,28.1 171,14.3 
					171,12.4 				"/>
				<polygon class="st0" points="162.7,12.4 162.7,9.7 160.8,9.7 160.8,12.4 158.1,12.4 158.1,14.3 158.7,14.3 159,14.3 160.8,14.3 
					160.8,28.1 162.7,28.1 162.7,14.3 165.3,14.3 165.3,12.4 				"/>
				<polygon class="st0" points="168,19.9 166.4,19.9 166.4,26.2 165.4,26.2 165.4,15.1 163.5,15.1 163.5,26.2 163.5,28 163.5,28.1 
					165.4,28.1 165.4,28 166.4,28 168,28 168.3,28 168.3,26.2 168.3,19.9 				"/>
			</g>
			<g>
				<polygon class="st0" points="137.9,24.1 149.9,24.1 153.3,24.1 153.3,22.6 137.9,22.6 				"/>
				<path class="st0" d="M153.3,12.4v-1.8h-2.6V9.7h-0.6h-1.2v0.9h-6.6V9.7h-1.8v0.9h-2.6v1.8h2.6v1.2h-2.6v1.8h2.6v0.9h-2.6v1.9
					h0.8V19h1.9v0.9H138v1.9h7.1v-1.9h-2.6V19h1.9v-0.9h0.8v-1.9h-2.6v-0.9h2.6v-1.8h-2.6v-1.2h6.6v1.2h-3.5v1.8h3.2V17h-1.3v-0.9
					h-1.9V17v2h1.9h1.3v0.9h-3.2v1.9h3.2h1.8v-6.4h0.7v6.4h1.8v-8.2h-1.8h-0.7v-1.2H153.3z M142.4,19h-1.8v-0.9h1.8V19z"/>
				<polygon class="st0" points="149.9,25 148.4,25 148.4,25 148.4,26.5 142.8,26.5 142.8,25 141.3,25 137.9,25 137.9,26.5 
					137.9,26.5 141.3,26.5 141.3,28 142.8,28 148.4,28 149.9,28 149.9,28 149.9,26.5 153.3,26.5 153.3,25 				"/>
			</g>
			<g>
				<polygon class="st0" points="40.8,9.7 40.8,8.7 38.7,8.7 38.7,9.7 34,9.7 32,9.7 32,11.7 32,13.2 34,13.2 34,11.7 45.5,11.7 
					45.5,13.2 47.5,13.2 47.5,11.7 47.5,9.7 				"/>
				<path class="st0" d="M44.9,26V13.2H34.7v2h8.2V26h-0.8v-1.5v-2l0,0h-2.4v-0.9H42v-4.9h-5.3h-2V26H32v2h2.7h2h6.2h2h2.6v-2H44.9z
					 M36.7,26v-7.4h3.6v0.9h-2.7v4.9H40V26H36.7z"/>
			</g>
			<g>
				<polygon class="st0" points="125.6,11.7 127.2,11.7 134.2,11.7 135.8,11.7 135.8,9.8 125.6,9.8 				"/>
				<polygon class="st0" points="135.8,15.5 135.8,13.6 125.6,13.6 125.6,15.5 128.3,15.5 128.3,26.1 125.6,26.1 125.6,28 130.2,28 
					130.2,28 130.2,26.1 130.2,15.5 131.3,15.5 131.3,26.1 131.3,28 135.8,28 135.8,28 135.8,19.7 134,19.7 134,26.1 133.1,26.1 
					133.1,15.5 				"/>
				<polygon class="st0" points="124.7,11.7 124.7,9.8 120.2,9.8 120.2,11.7 121.3,11.7 121.3,17.8 120.2,17.8 120.2,19.7 
					121.3,19.7 121.3,26.1 120.2,26.1 120.2,28 121.3,28 123.2,28 124.7,28 124.7,26.1 123.2,26.1 123.2,19.7 124.7,19.7 
					124.7,17.8 123.2,17.8 123.2,11.7 				"/>
			</g>
		</g>
	</g>
	<g>
		<polygon class="st1" points="26.4,16.9 26.4,16.7 26.3,16.7 26.2,16.6 26.1,16.7 25.9,16.7 25.9,16.9 25.9,17 26,17.1 26,17.3 
			26.1,17.3 26.1,17.3 26.2,17.3 26.3,17.2 26.4,17.2 26.4,17.2 26.5,17.1 26.4,17 		"/>
		<path class="st1" d="M24,22.8L24,22.8l0.2-0.1l0.1-0.1v-0.1l-0.1-0.1l-0.1-0.1l0,0c0,0.1-0.1,0.3-0.1,0.4V22.8L24,22.8L24,22.8
			L24,22.8z"/>
		<polygon class="st1" points="25.5,20.3 25.4,20.2 25.3,20.1 25.2,20.1 25,20.1 24.9,20.2 24.9,20.4 24.9,20.5 25,20.7 25,20.7 
			25.1,20.7 25.2,20.7 25.2,20.7 25.3,20.7 25.4,20.7 25.5,20.6 25.4,20.6 25.4,20.4 		"/>
		<path class="st1" d="M8.6,7.5L8.6,7.5L8.6,7.5L8.6,7.5C8.9,7.7,9,7.7,9.2,7.6c0.1,0,0.1-0.1,0.1-0.2s0-0.1,0-0.2L9.2,7.1
			C9.2,7.1,9.1,7,9,7l0,0l0,0l0,0H8.9H8.8H8.7L8.6,7.1v0.1L8.6,7.5L8.6,7.5z"/>
		<path class="st1" d="M11,25.1l0.1-0.1l0,0c-0.1,0-0.3,0-0.4,0h-0.1c-0.1,0-0.1,0-0.1,0l0,0v0.1l0.1,0.1l0.1,0.1h0.1h0.1L11,25.1z"
			/>
		<path class="st1" d="M6.4,9.7H6.3L6.2,9.8v0.1V10l0.1,0.1l0.1,0.1l0,0c0-0.1,0-0.3,0.1-0.4V9.7L6.4,9.7L6.4,9.7L6.4,9.7z"/>
		<path class="st1" d="M22.6,24v-0.1h-0.1h-0.1L22.2,24h-0.1c-0.1,0.1-0.1,0.1-0.2,0.2H22c0.1,0,0.1,0,0.2,0.1
			c0.1,0,0.1,0.1,0.2,0.1C22.5,24.3,22.6,24.2,22.6,24z"/>
		<path class="st1" d="M14.3,25.4c-0.1,0-0.1,0-0.2,0c-0.1,0-0.1,0.1-0.1,0.1v0.1c0,0.1,0,0.1,0,0.2l0,0l0,0l0,0h0.1h0.1h0.1h0.1
			h0.1l0.1-0.1l0,0l0,0l0,0l0,0C14.5,25.6,14.4,25.4,14.3,25.4z"/>
		<path class="st1" d="M5.1,17.4L5.1,17.4l0.2,0.1l0,0h0.1l0,0l0,0c0.2-0.1,0.3-0.2,0.3-0.4c0-0.1-0.1-0.1-0.1-0.2l-0.1-0.1H5.4
			c-0.1,0-0.1,0-0.2,0.1l0,0l0,0l0,0V17v0.1L5.1,17.4L5.1,17.4z"/>
		<path class="st1" d="M22.5,24.9L22.5,24.9h0.2h0.1l0,0v-0.1l-0.1-0.1l-0.1-0.1C22.5,24.8,22.4,24.9,22.5,24.9z"/>
		<polygon class="st1" points="18.7,25.8 18.7,25.7 18.8,25.7 19,25.6 19,25.5 19,25.4 18.9,25.3 18.8,25.2 18.7,25.2 18.5,25.2 
			18.4,25.4 18.3,25.5 18.3,25.5 18.4,25.6 18.4,25.7 18.4,25.7 18.5,25.8 18.6,25.8 		"/>
		<path class="st1" d="M15.4,26.2L15.4,26.2L15.4,26.2l0.1,0.1l0,0c0.1,0,0.1,0.1,0.2,0.1h0.1l0.1-0.1l0.1-0.1l0.1-0.1V26v-0.1
			L16,25.8h-0.1l-0.2-0.1h-0.1l0,0h-0.2l-0.1,0.1C15.3,26,15.3,26.1,15.4,26.2L15.4,26.2z"/>
		<path class="st1" d="M7.3,21.8l-0.1-0.1l0,0v0.1v0.1l0.1,0.2l0.1,0.1h0.1h0.1l0.1-0.1l0,0C7.6,22,7.5,22,7.4,21.9L7.3,21.8z"/>
		<path class="st1" d="M24.6,9.2l0.1,0.1l0,0L24.6,9.2l0.1-0.1V9l-0.1-0.1h-0.1h-0.1L24.3,9l0,0C24.4,9.1,24.5,9.1,24.6,9.2
			L24.6,9.2z"/>
		<path class="st1" d="M14.1,4.7L14.1,4.7L14.1,4.7L14.1,4.7h-0.2h-0.1h-0.1l-0.1,0.1v0.1l0,0V5l0,0l0,0c0.1,0.2,0.2,0.3,0.4,0.3
			c0.1,0,0.1-0.1,0.2-0.1l0-0.2V4.9C14.2,4.8,14.2,4.8,14.1,4.7L14.1,4.7z"/>
		<polygon class="st1" points="11.5,5.6 11.4,5.6 11.4,5.5 11.3,5.5 11.2,5.4 11.1,5.4 11.1,5.5 11,5.6 10.9,5.7 10.9,5.8 10.9,5.9 
			11,6 11.1,6.1 11.3,6.1 11.4,6 11.5,5.8 11.5,5.7 11.5,5.7 		"/>
		<path class="st1" d="M23.2,7.6L23.2,7.6L23.2,7.6V7.4V7.3l-0.1-0.1L23,7.1h-0.2l-0.1,0.1l-0.1,0.2v0.2l0.1,0.1l0,0l0.2,0.1
			c0.1,0,0.1,0,0.2,0C23.2,7.7,23.2,7.6,23.2,7.6z"/>
		<path class="st2" d="M15.2,22.6c0.2,0.1,0.3,0.1,0.7,0.1l0,0c0.7,0,1.3,0,1.7-0.5c-0.1-0.1-0.2-0.2-0.3-0.3
			c-0.3-0.3-0.6-0.5-0.6-1.1c0-1.2,1.5-1.2,2-1.2c0.2,0,0.4,0,0.6,0c0.4,0,0.8,0,1.3-0.1l-0.2-0.3c-0.7,0-1.1-0.2-1.6-0.3
			c-0.5-0.2-0.9-0.3-1.6-0.3c-0.5,0-0.9,0.3-1.2,0.7c-0.3,0.3-0.7,0.7-1.2,0.8h-0.1c-1,0.3-2,0.6-2.2,1.8h0.1c0.7,0.3,1.2,0.5,2,0.5
			l0,0C14.8,22.4,15,22.5,15.2,22.6z"/>
		<path class="st2" d="M18.2,8.2L18.2,8.2c0.2,0.6,0.7,0.7,1.1,0.9c0.5,0.2,1,0.3,1,1.5c0,0.7-0.4,1.4-0.8,2
			c-0.4,0.6-0.8,1.2-0.8,1.8c0,2,0.2,3.9,1.4,3.9c0.6,0,0.9-0.7,1.1-1.5c0.1-0.3,0.2-0.7,0.4-1c0.2-0.4,0.4-0.7,0.6-0.9
			c0.3-0.5,0.6-1,0.6-1.7c0-0.1,0-0.2-0.1-0.2c-0.2-0.1-0.6-0.1-0.9,0c-0.4,0.1-0.9,0.1-1.1-0.1c-0.1-0.1-0.2-0.2-0.2-0.4v-0.1h0.1
			l2.3-1.1c-0.3-0.5-0.7-1-1.2-1.5c-0.6-0.6-1.3-1-2.1-1.4c-0.4-0.1-0.7-0.2-1.1-0.2C18.3,8.2,18.2,8.2,18.2,8.2z"/>
		<path class="st2" d="M24.9,13.9c0-0.1,0-0.2,0.1-0.2l0,0l0,0c0,0,0.1,0,0.2,0l0,0c-0.8-4.3-4.7-7.6-9.3-7.6
			c-5.2,0-9.5,4.2-9.5,9.4c0,2.8,1.2,5.3,3.2,7c0-0.1,0.1-0.1,0.1-0.2l0.1-0.2c0.1-0.1,0.3-0.2,0.4-0.2c0.2,0,0.3,0.1,0.4,0.2
			c0.1,0.1,0.2,0.2,0.2,0.3l0,0v0.1c0,0-0.1,0.1-0.2,0.1c-0.1,0.1-0.1,0.1-0.2,0.1c0,0.1-0.1,0.1-0.1,0.2c1.6,1.2,3.5,1.8,5.6,1.8
			c1.5,0,3-0.4,4.2-1l0,0c-0.1-0.2-0.1-0.3,0-0.4s0.2-0.2,0.3-0.3c0.1-0.1,0.2-0.1,0.3,0l0,0l0,0c0,0,0,0.1,0,0.2s0,0.2,0,0.2l0,0
			c2.8-1.6,4.6-4.6,4.6-8c0-0.4,0-0.8-0.1-1.1c-0.1,0-0.2,0-0.3-0.1C24.9,14.2,24.9,14.1,24.9,13.9z M19.4,22.9L19.4,22.9
			c-1,0.6-3.6,0.7-4.7,0.7c-1.6,0-3.4-0.7-4.8-1.9c-1.5-1.3-2.3-3-2.3-4.9c0-0.5-0.1-0.6-0.2-0.8c-0.1-0.2-0.2-0.4-0.2-0.9
			c0-4,3.8-7.4,7.3-7.8c2.7-0.3,5.4,0.6,7.2,2.3c1.6,1.5,2.5,3.4,2.5,5.7C24.3,18.6,22.2,21.7,19.4,22.9z"/>
		<path class="st2" d="M24,15.2c0-1.4-0.4-2.7-1-3.8l-2.3,1.1c0,0.1,0,0.1,0.1,0.2c0.2,0.1,0.6,0.1,0.9,0c0.4-0.1,0.9-0.1,1.1,0.1
			c0.1,0.1,0.2,0.2,0.2,0.4c0,0.8-0.3,1.3-0.7,1.8c-0.2,0.3-0.4,0.6-0.5,0.9c-0.1,0.3-0.3,0.7-0.4,1c-0.3,0.8-0.5,1.7-1.3,1.7
			c-1.6,0-1.6-2.7-1.6-4.1c0-0.7,0.4-1.4,0.8-2c0.4-0.6,0.8-1.2,0.8-1.8c0-1-0.4-1.1-0.9-1.2c-0.4-0.1-1-0.3-1.4-1.1l-0.1-0.3h0.2
			c0.1,0,0.1,0,0.2-0.1c0.1,0,0.2-0.1,0.3-0.1h0.1c-1.2-0.4-2.5-0.5-3.9-0.4c-3.2,0.3-7,3.6-7,7.5c0,0.2,0,0.4,0.1,0.5
			c0.1-2.4,1.1-4.2,2.9-5.1l0.1,0.1l0.1,0.1C9,11.5,8,13.3,8,15.7c0,0.1,0,0.2,0,0.3s0.1,0.2,0.1,0.4c0.3,1.5,1.6,2.3,2.9,2.3
			c0.2,0,0.2-0.1,0.3-0.4c0.1-0.1,0.1-0.3,0.2-0.4c0.4-0.5,0.8-0.3,1.3-0.2c0.3,0.1,0.6,0.2,0.9,0.1c1-0.2,1.6-0.6,2.3-1.3
			c0.2-0.2,0.5-0.4,0.8-0.5c0.5-0.2,0.8-0.4,0.8-1c0-1.2-0.8-2.3-1.7-2.3c-0.6,0-0.9,0.8-0.9,2.5v0.1h-0.1h-0.1
			c-1.1,0.1-2.1-0.1-2.5-1.3v-0.1h0.1c0.2-0.1,0.4-0.2,0.5-0.3c0.8-0.5,1.5-0.9,1.5-2v-2h-0.9c-1.4,0-2.2,0.8-3.2,2.3l-0.1-0.1
			l-0.1-0.1c1-1.5,1.9-2.4,3.4-2.4h1h0.1v0.1v2.1c0,1.2-0.8,1.6-1.6,2.2c-0.1,0.1-0.3,0.2-0.4,0.3c0.4,1,1.2,1.2,2.2,1.3
			c0-0.8,0.1-2.6,1.2-2.6c1.1,0,1.9,1.1,1.9,2.5c0,0.7-0.5,0.9-1,1.2c-0.3,0.1-0.5,0.3-0.7,0.5c-0.7,0.7-1.3,1.2-2.4,1.4
			c-0.4,0.1-0.7,0-1.1-0.2c-0.5-0.2-0.8-0.2-1,0.1c-0.1,0.1-0.1,0.2-0.2,0.4c-0.1,0.3-0.2,0.5-0.6,0.5c-1.1,0-2.3-0.6-2.9-1.8
			c0.3,3.4,3.7,5.9,6.7,5.9c0.4,0,1.2,0,2-0.1l0,0C20.7,23.2,24,19.5,24,15.2z M15.9,22.9c-0.4,0-0.6-0.1-0.8-0.1
			c-0.2-0.1-0.4-0.1-0.8-0.1l0,0c-0.8,0-1.3-0.2-2-0.5l-0.1-0.1h-0.1V22c0.2-1.4,1.3-1.7,2.4-2h0.1c0.4-0.1,0.8-0.5,1.1-0.8
			c0.4-0.4,0.8-0.8,1.4-0.8c0.7,0,1.2,0.2,1.7,0.3c0.5,0.2,0.9,0.3,1.6,0.3h0.1l0,0l0.3,0.5l0.1,0.1h-0.2c-0.6,0.2-1,0.1-1.5,0.1
			c-0.2,0-0.4,0-0.6,0c-1.2,0-1.7,0.3-1.7,1c0,0.4,0.2,0.6,0.5,0.9c0.1,0.1,0.3,0.2,0.4,0.4l0.1,0.1v0.1
			C17.4,22.9,16.6,22.9,15.9,22.9L15.9,22.9z"/>
		<path class="st3" d="M20.2,24c0.1,0.1,0.2,0.3,0.3,0.5s0.1,0.3,0.2,0.5c0,0.2,0.1,0.4,0.2,0.6c0,0.2,0.1,0.4,0.1,0.4
			s-0.1,0-0.3,0.1c-0.1,0-0.3,0.1-0.4,0.1c-0.1,0-0.2,0.1-0.3,0.1s-0.1,0.1-0.1,0.2s0,0.2,0,0.3c0,0.1,0.1,0.2,0.2,0.2
			c0.1,0,0.1,0.1,0.2,0c0.1,0,0.2-0.1,0.3-0.1s0.2-0.1,0.4-0.1c0.1,0,0.2-0.1,0.3-0.1c0.1,0.4,0.2,0.6,0.2,0.7
			c0.1,0.2,0.2,0.5,0.4,0.9c-0.4,0.2-0.7,0.4-1,0.5s-0.5,0.1-0.8,0.1C20,28.9,20,29,20,29.1s0,0.2,0,0.3c0.1,0.2,0.2,0.3,0.3,0.3
			c0.2,0,0.4,0,0.8-0.1c0.3-0.1,0.7-0.3,1.1-0.5c0.4-0.2,0.7-0.4,0.9-0.5c0.1-0.1,0.1-0.2,0-0.4C23,28.1,23,28,22.9,27.9
			c-0.1-0.1-0.1-0.1-0.2-0.1L22.4,28c0,0-0.1-0.2-0.2-0.4c-0.1-0.2-0.2-0.4-0.3-0.6s-0.1-0.3-0.2-0.4c0.1-0.1,0.1-0.2,0-0.4
			c0-0.1-0.1-0.2-0.2-0.2c-0.1-0.1-0.1-0.1-0.2-0.1c0-0.1-0.1-0.3-0.2-0.6C21,25,21,24.7,20.9,24.6c0-0.1-0.1-0.3-0.2-0.5
			c-0.1-0.2-0.2-0.4-0.2-0.5c-0.2,0.1-0.4,0.2-0.6,0.4L20.2,24z"/>
		<path class="st2" d="M20.7,23.3c0-0.1,0-0.2,0-0.2l0,0l0,0c0-0.1-0.1,0-0.3,0c-0.1,0.1-0.2,0.2-0.3,0.3c-0.1,0.1-0.1,0.3,0,0.4
			l0,0C20.3,23.7,20.5,23.6,20.7,23.3L20.7,23.3C20.8,23.5,20.7,23.4,20.7,23.3z"/>
		<path class="st3" d="M20.7,23.3c0-0.1,0-0.2,0-0.2l0,0l0,0c0-0.1-0.1,0-0.3,0c-0.1,0.1-0.2,0.2-0.3,0.3c-0.1,0.1-0.1,0.3,0,0.4
			l0,0C20.3,23.7,20.5,23.6,20.7,23.3L20.7,23.3C20.8,23.5,20.7,23.4,20.7,23.3z"/>
		<path class="st3" d="M2.2,12.7l-0.1-0.2c0-0.1-0.1-0.1-0.2-0.1s-0.2,0-0.2,0.1c-0.1,0.1-0.1,0.2-0.1,0.4c0,0.1,0,0.2,0,0.3
			s0,0.2,0,0.3s0,0.2,0,0.3s0,0.2,0,0.2s0,0.1-0.1,0.1c0,0.1,0,0.1-0.1,0.2c0,0.1,0,0.1,0.1,0.2c0,0,0.1,0.1,0.2,0.1s0.2,0,0.3-0.1
			c0.1-0.1,0.1-0.2,0.2-0.3v-0.1c0.5,0.1,1.1,0.2,1.9,0.4c0.1,0,0.3,0,0.5,0.1c0.2,0,0.4,0.1,0.7,0.1c0,0-0.1,0.1-0.1,0.2
			c-0.1,0.1-0.1,0.2-0.1,0.2c0,0.1-0.1,0.1-0.1,0.2c0,0.1,0,0.2,0.1,0.2c0.1,0.1,0.1,0.1,0.2,0.1c0.2,0,0.3,0,0.3-0.1
			c0.1-0.2,0.2-0.5,0.3-0.7c0.1-0.3,0.2-0.5,0.3-0.7c0.1-0.2,0.2-0.5,0.2-0.7l-0.1-0.2c-0.1-0.1-0.1-0.1-0.2-0.1s-0.2,0-0.2,0
			l-0.2,0.1c-0.1,0.4-0.2,0.7-0.3,0.8c-1.1-0.1-2.2-0.3-3.3-0.5c0-0.2,0-0.4,0-0.4C2.1,12.9,2.2,12.8,2.2,12.7z"/>
		<path class="st3" d="M17.8,0.5c-0.3,0.1-0.6,0.2-0.8,0.3c-0.3,0.2-0.6,0.4-0.8,0.6c-0.2,0.2-0.4,0.4-0.5,0.7
			c-0.1,0.1-0.1,0.3-0.2,0.6c-0.1,0.3-0.1,0.5-0.1,0.8s0,0.5,0.1,0.7c0.1,0.2,0.1,0.5,0.3,0.6C15.9,5,16,5.1,16.2,5.2
			c0.5,0.4,1.1,0.7,1.6,0.8c0.7,0.2,1.2,0.1,1.6-0.1c0.2-0.1,0.3-0.2,0.3-0.4c0-0.1,0-0.2-0.1-0.3C19.5,5.1,19.4,5,19.3,5
			c0,0-0.1,0-0.2,0c-0.1,0-0.2,0.1-0.4,0.1c-0.1,0.1-0.2,0.1-0.3,0.2c-0.1,0-0.2,0-0.4,0c-0.6-0.1-1-0.3-1.3-0.5
			c-0.2-0.1-0.3-0.3-0.4-0.4c-0.1-0.2-0.2-0.4-0.2-0.7s0-0.5,0-0.8c0.1-0.2,0.2-0.4,0.3-0.6c0.1-0.2,0.3-0.4,0.5-0.5
			c0.2-0.2,0.5-0.3,0.7-0.4c0.3-0.1,0.5-0.1,0.6-0.1h0.2c0.2,0,0.3,0.1,0.4,0.2c0.1,0.1,0.2,0.2,0.4,0.4c0,0,0.1,0.1,0.2,0.1
			c0.1,0,0.2,0,0.3,0s0.1-0.1,0.1-0.2s0-0.2-0.1-0.4c-0.4-0.4-0.8-0.6-1.2-0.7C18.3,0.5,18.1,0.5,17.8,0.5z"/>
		<path class="st3" d="M30,15.1c0-0.3,0-0.7,0-1c0-0.4-0.1-0.6-0.1-0.9c0-0.1-0.1-0.1-0.3-0.1c-0.1,0-0.2,0-0.3,0.1
			c-0.1,0-0.1,0.1-0.1,0.1v0.1c0,0-0.2,0-0.4,0.1c-0.2,0-0.4,0.1-0.5,0.1c-0.2,0-0.3,0-0.4,0c0-0.1-0.1-0.1-0.3-0.1
			c-0.1,0-0.2,0-0.2,0.1c-0.1,0-0.1,0.1-0.1,0.1c-0.1,0-0.3,0-0.5,0c-0.3,0-0.5,0-0.6,0s-0.3,0-0.4,0c-0.2,0-0.3,0.1-0.4,0.1h-0.1
			c0,0.2,0.1,0.4,0.1,0.7l0,0h0.1c0.1,0,0.3-0.1,0.4-0.1c0.1,0,0.3,0,0.4,0c0.2,0,0.3,0,0.5,0s0.3,0,0.4,0c0,0,0,0.1,0,0.3
			c0,0.1,0,0.2-0.1,0.3c0,0.1,0,0.2,0,0.3s0,0.1,0.1,0.2c0.1,0,0.1,0.1,0.2,0c0.1,0,0.2,0,0.2-0.1c0.1,0,0.1-0.1,0.1-0.2
			c0-0.1,0-0.2,0-0.2c0-0.1,0-0.2,0-0.3s0-0.2,0-0.3c0.3,0,0.5,0,0.6,0c0.2,0,0.4-0.1,0.8-0.1c0,0.4,0,0.7,0,1
			c0,0.2-0.1,0.5-0.2,0.7c0,0.1,0.1,0.1,0.1,0.2c0.1,0,0.2,0,0.2,0c0.1,0,0.2-0.1,0.3-0.2C29.9,15.7,30,15.4,30,15.1z"/>
		<path class="st2" d="M25.2,13.7c-0.1,0-0.1,0-0.2,0l0,0l0,0c-0.1,0-0.1,0.1-0.1,0.2c0,0.1,0.1,0.2,0.1,0.3
			c0.1,0.1,0.2,0.1,0.3,0.1C25.3,14.1,25.2,13.9,25.2,13.7L25.2,13.7z"/>
		<path class="st3" d="M25.2,13.7c-0.1,0-0.1,0-0.2,0l0,0l0,0c-0.1,0-0.1,0.1-0.1,0.2c0,0.1,0.1,0.2,0.1,0.3
			c0.1,0.1,0.2,0.1,0.3,0.1C25.3,14.1,25.2,13.9,25.2,13.7L25.2,13.7z"/>
		<path class="st3" d="M9.3,22.9C9.2,23,9,23.2,8.9,23.3c-0.2,0.1-0.3,0.3-0.5,0.4S8.1,24,8,24c0,0-0.1-0.2-0.2-0.3
			c-0.1-0.1-0.2-0.3-0.3-0.4c-0.1-0.1-0.2-0.2-0.3-0.3c-0.1-0.1-0.2-0.1-0.3-0.1c-0.1,0-0.2,0.1-0.3,0.2c-0.1,0.1-0.1,0.2-0.2,0.3
			c0,0.1,0,0.2,0.1,0.3c0.1,0.1,0.1,0.2,0.2,0.3c0.1,0.1,0.2,0.2,0.3,0.4c0.1,0.1,0.2,0.3,0.2,0.4c-0.3,0.3-0.5,0.5-0.6,0.6
			c-0.2,0.2-0.4,0.5-0.6,0.8c-0.4-0.4-0.7-0.7-0.9-1c-0.2-0.3-0.4-0.6-0.5-0.9c-0.1-0.1-0.2-0.1-0.3,0c-0.1,0-0.2,0.1-0.3,0.2
			c-0.1,0.1-0.2,0.3-0.1,0.4c0,0.2,0.2,0.5,0.5,0.9c0.3,0.3,0.6,0.7,1,1s0.7,0.6,0.9,0.8c0.1,0.1,0.2,0,0.4-0.2
			c0.1-0.1,0.1-0.2,0.2-0.3c0-0.1,0-0.2,0-0.2l-0.1-0.1c0,0,0.1-0.2,0.3-0.4c0.2-0.2,0.3-0.4,0.4-0.5c0.1-0.2,0.3-0.3,0.3-0.4
			c0.1,0.1,0.3,0,0.4-0.1c0.1-0.1,0.1-0.2,0.2-0.3c0-0.1,0-0.2,0-0.2c0.1-0.1,0.2-0.2,0.5-0.5c0.3-0.2,0.5-0.4,0.6-0.5
			s0.2-0.2,0.4-0.4c0.1-0.1,0.1-0.2,0.2-0.3c-0.2-0.2-0.5-0.4-0.7-0.6C9.5,22.6,9.4,22.7,9.3,22.9z"/>
		<path class="st2" d="M10.6,22.7c0.1-0.1,0.1-0.1,0.2-0.1v-0.1l0,0c0-0.1,0-0.2-0.2-0.3c-0.1-0.1-0.3-0.2-0.4-0.2
			c-0.2,0-0.3,0-0.4,0.2l-0.1,0.1c0,0.1-0.1,0.1-0.1,0.2c0.2,0.2,0.4,0.4,0.7,0.6c0.1-0.1,0.1-0.2,0.1-0.2
			C10.4,22.8,10.5,22.8,10.6,22.7z"/>
		<path class="st3" d="M10.6,22.7c0.1-0.1,0.1-0.1,0.2-0.1v-0.1l0,0c0-0.1,0-0.2-0.2-0.3c-0.1-0.1-0.3-0.2-0.4-0.2
			c-0.2,0-0.3,0-0.4,0.2l-0.1,0.1c0,0.1-0.1,0.1-0.1,0.2c0.2,0.2,0.4,0.4,0.7,0.6c0.1-0.1,0.1-0.2,0.1-0.2
			C10.4,22.8,10.5,22.8,10.6,22.7z"/>
		<path class="st3" d="M7.9,16.1c0,0.1,0,0.3,0.1,0.4C8,16.3,7.9,16.2,7.9,16.1z"/>
		<path class="st3" d="M14.6,7.2c-3.4,0.3-7.2,3.7-7.3,7.8c0,0.5,0.1,0.7,0.2,0.9s0.2,0.3,0.2,0.8c0,1.8,0.8,3.6,2.3,4.9
			c1.3,1.2,3.1,1.9,4.8,1.9c1.1,0,3.7-0.1,4.7-0.6v-0.1c-0.8,0.4-1.7,0.6-2.7,0.6v-0.1v-0.1c-0.8,0.1-1.6,0.1-2,0.1
			c-3,0-6.4-2.5-6.7-5.9c-0.2-0.4-0.4-1-0.4-1.5c0-0.1,0-0.2,0-0.3s-0.1-0.3-0.1-0.5c0-3.8,3.8-7.2,7-7.5c1.3-0.1,2.7,0,3.9,0.4
			c0.7,0,1.2,0.2,1.9,0.6l-0.1,0.1l-0.1,0.1c-0.3-0.2-0.5-0.3-0.8-0.4c0.8,0.4,1.5,0.8,2.1,1.4c0.5,0.4,0.9,0.9,1.2,1.5l0.1-0.1v0.1
			v0.1h-0.1c0.7,1.1,1,2.4,1,3.8c0,4.3-3.3,8-7.3,8l0,0c1-0.1,2-0.2,2.6-0.5l0.1,0.1v0.1c2.8-1.2,4.9-4.3,4.9-7.7
			c0-2.2-0.9-4.2-2.5-5.7C20,7.8,17.3,7,14.6,7.2z"/>
		<path class="st3" d="M19.3,22.7c-0.5,0.3-1.6,0.4-2.6,0.5v0.1v0.1c0.9,0,1.8-0.2,2.7-0.6v-0.1H19.3z"/>
		<polygon class="st3" points="14.3,9.4 14.3,9.5 14.4,9.5 		"/>
		<path class="st3" d="M7.9,16.1c0-0.1,0-0.2,0-0.3c0-2.4,1-4.2,2.8-5.1l-0.1-0.1l-0.1-0.1c-1.8,0.9-2.8,2.7-2.9,5.1
			c0,0.1,0.1,0.2,0.1,0.3C7.8,15.9,7.9,16,7.9,16.1z"/>
		<path class="st3" d="M14.8,15.3L14.8,15.3C14.7,15.3,14.7,15.3,14.8,15.3l-0.1,0.1L14.8,15.3z"/>
		<path class="st3" d="M12.4,14C12.5,14,12.5,14,12.4,14c0.1-0.1,0.1-0.1,0-0.1V14z"/>
		<path class="st3" d="M10.9,19.1c0.3,0,0.4-0.3,0.6-0.5c0.1-0.1,0.1-0.3,0.2-0.4c0.3-0.4,0.5-0.3,1-0.1c0.3,0.1,0.7,0.2,1.1,0.2
			c1.1-0.2,1.7-0.7,2.4-1.4c0.2-0.2,0.5-0.3,0.7-0.5c0.5-0.2,1-0.5,1-1.2c0-1.4-0.9-2.5-1.9-2.5c-1.1,0-1.2,1.8-1.2,2.6h0.1H15
			l-0.3,0.1v-0.1c-1-0.1-1.8-0.3-2.2-1.3h-0.1v-0.1V14c0.1-0.1,0.3-0.2,0.4-0.3c0.8-0.5,1.6-1,1.6-2.2V9.4V9.3h-0.1h-1
			c-1.5,0-2.4,0.9-3.4,2.4l0.1,0.1l0.1,0.1c1-1.4,1.8-2.3,3.2-2.3h0.9V9.4l0.1,0.1h-0.1v2c0,1-0.7,1.5-1.5,2
			c-0.2,0.1-0.3,0.2-0.5,0.3h-0.1v0.1c0.4,1.3,1.4,1.4,2.5,1.6h0.1h0.1v-0.1c0-1.7,0.3-2.5,0.9-2.5c0.9,0,1.7,1,1.7,2.3
			c0,0.6-0.4,0.7-0.8,1c-0.3,0.1-0.5,0.3-0.8,0.5c-0.6,0.7-1.1,1.1-2.1,1.3c-0.3,0.1-0.6,0-0.9-0.1c-0.4-0.2-0.9-0.3-1.3,0.2
			c-0.1,0.1-0.2,0.3-0.2,0.4c-0.1,0.3-0.2,0.4-0.3,0.4c-1.3,0-2.6-0.9-2.9-2.3c0,0.1,0,0.1,0,0.2c0,0.2,0,0.4,0,0.6
			C8.6,18.4,9.7,19.1,10.9,19.1z"/>
		<path class="st3" d="M8,16.5c0-0.1-0.1-0.3-0.1-0.4c0-0.1-0.1-0.2-0.1-0.3s-0.1-0.2-0.1-0.3c0,0.1,0,0.2,0,0.3
			c0,0.6,0.1,1.1,0.4,1.5c0-0.2,0-0.4,0-0.6C8,16.7,8,16.6,8,16.5z"/>
		<path class="st3" d="M20.6,12.5L20.6,12.5c0.1-0.1,0.1-0.1,0.1-0.1L20.6,12.5z"/>
		<path class="st3" d="M17.9,8.3c0.1,0,0.1,0,0.2,0L18,8.2L17.9,8.3z"/>
		<path class="st3" d="M18.1,8C18,8,18,8.1,17.9,8.1h-0.2l0.1,0.2c0.4,0.8,0.9,1,1.4,1.1c0.5,0.2,0.9,0.3,0.9,1.2
			c0,0.7-0.4,1.2-0.8,1.8c-0.4,0.6-0.8,1.2-0.8,2c0,1.4,0,4.1,1.6,4.1c0.8,0,1.1-0.9,1.3-1.7c0.1-0.3,0.2-0.7,0.4-1
			c0.2-0.3,0.4-0.6,0.5-0.9c0.4-0.5,0.7-1,0.7-1.8c0-0.2-0.1-0.3-0.2-0.4c-0.2-0.2-0.6-0.1-1.1-0.1c-0.4,0.1-0.7,0.1-0.9,0
			c0,0-0.1-0.1-0.1-0.2h-0.1l0.1-0.1c0,0,0,0,0,0.1l2.3-1.1c0-0.1-0.1-0.1-0.1-0.2l-2.3,1.1h-0.1v0.1c0,0.2,0.1,0.3,0.2,0.4
			c0.2,0.2,0.6,0.1,1.1,0.1c0.4-0.1,0.7-0.1,0.9,0c0.1,0,0.1,0.1,0.1,0.2c0,0.7-0.3,1.2-0.6,1.7c-0.2,0.3-0.4,0.6-0.6,0.9
			c-0.2,0.3-0.3,0.7-0.4,1c-0.3,0.8-0.5,1.5-1.1,1.5c-1.2,0-1.4-1.9-1.4-3.9c0-0.7,0.4-1.2,0.8-1.8c0.4-0.6,0.8-1.2,0.8-2
			c0-1.1-0.5-1.3-1-1.5C18.9,8.8,18.5,8.6,18.1,8C18,8,18,8,17.9,8L18,7.8l0.1,0.1h0.1c0.1,0,0.1-0.1,0.2-0.1c0.4,0,0.8,0.1,1.1,0.2
			c-0.3-0.2-0.7-0.3-1-0.4h-0.1C18.2,7.9,18.2,8,18.1,8z"/>
		<path class="st3" d="M23.1,11.3v-0.1v-0.1L23,11.2C22.9,11.2,22.9,11.3,23.1,11.3L23.1,11.3z"/>
		<path class="st3" d="M20.3,8.7L20.3,8.7l0.1-0.2c-0.7-0.4-1.2-0.5-1.9-0.6c0.4,0.1,0.7,0.3,1,0.4C19.7,8.4,20,8.5,20.3,8.7z"/>
		<path class="st3" d="M12.4,22L12.4,22l-0.1-0.1L12.4,22z"/>
		<path class="st3" d="M14.4,22.5L14.4,22.5L14.4,22.5L14.4,22.5l-0.1,0.1c0,0,0,0,0.1,0V22.5z"/>
		<path class="st3" d="M20.2,19.2L20.2,19.2C20.3,19.2,20.3,19.2,20.2,19.2L20.2,19.2z"/>
		<path class="st3" d="M17.6,22.1L17.6,22.1c0,0.1,0,0.1,0,0.1V22.1z"/>
		<path class="st3" d="M20.6,19.5c-0.1,0-0.1,0-0.2,0l0.1,0.1L20.6,19.5z"/>
		<path class="st3" d="M17.8,22.2L17.8,22.2v-0.1c-0.1-0.2-0.3-0.3-0.4-0.4c-0.3-0.3-0.5-0.5-0.5-0.9c0-0.7,0.5-1,1.7-1
			c0.2,0,0.4,0,0.6,0c0.5,0,1,0,1.5-0.1h0.2l-0.2-0.2L20.4,19l0,0h-0.1c-0.7,0-1.1-0.1-1.6-0.3c-0.5-0.1-1-0.3-1.7-0.3
			c-0.6,0-1,0.4-1.4,0.8c-0.3,0.3-0.6,0.6-1.1,0.8h-0.1c-1.1,0.3-2.2,0.7-2.4,2v0.1h0.1l0.1,0.1c0.7,0.3,1.2,0.4,2,0.5v-0.1v-0.1
			h0.1l0,0c-0.8,0-1.3-0.2-2-0.5h-0.1v0.1L12.1,22h0.1c0.2-1.2,1.2-1.5,2.2-1.8h0.1c0.5-0.1,0.8-0.5,1.2-0.8
			c0.4-0.4,0.7-0.7,1.2-0.7c0.7,0,1.1,0.1,1.6,0.3c0.5,0.1,0.9,0.3,1.6,0.3l0,0h0.1c0,0,0,0-0.1,0l0.2,0.3c0.1,0,0.1,0,0.2,0
			l-0.1,0.2l-0.1-0.1c-0.5,0.1-0.9,0.1-1.3,0.1c-0.2,0-0.4,0-0.6,0c-0.5,0-2,0-2,1.2c0,0.5,0.3,0.8,0.6,1.1c0.1,0.1,0.2,0.2,0.3,0.3
			c0,0,0,0,0.1-0.1v0.1c0,0,0,0-0.1-0.1c-0.4,0.5-1,0.5-1.7,0.5l0,0c-0.4,0-0.5-0.1-0.7-0.1c-0.2-0.1-0.4-0.1-0.8-0.1v0.1v0.1H14
			l0,0c0.4,0,0.6,0,0.8,0.1s0.4,0.1,0.8,0.1l0,0C16.6,22.9,17.4,22.9,17.8,22.2z"/>
		<path class="st2" d="M21.2,6.2L21.2,6.2l-0.1,0.3l0.1,0.1h0.1h0.1V6.5c0,0,0-0.1,0.1-0.2l0.1-0.1V6.1V6l-0.1-0.1l-0.1-0.1
			c-0.1,0-0.1-0.1-0.2-0.1c0,0,0-0.1,0.1-0.2l0.1-0.2l0,0V5.2V5.1l0,0h-0.1h-0.1l-0.1,0.1L21,5.3l-0.1,0.1l0,0l0,0l-0.2,0.3v0.1l0,0
			l-0.1,0.1L20.5,6l-0.1,0.1v0.1v0.1h0.1l0.1-0.1l0.1-0.1L20.8,6l0.1-0.1L21,5.8h0.1h0.1L21.3,6L21.2,6.2L21.2,6.2z"/>
		<polygon class="st2" points="22.3,6.1 22.4,6 22.4,5.9 22.4,5.9 22.4,5.9 22.3,5.9 22.2,5.9 22.2,5.9 22.2,6 22.2,6 22.2,6.1 		
			"/>
		<path class="st2" d="M21.6,6.9L21.6,6.9L21.6,6.9l0.1-0.2l0.1-0.1l0.1-0.1L22,6.4l0.1-0.1l0.1-0.1V6.1h-0.1L22,6.2l-0.1,0.1
			l-0.1,0.1l-0.1,0.1c-0.1,0.1-0.1,0.1-0.1,0.1C21.4,6.8,21.4,6.9,21.6,6.9L21.6,6.9z"/>
		<path class="st2" d="M22,7.3L22,7.3l0.1-0.2c0,0,0.1-0.1,0.1-0.2c0.1-0.1,0.1-0.2,0.2-0.3c0.1-0.1,0.1-0.2,0.2-0.3l0.1-0.1V6.1V6
			h-0.1l-0.1,0.1l-0.1,0.1c-0.1,0.1-0.2,0.2-0.2,0.3c-0.1,0.1-0.1,0.2-0.2,0.3C21.9,6.9,21.9,7,21.9,7v0.1L22,7.3L22,7.3z"/>
		<path class="st2" d="M22.9,8.1h0.2L23.2,8l0.1-0.1l0.1-0.1l0.1-0.1c0.1-0.1,0.1-0.2,0.3-0.3C23.9,7.3,24,7.2,24,7.2V7.1V7h-0.1
			l-0.2,0l0,0l0,0l0,0l0,0l-0.1,0.1l-0.1,0.1c0-0.1,0-0.2-0.1-0.2l0,0h-0.2c-0.1-0.1-0.1-0.1-0.2-0.1c-0.1,0-0.2,0-0.2,0
			C22.7,7,22.6,7,22.6,7.1l-0.1,0.1c-0.1,0.2-0.1,0.3,0,0.5l0.1,0.1c0.1,0,0.1,0.1,0.2,0.1c0.1,0,0.1,0,0.2,0L22.9,8.1L22.9,8.1z
			 M22.9,7.8l-0.2-0.1l0,0l-0.1-0.1V7.4l0.1-0.2l0.1-0.1H23l0.1,0.1l0.1,0.1v0.1v0.1v0.1l0,0c0,0.1-0.1,0.1-0.1,0.2
			C23,7.8,23,7.8,22.9,7.8z"/>
		<path class="st2" d="M23.3,8.5L23.3,8.5l0.2-0.1h0.1l0.1-0.2h0.2c0.1,0,0.1,0,0.2,0l0.1,0.1h0.1V8.2V8.1C24.2,8,24.2,8,24.1,8
			S24,8,23.9,8l0,0V7.9l0,0V7.8h-0.1h-0.1c0.1,0.1,0,0.1-0.1,0.2l-0.1,0.1l-0.1,0.1c0,0-0.1,0.1-0.2,0.1l-0.1,0.1L23.3,8.5L23.3,8.5
			z"/>
		<path class="st2" d="M24.2,9.2l0.1,0.1l0.1,0.1l0.1,0.1h0.1h0.1l0.1-0.1V9.3V9.2V9.1L24.7,9l0-0.2c-0.1-0.1-0.1-0.1-0.2-0.1
			c-0.1,0-0.2,0-0.2,0c-0.1,0-0.1,0.1-0.2,0.1L24,8.9h-0.1V9v0.1l0,0l0,0c0,0.1-0.1,0.3,0,0.4c0,0.1,0.1,0.2,0.2,0.3
			c0.1,0.1,0.1,0.2,0.2,0.2h0.1V9.9V9.8c-0.1-0.1-0.1-0.1-0.2-0.2l-0.1-0.2L24.2,9.2L24.1,9C24.1,9.1,24.2,9.1,24.2,9.2z M24.2,8.9
			l0.1-0.1h0.1h0.1L24.7,9v0.1v0.1v0.1l0,0l-0.1-0.1l-0.1-0.1C24.4,9.1,24.3,9,24.2,8.9L24.2,8.9z"/>
		<path class="st2" d="M25.2,10.6C25,10.7,25,10.8,25,10.9h0.1h0.1l0.1-0.1l0.1-0.1c0.1,0,0.1-0.1,0.2-0.1h0.1l0.1-0.1v-0.2
			l-0.1-0.2c-0.1-0.1-0.1-0.2-0.2-0.2l0.1-0.1V9.7h-0.1h-0.1l-0.1,0.1v0.1h-0.1l0,0V10h-0.3c-0.1,0-0.2,0.1-0.3,0.2v0.1v0.1l0.1,0.1
			c0,0,0.1,0,0.2-0.1c0.1-0.1,0.2-0.1,0.3-0.2c0.1,0.1,0.2,0.1,0.2,0.2v0.2l-0.1,0.1C25.3,10.6,25.3,10.6,25.2,10.6z"/>
		<path class="st2" d="M26,11.1L26,11.1l-0.1,0.1l0.1,0.1h0.1h0.1h0.2l0.1-0.1V11l-0.1-0.1h-0.1L26.2,11v0.1l0,0
			C26.1,11.1,26,11.1,26,11.1z"/>
		<path class="st2" d="M25.5,12.3L25.5,12.3l0.1,0.1h0.1h0.1h0.1l0.1-0.1c0,0,0.1-0.1,0.1-0.2c0-0.1,0.1-0.1,0.1-0.2v-0.1v-0.1l0,0
			c0,0,0.1,0,0.1,0.1v0.1V12v0.1l0,0h0.1l0,0c0,0,0-0.1,0-0.2c0-0.1,0-0.1-0.1-0.2c0-0.1-0.1-0.1-0.1-0.1H26l-0.1,0.1v0.1v0.1V12
			v0.2l-0.1,0.1l-0.1,0.1l0,0h-0.1L25.5,12.3l-0.1-0.1V12l0.1-0.2l0,0v-0.1h-0.1l0,0C25.4,11.8,25.4,12,25.5,12.3L25.5,12.3z"/>
		<path class="st2" d="M26.6,16.7c0-0.1-0.1-0.1-0.2-0.2c-0.1,0-0.1-0.1-0.2-0.1c-0.1,0-0.1,0-0.2,0c-0.1,0-0.1,0.1-0.2,0.1
			c-0.1,0.2-0.1,0.2-0.1,0.3c0,0.1,0,0.1,0,0.2s0,0.1,0.1,0.2l0.1,0.2l0.1,0.1h0.1h0.1h0.1h0.1h0.2l0.1-0.1l0.1-0.2v-0.1L26.6,17
			l0,0C26.6,16.9,26.6,16.8,26.6,16.7z M26.4,17.2L26.4,17.2l-0.1,0.1h-0.1h-0.1H26h-0.1l-0.1-0.1l0.1-0.2v-0.1l0.1-0.1l0.1-0.1h0.1
			h0.1l0.1,0.1v0.1V17l0.1,0.1L26.4,17.2z"/>
		<path class="st2" d="M25.5,17.9L25.5,17.9V18h0.1h0.1c0,0,0.1,0,0.2,0c0.1,0,0.2,0,0.3,0s0.2,0,0.3,0.1c0,0,0.1,0,0.2,0h0.1V18
			v-0.1h-0.1c0,0-0.1,0-0.2,0c-0.1,0-0.3,0-0.4-0.1c-0.1,0-0.2,0-0.4,0C25.8,17.9,25.7,17.9,25.5,17.9L25.5,17.9z"/>
		<path class="st2" d="M25.3,18.9L25.3,18.9l0.1,0.1l0,0c0,0,0.1,0,0.3,0s0.3,0,0.3,0c0.1,0.1,0.2,0.2,0.2,0.3l0,0h0.1v-0.1v-0.1
			c-0.1-0.1-0.1-0.1-0.2-0.2C26,18.8,26,18.7,26,18.7h0.1c0.1,0,0.1,0,0.2,0h0.2h0.1h0.1v-0.1v-0.1h-0.1c-0.4-0.1-0.6-0.1-0.8-0.2
			l-0.1-0.1h-0.1h-0.1l-0.1-0.1l0,0l0,0l0,0l0,0v0.1l0.1,0.1l0.1,0.1h0.1c0,0,0,0.1,0.1,0.2C25.7,18.8,25.5,18.8,25.3,18.9
			L25.3,18.9z"/>
		<path class="st2" d="M25.1,19.4L25.1,19.4v0.1h0.1h0.1c0,0,0.1,0,0.2,0c0.1,0,0.2,0,0.3,0.1c0.1,0,0.2,0.1,0.3,0.1l0.2,0.1h0.1
			v-0.1v-0.1l-0.1-0.1c0,0-0.1,0-0.2-0.1c-0.1,0-0.3-0.1-0.4-0.1c-0.1,0-0.2,0-0.4-0.1C25.3,19.4,25.3,19.4,25.1,19.4L25.1,19.4z"/>
		<path class="st2" d="M25.7,20.3c0-0.1,0-0.1-0.1-0.2s-0.1-0.1-0.2-0.2c-0.1,0-0.1,0-0.2,0c-0.1,0-0.2,0-0.2,0.1
			c-0.1,0-0.1,0.1-0.2,0.2c0,0.1-0.1,0.1-0.1,0.2s0,0.1,0,0.2s0,0.1,0.1,0.2l0.1,0.1H25h0.1h0.1h0.1h0.2l0.2-0.1l0.1-0.1v-0.1v-0.1
			l0,0C25.7,20.5,25.7,20.4,25.7,20.3z M25.5,20.6L25.5,20.6l-0.2,0.1h-0.1h-0.1H25h-0.1l0,0v-0.1v-0.2v-0.1l0.1-0.1h0.1h0.1
			l0.1,0.1l0.1,0.1v0.1L25.5,20.6L25.5,20.6z"/>
		<path class="st2" d="M24.9,21.3l-0.1-0.1h-0.1c0,0-0.1-0.1-0.2-0.1L24.4,21l-0.1,0.1v0.1l0.1,0.1l0.1,0.1l0.1,0.1
			c0,0,0.1,0.1,0.2,0.1l0.1,0.1v0.2v0.2v0.1H25h0.1c0-0.1,0-0.1,0-0.2s0-0.1,0-0.2l0,0h0.1l0,0h0.1v-0.1v-0.1
			C25.1,21.4,25,21.4,24.9,21.3z"/>
		<path class="st2" d="M23.9,22.4l-0.1,0.2l-0.1,0.1v0.1l0.1,0.1h0.1H24h0.1l0.1-0.1l0.1-0.1l0.1-0.1c0-0.1,0-0.2,0-0.2
			c0-0.1,0-0.2-0.1-0.2l0-0.2l-0.1-0.1l0,0h-0.1H24l0,0l0,0c-0.1,0-0.3,0-0.4,0.1c-0.1,0.1-0.2,0.1-0.3,0.3
			c-0.1,0.1-0.1,0.2-0.2,0.3v0.1h0.1h0.1c0-0.1,0.1-0.2,0.1-0.2l0.1-0.1l0.2-0.1h0.2C23.9,22.4,23.9,22.4,23.9,22.4
			C24,22.3,23.9,22.4,23.9,22.4z M24,22.6l0.1-0.1c0-0.1,0.1-0.2,0.1-0.4l0,0l0.1,0.1l0.1,0.1v0.1l-0.1,0.1l-0.1,0.1L24,22.6
			L24,22.6L24,22.6L24,22.6z"/>
		<path class="st2" d="M22.3,25L22.3,25l0.2,0.1h0.2c0.1,0,0.2,0,0.3-0.1l0.1-0.1L23,24.7c-0.1-0.1-0.2-0.1-0.3-0.2
			c0-0.1,0.1-0.2,0.1-0.3c0-0.1,0-0.2,0-0.3v-0.1c-0.1-0.1-0.1-0.1-0.2-0.1c-0.1,0-0.1,0-0.2,0.1c-0.1,0-0.1,0.1-0.2,0.1L22,24
			c-0.1,0.1-0.1,0.1-0.2,0.2c-0.1,0-0.2,0-0.2-0.1h-0.1v0.1v0.1l0,0c0,0,0.1,0,0.2,0.1v0.1v0.1v0.1h0.1h0.1l0,0c0-0.1,0-0.1,0.1-0.2
			h0.2l0.2,0.1l0.2,0.1c0,0.1-0.1,0.1-0.1,0.2C22.3,24.8,22.3,24.9,22.3,25z M22.6,24.7L22.6,24.7l0.1,0.2l0,0h-0.1h-0.1h-0.1
			C22.4,24.9,22.4,24.8,22.6,24.7L22.6,24.7z M22.3,24.3c-0.1,0-0.1,0-0.2-0.1H22c0-0.1,0.1-0.1,0.2-0.2l0.1-0.1l0.1-0.1h0.1h0.1
			v0.1c0,0.2,0,0.3-0.1,0.4C22.4,24.4,22.3,24.3,22.3,24.3z"/>
		<path class="st2" d="M18.7,26L18.7,26l0.1-0.1l0,0c0.1,0,0.1-0.1,0.2-0.1c0.1-0.1,0.1-0.1,0.1-0.2s0-0.2,0-0.2L19,25.2
			c-0.1-0.1-0.1-0.1-0.2-0.1c-0.1,0-0.1,0-0.2,0c-0.1,0-0.1,0-0.2,0.1l-0.2,0.2c0,0.1-0.1,0.1-0.1,0.2v0.1v0.1v0.1V26v0.1l0.1,0.2
			l0.2,0.1L18.7,26z M18.4,25.7L18.4,25.7l-0.1-0.1v-0.1v-0.1l0.1-0.1l0.1-0.1l0.1-0.1h0.1l0.1,0.1l0.1,0.1v0.1v0.1l-0.1,0.1
			l-0.1,0.1v0.1h-0.1L18.4,25.7L18.4,25.7z"/>
		<path class="st2" d="M17.8,25.9c0-0.1-0.1-0.2-0.1-0.3c0-0.1-0.1-0.2-0.1-0.3v-0.1h-0.1h-0.1v0.1v0.1c0,0,0,0.1,0.1,0.2
			c0,0.1,0.1,0.2,0.1,0.3c0,0.1,0.1,0.2,0.1,0.3c0,0,0,0.1,0,0.2v0.1h0.1h0.1v-0.1c0,0,0-0.1,0-0.2C17.9,26.2,17.9,26.1,17.8,25.9z"
			/>
		<path class="st2" d="M17.2,25.4L17.2,25.4L17.2,25.4L17.2,25.4L17.2,25.4H17v0.1v0.1v0.1c0,0-0.1,0.1-0.2,0.2
			c-0.1-0.2-0.2-0.3-0.2-0.5l-0.1-0.1h-0.1v0.1l0,0c0,0,0.1,0.1,0.1,0.2c0.1,0.3,0.2,0.4,0.2,0.4c-0.1,0.1-0.1,0.2-0.2,0.3l0,0v0.1
			h0.1l0.1-0.1c0-0.1,0.1-0.1,0.1-0.2c0.1-0.1,0.1-0.1,0.2-0.2V26c0,0.1,0,0.1,0,0.2s0,0.1,0,0.2v0.1v0.1h0.1h0.1v-0.1
			c-0.1-0.3-0.1-0.6-0.1-0.8v-0.1v-0.1v-0.1H17.2z"/>
		<path class="st2" d="M15.6,25.2L15.6,25.2h0.2l0.1,0.1l0.1,0.1h0.1v-0.1l0,0L16,25.2L15.8,25h-0.2c-0.1,0-0.2,0-0.3,0.1l-0.1,0.2
			v0.2c0,0.1,0,0.1,0,0.2s0,0.2,0,0.2c0,0.1,0,0.2,0,0.2v0.1v0.1v0.1v0.1v0.1v0.1l0,0h0.1l0,0l0,0v-0.1l0,0l0.2,0.1l0,0h0.2
			c0.1,0,0.2,0,0.2-0.1l0.1-0.1l0.1-0.1v-0.1v-0.1c0-0.1,0-0.2-0.1-0.2c0-0.1-0.1-0.1-0.1-0.1l-0.1-0.1l-0.1-0.3h-0.1h-0.2l-0.1,0.1
			c0-0.1,0-0.3,0.1-0.3C15.4,25.2,15.5,25.2,15.6,25.2z M15.3,25.8l0.1-0.1h0.2l0,0h0.1l0.1,0.1h0.1l0.1,0.1V26v0.1l-0.1,0.1
			l-0.1,0.1l-0.1,0.1h-0.1c0,0-0.1,0-0.2-0.1l0,0l0,0v-0.1h-0.1l0,0C15.3,26.1,15.3,26,15.3,25.8z"/>
		<path class="st2" d="M14.7,25.9L14.7,25.9v-0.2l-0.1-0.2l-0.1-0.1c-0.1,0-0.1-0.1-0.2-0.1c-0.1,0-0.2,0-0.2,0
			c-0.1,0-0.1,0-0.2,0.1v-0.1l0,0l0,0l0,0h-0.1l0,0v0.1v0.1c0,0.1,0,0.1,0,0.1v0.1v0.1v0.1V26v0.1v0.1v0.1h0.1H14l0,0v-0.1l0.2,0.1
			h0.1h0.1c0.1,0,0.2,0,0.3,0l0.1-0.1l0.1-0.1L14.7,25.9z M14.5,25.8L14.5,25.8L14.5,25.8L14.4,26h-0.1h-0.1h-0.1H14h-0.1l0,0l0,0
			l0,0c0-0.1,0-0.2,0-0.2v-0.1l0.1-0.1c0.1,0,0.1,0,0.2,0C14.4,25.4,14.5,25.6,14.5,25.8L14.5,25.8L14.5,25.8z"/>
		<path class="st2" d="M12,25L12,25l-0.1-0.2h-0.1c-0.1,0.2-0.1,0.3-0.1,0.4s0,0.1,0,0.2s0,0.1,0,0.2l0.1,0.1l0.2,0.1
			c0.1,0,0.2,0,0.3,0l0.1,0.1l0.2,0.1c0.1,0,0.2,0,0.3,0v0.1v0.1l0,0H13l0,0l0.1-0.1c0,0,0-0.1,0.1-0.2l0,0l0,0l0.1-0.1v-0.1
			l0.1-0.1l0.1-0.1l0.1-0.1v-0.1v-0.1l0,0c-0.1,0-0.1,0-0.2,0.1l-0.1,0.1l-0.1,0.1l-0.1,0.1H13c-0.1,0-0.2,0-0.2,0l-0.1-0.1l0.1-0.1
			v-0.1v-0.1v-0.1V25v-0.1v-0.1v-0.1l0,0c-0.1,0-0.2,0-0.2,0.2V25l-0.1,0.2l0,0c-0.1,0-0.1,0-0.2,0l-0.1-0.1L12,25l0.1-0.1l0.1-0.1
			L12,25z"/>
		<path class="st2" d="M10.9,25.4c0.1,0,0.1-0.1,0.2-0.1l0.1-0.2V25l0,0v-0.1v-0.1l0,0l0,0c0-0.1-0.1-0.3-0.2-0.3
			c-0.1-0.1-0.2-0.2-0.3-0.2s-0.2-0.1-0.3-0.1h-0.1v0.1v0.1c0.1,0,0.2,0.1,0.3,0.1l0.2,0.1l0.1,0.1l0.1,0.2c-0.1,0-0.1,0-0.2,0
			c-0.1,0-0.1,0-0.2,0h-0.2h-0.1h-0.1L10.1,25v0.1v0.1l0.1,0.1l0.1,0.1l0.1,0.1l0.2,0.1C10.8,25.4,10.8,25.4,10.9,25.4z M10.6,25.2
			l-0.1-0.1L10.4,25v-0.1l0,0h0.1h0.1c0.1,0,0.2,0,0.4,0l0,0L10.9,25l-0.1,0.1h-0.1L10.6,25.2z"/>
		<path class="st2" d="M7.6,21.9l-0.1-0.1l-0.1-0.1l-0.1-0.1H7.2H7.1L7,21.7v0.1v0.1V22l0.1,0.1l0.1,0.1c0.1,0.1,0.1,0.1,0.2,0.1
			s0.2,0,0.2,0c0.1,0,0.1-0.1,0.2-0.1l0.1-0.1H8V22v-0.1l0,0l0,0c0-0.1,0.1-0.3,0-0.4c0-0.1-0.1-0.2-0.2-0.3C7.7,21.1,7.7,21,7.6,21
			H7.5v0.1v0.1c0.1,0.1,0.1,0.1,0.2,0.2l0.1,0.2v0.2V22C7.7,21.9,7.6,21.9,7.6,21.9z M7.7,22.1l-0.1,0.1H7.5H7.4l-0.1-0.1l-0.1-0.2
			v-0.1v-0.1l0,0l0.1,0.1l0.1,0.1C7.5,22,7.6,22,7.7,22.1L7.7,22.1z"/>
		<path class="st2" d="M7.1,20.5L7.1,20.5l-0.2-0.1H6.8H6.7H6.6l-0.1,0.1c0,0.1-0.1,0.1-0.1,0.2s0,0.2,0,0.2V21v0.1v0.1
			c0,0-0.1,0-0.1-0.1V21v-0.1v-0.1l0,0H6.2l0,0c0,0,0,0.1,0.1,0.2c0,0.1,0.1,0.1,0.1,0.2l0.2,0.1h0.2l0.1-0.1v-0.1V21v-0.1v-0.2
			v-0.2L7,20.4l0,0h0.1h0.1l0.1,0.1v0.2v0.2l0,0h0.1h0.1l0,0C7.3,20.9,7.3,20.8,7.1,20.5L7.1,20.5z"/>
		<path class="st2" d="M6.5,19.7L6.5,19.7c-0.1,0.1-0.2,0.1-0.4,0.2C6,20,5.8,20,5.8,20.1l0,0l-0.1-0.2H5.6l0,0l0,0h0.1L5.8,20l0,0
			l0,0c-0.1,0.1-0.2,0.1-0.3,0.2v0.1l0.1,0.1h0.1c0.1-0.1,0.2-0.2,0.2-0.2v0.1v0.1H6v-0.1c0-0.1-0.1-0.1-0.1-0.2H6
			c0.1,0,0.1-0.1,0.3-0.1c0.1-0.1,0.2-0.1,0.3-0.1l0.1-0.1L6.5,19.7L6.5,19.7L6.5,19.7z"/>
		<path class="st2" d="M6,19.3H5.8H5.6H5.5l-0.1,0.1v0.1l0.1,0.1h0.1l0.1-0.1h0.1c0,0,0.1,0,0.2,0s0.2,0,0.2-0.1
			c0.1-0.1,0.2-0.1,0.1-0.2l-0.1-0.1H6.1H6H5.9L6,19.3z"/>
		<polygon class="st2" points="5,19.6 5.1,19.7 5.2,19.7 5.2,19.7 5.3,19.7 5.3,19.6 5.3,19.6 5.2,19.5 5.1,19.5 5,19.6 		"/>
		<path class="st2" d="M5.5,19.1c0,0,0.1-0.1,0.1-0.2c0.1-0.1,0.1-0.1,0.2-0.2l0.1-0.1L6,18.5l0.1-0.1v-0.1v-0.1v-0.1H6
			c0,0-0.1,0-0.2,0s-0.2,0-0.2,0s-0.1,0-0.2,0s-0.2,0-0.2,0l0,0l0,0v0.1v0.1l0,0c0.1,0,0.2,0,0.2,0c0.1,0,0.2,0,0.3,0
			c0.1,0,0.2,0,0.2,0l-0.1,0.1l-0.1,0.2l-0.1,0.1l-0.1,0.1l-0.1,0.1L5.2,19v0.1v0.1h0.1L5.5,19.1z"/>
		<path class="st2" d="M4.9,17.3L4.9,17.3c0,0.1,0.1,0.2,0.1,0.3l0.1,0.1h0.1h0.1h0.1l0.1-0.1l0.1-0.1l0.1-0.1c0-0.1,0-0.2,0-0.2
			c0-0.1,0-0.1-0.1-0.2l-0.1-0.2l0,0l0,0l0,0l0,0v-0.1l0,0H5.4l-0.1,0.1c-0.1,0-0.1,0-0.1,0H5.1L5,16.9H4.9H4.8H4.7H4.6l0.1,0V17
			v0.1h0.1h0.1C4.8,17.1,4.8,17.2,4.9,17.3L4.9,17.3z M5.1,17.2L5.1,17.2v-0.1l0,0l0,0C5.2,17,5.3,17,5.3,17h0.1l0.1,0.1
			c0.1,0.1,0.1,0.1,0.1,0.2c0,0.2-0.1,0.3-0.3,0.4l0,0l0,0H5.2l0,0H5.1L5,17.6v-0.1L5.1,17.2L5.1,17.2z"/>
		<path class="st2" d="M5.2,16.2c0.1,0,0.2-0.1,0.3-0.1h0.1V16v-0.1H5.5H5.4c0,0-0.1,0-0.2,0.1c-0.1,0-0.2,0.1-0.3,0.1
			c-0.1,0-0.2,0-0.3,0.1c0,0-0.1,0-0.2,0H4.3v0.1v0.1h0.1c0,0,0.1,0,0.2,0s0.3,0,0.4-0.1C4.9,16.3,5.1,16.3,5.2,16.2z"/>
		<path class="st2" d="M5.3,11.9h0.1c0,0,0.1,0,0.2,0.1c0.2,0.1,0.3,0.1,0.4,0v-0.1l-0.1-0.1H5.8H5.6c-0.1,0-0.1-0.1-0.2-0.1H5.3
			H5.1L5,11.8L4.9,12c0,0.1-0.1,0.2,0,0.3H4.8l-0.1,0.1v0.1l0.1,0.1h0.1H5l0.1,0.1h0.1l0,0c0.1,0,0.1,0,0.2,0.1
			c0.1,0,0.2,0.1,0.3,0.2h0.1v-0.1v-0.1c0,0-0.1-0.1-0.2-0.1c-0.2-0.1-0.3-0.1-0.4-0.1c0-0.1,0-0.2,0-0.3L5.3,11.9z"/>
		<path class="st2" d="M6.2,11.4L6.2,11.4l0.1-0.1l0,0H6.2c-0.1,0-0.2-0.1-0.3-0.2C5.8,11,5.6,11,5.6,10.9l0,0v-0.1l-0.1-0.1H5.4
			l0,0v0.1v0.1l0,0l0,0c-0.1,0-0.2-0.1-0.4-0.1l0,0v0.1V11c0.1,0,0.2,0,0.3,0.1L5.2,11v0.1l0,0h0.1c0-0.1,0.1-0.1,0.1-0.2h0.1
			c0.1,0,0.1,0.1,0.3,0.1c0.1,0.1,0.2,0.1,0.3,0.1L6.2,11.4z"/>
		<path class="st2" d="M6.4,10.6L6.4,10.6c0.1,0,0.3-0.1,0.4-0.1c0.1-0.1,0.2-0.2,0.3-0.3c0.1-0.1,0.1-0.2,0.1-0.3V9.8H7.1H7
			c0,0.1-0.1,0.2-0.1,0.3l-0.1,0.2l-0.2,0.1H6.4c0-0.1,0-0.1,0-0.2c0-0.1,0-0.1,0-0.2l0.1-0.2V9.7V9.6L6.4,9.5H6.3H6.2H6.1L6,9.6
			L5.9,9.7L5.8,9.8c0,0.1,0,0.2,0,0.2c0,0.1,0.1,0.1,0.1,0.2l0.2,0.2h0.1l0,0L6.4,10.6L6.4,10.6L6.4,10.6z M6.4,9.9V10
			c0,0.1-0.1,0.2-0.1,0.4l0,0l-0.1-0.1l-0.1-0.1v-0.1V10l0.1-0.1h0.1L6.4,9.9L6.4,9.9L6.4,9.9z"/>
		<path class="st2" d="M7.4,9.5L7.4,9.5L7.3,9.3L7.2,9.2L7.1,9.1L7,9L6.9,8.9V8.7V8.6V8.5H6.8H6.7c0,0.1,0,0.1,0,0.2
			c0,0.1,0,0.1,0,0.2l0,0H6.6l0,0H6.5V9v0.1c0.1,0.1,0.2,0.1,0.3,0.2l0.1,0.1H7c0,0,0.1,0.1,0.2,0.1L7.4,9.5L7.4,9.5z"/>
		<path class="st2" d="M7.8,8h0.1c0,0,0.1,0.1,0.2,0.2c0.1,0.1,0.3,0.2,0.3,0.1V8.2V8.1L8.3,8L8.2,8L8.1,7.9L8,7.8L7.8,7.7H7.6
			L7.5,7.8C7.4,7.9,7.4,8,7.3,8.1H7.2H7.1v0.1v0.1h0.1h0.1v0.1h0.1l0,0l0.1,0.1c0,0,0.1,0.1,0.3,0.3h0.1H8V8.7c0,0-0.1-0.1-0.2-0.2
			C7.7,8.4,7.6,8.3,7.5,8.3c0-0.1,0.1-0.2,0.1-0.3L7.8,8z"/>
		<path class="st2" d="M8.5,7.7L8.5,7.7l0.3,0.2H9c0.1,0,0.1-0.1,0.2-0.1l0.1-0.2l0.1-0.2l0,0l0,0l0,0l0,0V7.3l0,0L9.3,7.2L9.2,7.1
			L9.3,7l0,0L9.2,6.9L9.1,6.8H9V6.7V6.6H8.9H8.8v0.1v0.1v0.1c-0.1,0-0.1,0-0.2,0.1v0.1l0,0C8.5,7.2,8.5,7.2,8.4,7.3v0.2v0.1L8.5,7.7
			L8.5,7.7z M8.6,7.2L8.6,7.2L8.6,7.2l0.2-0.1h0.1l0,0l0,0l0,0c0.1,0,0.2,0.1,0.2,0.1l0.1,0.1c0,0,0,0.1,0,0.2S9.1,7.6,9.1,7.7
			C9,7.8,8.8,7.8,8.6,7.7l0,0l0,0V7.6l0,0V7.5L8.6,7.2z"/>
		<path class="st2" d="M9.8,6.8L9.8,6.8L10,6.9l0,0l0,0V6.8c0-0.1-0.1-0.2-0.2-0.3c0-0.2-0.1-0.3-0.1-0.3l0,0L9.8,6V5.9l0,0l0,0V6
			H9.6l0,0l0,0C9.5,5.9,9.4,5.8,9.3,5.7H9.2L9.1,5.8v0.1C9.3,6,9.3,6,9.4,6.1L9.3,6.2L9.2,6.3v0.1h0.1l0.2-0.1l0.1,0.1
			c0,0,0.1,0.1,0.1,0.2C9.8,6.7,9.8,6.7,9.8,6.8z"/>
		<polygon class="st2" points="10,5.6 10.1,5.6 10.1,5.5 10.1,5.4 10,5.4 10,5.4 10,5.4 9.9,5.4 9.9,5.5 9.9,5.6 9.9,5.6 		"/>
		<path class="st2" d="M10.2,6.1c0,0,0,0.1,0.1,0.2c0,0.1,0.1,0.1,0.1,0.2c0.1,0.1,0.1,0.1,0.2,0.1V6.5V6.4l-0.1-0.1V6.2V6.1L10.4,6
			l-0.1-0.1l-0.1-0.1l-0.1-0.1H10v0.1v0.1L10.2,6.1L10.2,6.1z"/>
		<path class="st2" d="M11.6,5.5L11.6,5.5L11.6,5.5l-0.2-0.2l-0.2-0.1H11l-0.1,0.1v0.1l0,0c-0.1,0-0.1,0.1-0.2,0.2c0,0,0,0.1,0,0.2
			c0,0.1,0,0.1,0,0.2s0.1,0.1,0.2,0.2c0.1,0,0.1,0.1,0.2,0.1c0.1,0,0.1,0,0.2,0c0.1,0,0.1-0.1,0.2-0.1L11.6,6
			c0.1-0.1,0.1-0.2,0.1-0.3L11.6,5.5L11.6,5.5L11.6,5.5z M11.5,5.8L11.4,6l-0.1,0.1h-0.1L11,6l-0.1-0.1V5.8V5.7L11,5.6l0.1-0.1V5.4
			h0.1h0.1l0,0l0,0l0.1,0.1l0,0v0.1L11.5,5.8z"/>
		<path class="st2" d="M12.4,5h0.2l0.1,0.1c0,0,0,0.1,0.1,0.2c0.1,0.2,0.2,0.3,0.3,0.2l0.1-0.1v0l-0.1-0.1L13,5.2c0-0.1,0-0.1,0-0.2
			V4.9l-0.1-0.1l-0.2-0.1h-0.2c-0.1,0-0.2,0.1-0.3,0.2l-0.1-0.1H12l-0.1,0.1V5L12,5.1v0.1v0.1l0,0h0.1l0.1,0.2
			c0,0.1,0.1,0.2,0.1,0.3l0,0h0.1l0.1-0.1c0,0,0-0.1-0.1-0.2c-0.1-0.2-0.1-0.3-0.1-0.4C12.3,5,12.4,5,12.4,5z"/>
		<path class="st2" d="M14.4,4.9L14.4,4.9l-0.1-0.2V4.6V4.5V4.4V4.3l-0.1-0.1h-0.1H14v0.1v0.1c-0.1,0-0.1,0-0.2,0h-0.1h-0.1
			c-0.1,0-0.2,0.1-0.2,0.1l-0.1,0.1v0.1v0.1v0.1L13.4,5l0.1,0.1l0.2,0.3c0.1,0,0.2,0,0.2,0c0.1,0,0.1,0,0.2-0.1l0.2-0.1l0,0l0,0l0,0
			l0,0h0.1l0,0V5.1V4.9C14.5,4.9,14.5,4.9,14.4,4.9z M14.2,5L14.2,5C14,5.2,14,5.2,13.9,5.2c-0.2,0-0.3-0.1-0.4-0.3l0,0l0,0V4.8l0,0
			V4.7h0.2h0.1h0.1H14h0.1l0,0l0,0l0,0c0.1,0.1,0.1,0.2,0.1,0.2L14.2,5z"/>
		<path class="st2" d="M15,4.3c0-0.1,0-0.2-0.1-0.3c0,0,0-0.1,0-0.2V3.7h-0.1h-0.1v0.1c0,0,0,0.1,0,0.2c0,0.1,0,0.3,0.1,0.4
			c0,0.1,0.1,0.2,0.1,0.4C14.9,4.9,15,5,15,5.1v0.1h0.1h0.1V5.1V5c0,0,0-0.1-0.1-0.2C15,4.5,15,4.4,15,4.3z"/>
	</g>
	<g>
		<g>
			<path class="st0" d="M3.2,36.6H2.8c0-0.5-0.1-1.6-0.4-3.1h-1l1.1,5.2v2.9h1v-2.9l1.1-5.2h-1C3.4,34.7,3.2,35.7,3.2,36.6z"/>
			<rect x="5.3" y="33.4" class="st0" width="1.1" height="8.1"/>
			<polygon class="st0" points="8.7,33.4 7.5,33.4 7.5,41.5 9.6,41.5 9.6,40.2 8.7,40.2 			"/>
			<path class="st0" d="M11.1,33.4l-0.8,8.1h1.2l0.1-1.5h1l0.1,1.5h1.2L13,33.4H11.1z M11.5,38.9v-0.2c0-0.8,0.1-2,0.3-3.6h0.4
				c0.1,1.4,0.2,2.6,0.2,3.6v0.2H11.5z"/>
			<polygon class="st0" points="16.8,37 16.3,37.1 15.5,33.4 14.6,33.4 14.6,41.5 15.4,41.5 15.4,37.8 15.9,37.8 16.7,41.5 
				17.6,41.5 17.6,33.4 16.8,33.4 			"/>
			<rect x="20.1" y="33.4" class="st0" width="1.1" height="8.1"/>
			<polygon class="st0" points="24.5,37 24,37.1 23.2,33.4 22.3,33.4 22.3,41.5 23.2,41.5 23.2,37.8 23.6,37.8 24.4,41.5 25.4,41.5 
				25.4,33.4 24.5,33.4 			"/>
			<polygon class="st0" points="26.2,34.7 27.1,34.7 27.1,41.5 28.2,41.5 28.2,34.7 29.2,34.7 29.2,33.4 26.2,33.4 			"/>
			<polygon class="st0" points="31.1,37.9 32.1,37.9 32.1,36.7 31.1,36.7 31.1,34.7 32.2,34.7 32.2,33.4 30,33.4 30,41.5 32.3,41.5 
				32.3,40.2 31.1,40.2 			"/>
			<path class="st0" d="M36.1,36.8c0.1-0.1,0.2-0.5,0.2-1.2s-0.1-1.2-0.2-1.5c-0.1-0.3-0.3-0.4-0.5-0.5s-0.6-0.1-1.4-0.1h-1v8.1h1.1
				v-3.8h0.2c0.3,0,0.5,0.1,0.6,0.3c0,0.1,0.1,0.3,0.1,0.9v2.6h1v-2c0-0.8,0-1.1,0-1.2c0-0.1-0.1-0.3-0.2-0.4
				c-0.1-0.1-0.3-0.2-0.5-0.3v-0.4C35.8,37,36,36.9,36.1,36.8z M35.2,35.8c0,0.5-0.1,0.7-0.2,0.8c-0.1,0.1-0.3,0.2-0.5,0.2h-0.2
				v-2.3h0.2c0.3,0,0.4,0.1,0.5,0.2c0.2,0.1,0.2,0.3,0.2,0.6V35.8z"/>
			<polygon class="st0" points="39.5,37 39.1,37.1 38.2,33.4 37.3,33.4 37.3,41.5 38.2,41.5 38.2,37.8 38.6,37.8 39.4,41.5 
				40.4,41.5 40.4,33.4 39.5,33.4 			"/>
			<path class="st0" d="M41.9,33.4l-0.8,8.1h1.2l0.1-1.5h1l0.1,1.5h1.2l-0.9-8.1H41.9z M42.4,38.9v-0.2c0-0.8,0.1-2,0.3-3.6h0.4
				c0.1,1.4,0.2,2.6,0.2,3.6v0.2H42.4z"/>
			<polygon class="st0" points="44.7,34.7 45.6,34.7 45.6,41.5 46.7,41.5 46.7,34.7 47.7,34.7 47.7,33.4 44.7,33.4 			"/>
			<rect x="48.5" y="33.4" class="st0" width="1.1" height="8.1"/>
			<path class="st0" d="M53.6,34c-0.1-0.3-0.3-0.5-0.5-0.6s-0.5-0.2-0.8-0.2s-0.6,0.1-0.8,0.2c-0.2,0.1-0.4,0.3-0.5,0.6
				s-0.2,0.6-0.2,0.9c0,0.3,0,0.9,0,1.8v1.5c0,0.9,0,1.5,0,1.8s0.1,0.6,0.3,0.9c0.1,0.3,0.3,0.5,0.5,0.6s0.5,0.2,0.8,0.2
				s0.6-0.1,0.8-0.2c0.2-0.1,0.4-0.3,0.5-0.6s0.2-0.6,0.2-0.9c0-0.4,0-1,0-1.8v-1.5c0-0.9,0-1.5,0-1.8C53.8,34.6,53.7,34.3,53.6,34z
				 M52.7,39.3c0,0.7,0,0.9-0.1,1c-0.1,0.2-0.2,0.4-0.4,0.4c-0.2,0-0.4-0.1-0.4-0.3c0-0.1,0-0.3,0-1v-4c0-0.6,0-0.8,0.1-0.9
				c0.1-0.2,0.2-0.3,0.4-0.3c0.2,0,0.3,0.1,0.4,0.3c0,0.1,0.1,0.3,0.1,0.8L52.7,39.3L52.7,39.3z"/>
			<polygon class="st0" points="57.1,37 56.7,37.1 55.8,33.4 54.9,33.4 54.9,41.5 55.8,41.5 55.8,37.8 56.2,37.8 57,41.5 58,41.5 
				58,33.4 57.1,33.4 			"/>
			<path class="st0" d="M59.5,33.4l-0.8,8.1h1.2L60,40h1l0.1,1.5h1.1l-0.9-8.1H59.5z M60,38.9v-0.2c0-0.8,0.1-2,0.3-3.6h0.4
				c0.1,1.4,0.2,2.6,0.2,3.6v0.2H60z"/>
			<polygon class="st0" points="64.1,33.4 63,33.4 63,41.5 65.1,41.5 65.1,40.2 64.1,40.2 			"/>
		</g>
		<g>
			<g>
				<path class="st0" d="M69.8,33.6c-0.3-0.2-0.6-0.3-1-0.3c-0.3,0-0.6,0.1-0.8,0.2c-0.2,0.1-0.4,0.3-0.5,0.6s-0.2,0.5-0.2,0.8
					s0,0.8,0,1.4v2.5c0,0.8,0,1.4,0.1,1.8c0.1,0.4,0.3,0.6,0.5,0.9c0.3,0.2,0.6,0.3,1,0.3s0.7-0.1,1-0.4c0.3-0.2,0.4-0.5,0.5-0.9
					c0.1-0.3,0.1-1,0.1-1.8v-0.1h-1.1v0.8c0,0.7,0,0.9-0.1,0.9c-0.1,0.2-0.2,0.4-0.4,0.4c-0.2,0-0.4-0.1-0.4-0.4
					c0-0.1-0.1-0.3-0.1-0.9v-3.9c0-0.6,0-0.8,0.1-0.9c0.1-0.2,0.2-0.4,0.5-0.4c0.2,0,0.4,0.1,0.4,0.3c0,0.1,0.1,0.3,0.1,0.9v1.3h1.1
					v-0.6c0-0.8,0-1.3-0.1-1.7C70.3,34.1,70.1,33.8,69.8,33.6z"/>
				<polygon class="st0" points="73.5,36.5 72.6,36.5 72.6,33.4 71.5,33.4 71.5,41.5 72.6,41.5 72.6,37.9 73.5,37.9 73.5,41.5 
					74.7,41.5 74.7,33.4 73.5,33.4 				"/>
				<rect x="75.8" y="33.4" class="st0" width="1.1" height="8.1"/>
				<polygon class="st0" points="79.1,33.4 78,33.4 78,41.5 80.1,41.5 80.1,40.2 79.1,40.2 				"/>
				<path class="st0" d="M83.8,34c-0.1-0.2-0.3-0.3-0.5-0.4c-0.2-0.1-0.6-0.1-1.5-0.1h-1v8.1h1.8c0.4,0,0.6,0,0.8-0.1
					c0.1,0,0.3-0.1,0.4-0.2c0.1-0.1,0.2-0.3,0.2-0.5s0.1-0.7,0.1-1.5v-3c0-0.8,0-1.3-0.1-1.6C84,34.4,83.9,34.1,83.8,34z M83,39
					c0,0.8-0.1,1-0.1,1.1c-0.1,0.1-0.2,0.3-0.6,0.3h-0.2v-6h0.2c0.2,0,0.4,0,0.5,0.1s0.2,0.2,0.2,0.4c0,0.1,0,0.2,0,0.8V39z"/>
				<path class="st0" d="M88.1,36.8c0.1-0.1,0.2-0.5,0.2-1.2s-0.1-1.2-0.2-1.5s-0.3-0.4-0.5-0.5s-0.6-0.1-1.4-0.1h-0.9v8.1h1.1v-3.8
					h0.2c0.3,0,0.5,0.1,0.6,0.3c0,0.1,0.1,0.3,0.1,0.9v2.6h1v-2c0-0.8,0-1.1,0-1.2c0-0.1-0.1-0.3-0.2-0.4c-0.1-0.1-0.3-0.2-0.5-0.3
					v-0.4C87.8,37,88,36.9,88.1,36.8z M87.2,35.8c0,0.5-0.1,0.7-0.2,0.8s-0.3,0.2-0.5,0.2h-0.2v-2.3h0.2c0.3,0,0.4,0.1,0.5,0.2
					c0.1,0.1,0.2,0.3,0.2,0.7V35.8z"/>
				<polygon class="st0" points="90.4,37.9 91.4,37.9 91.4,36.7 90.4,36.7 90.4,34.7 91.5,34.7 91.5,33.4 89.3,33.4 89.3,41.5 
					91.6,41.5 91.6,40.2 90.4,40.2 				"/>
				<polygon class="st0" points="94.7,37 94.2,37.1 93.4,33.4 92.5,33.4 92.5,41.5 93.3,41.5 93.3,37.8 93.8,37.8 94.6,41.5 
					95.6,41.5 95.6,33.4 94.7,33.4 				"/>
				<path class="st0" d="M96.4,34.6h0.3v0.2c0,0.2-0.1,0.4-0.3,0.5v0.2c0.1,0,0.1-0.1,0.2-0.2c0.1-0.1,0.2-0.3,0.3-0.6
					c0.1-0.2,0.1-0.5,0.1-0.9v-0.5h-0.6V34.6z"/>
			</g>
			<path class="st0" d="M99.4,36.5c-0.3-0.2-0.4-0.4-0.5-0.6c-0.1-0.2-0.1-0.4-0.1-0.7s0-0.4,0.1-0.6c0.1-0.3,0.3-0.3,0.4-0.3
				c0.2,0,0.3,0.1,0.4,0.3c0,0.1,0.1,0.2,0.1,0.7v0.4h1v-0.1c0-0.6,0-1.1-0.1-1.4c-0.1-0.2-0.2-0.4-0.5-0.6
				c-0.3-0.2-0.6-0.2-0.9-0.2s-0.6,0.1-0.8,0.2c-0.2,0.1-0.4,0.3-0.5,0.6s-0.2,0.7-0.2,1.3c0,0.4,0,0.8,0.1,1.1s0.2,0.5,0.3,0.6
				c0.1,0.2,0.4,0.4,0.8,0.8c0.4,0.4,0.7,0.6,0.8,0.8c0.1,0.2,0.2,0.5,0.2,1.1c0,0.3,0,0.5-0.1,0.6c-0.1,0.3-0.3,0.3-0.4,0.3
				c-0.2,0-0.3-0.1-0.4-0.3c0-0.1-0.1-0.2-0.1-0.7V39h-1v0.3c0,0.6,0,1.1,0.1,1.4c0.1,0.3,0.2,0.5,0.5,0.7s0.6,0.3,0.9,0.3
				s0.6-0.1,0.9-0.3s0.4-0.4,0.5-0.6c0.1-0.3,0.1-0.7,0.1-1.3c0-0.8-0.1-1.4-0.3-1.7C100.5,37.5,100.1,37,99.4,36.5z"/>
		</g>
		<g>
			<polygon class="st0" points="104.6,41.5 105.7,41.5 105.7,37.9 106.7,37.9 106.7,36.7 105.7,36.7 105.7,34.7 106.8,34.7 
				106.8,33.4 104.6,33.4 			"/>
			<path class="st0" d="M110.5,34c-0.1-0.3-0.3-0.5-0.5-0.6s-0.5-0.2-0.8-0.2s-0.6,0.1-0.8,0.2c-0.2,0.1-0.4,0.3-0.5,0.6
				s-0.2,0.6-0.2,0.9c0,0.3,0,1,0,1.8v1.5c0,0.9,0,1.5,0,1.8s0.1,0.6,0.3,0.9c0.1,0.3,0.3,0.5,0.5,0.6s0.5,0.2,0.8,0.2
				s0.6-0.1,0.8-0.2c0.2-0.1,0.4-0.3,0.5-0.6s0.2-0.6,0.2-0.9c0-0.4,0-1,0-1.8v-1.5c0-0.9,0-1.5,0-1.8
				C110.8,34.6,110.7,34.3,110.5,34z M109.7,39.3c0,0.7,0,0.9-0.1,1c-0.1,0.2-0.2,0.4-0.4,0.4c-0.2,0-0.4-0.1-0.4-0.3
				c0-0.1,0-0.3,0-1v-4c0-0.6,0-0.8,0.1-0.9c0.1-0.2,0.2-0.3,0.4-0.3c0.2,0,0.3,0.1,0.4,0.3c0,0.1,0.1,0.3,0.1,0.8L109.7,39.3
				L109.7,39.3z"/>
			<polygon class="st0" points="113,33.4 111.9,33.4 111.9,41.5 114,41.5 114,40.2 113,40.2 			"/>
			<polygon class="st0" points="118,33.4 117,33.4 116.4,36.6 115.9,36.5 115.9,33.4 114.8,33.4 114.8,41.5 115.9,41.5 115.9,38.1 
				116.4,38 117,41.5 118.1,41.5 117.2,37 			"/>
			<polygon class="st0" points="120,33.4 118.9,33.4 118.9,41.5 121,41.5 121,40.2 120,40.2 			"/>
			<path class="st0" d="M124.6,34c-0.1-0.3-0.3-0.5-0.5-0.6s-0.5-0.2-0.8-0.2s-0.6,0.1-0.8,0.2c-0.2,0.1-0.4,0.3-0.5,0.6
				s-0.2,0.6-0.2,0.9c0,0.3,0,0.9,0,1.8v1.5c0,0.9,0,1.5,0,1.8s0.1,0.6,0.3,0.9c0.1,0.3,0.3,0.5,0.5,0.6s0.5,0.2,0.8,0.2
				s0.6-0.1,0.8-0.2c0.2-0.1,0.4-0.3,0.5-0.6s0.2-0.6,0.2-0.9c0-0.4,0-1,0-1.8v-1.5c0-0.9,0-1.5,0-1.8
				C124.8,34.6,124.7,34.3,124.6,34z M123.7,39.3c0,0.7,0,0.9-0.1,1c-0.1,0.2-0.2,0.4-0.4,0.4s-0.4-0.1-0.4-0.3c0-0.1-0.1-0.3-0.1-1
				v-4c0-0.6,0-0.8,0.1-0.9c0.1-0.2,0.2-0.3,0.4-0.3s0.3,0.1,0.4,0.3c0,0.1,0.1,0.3,0.1,0.8V39.3z"/>
			<path class="st0" d="M128.8,36.8c0.1-0.1,0.2-0.5,0.2-1.2s-0.1-1.2-0.2-1.5c-0.1-0.3-0.3-0.4-0.5-0.5s-0.6-0.1-1.4-0.1H126v8.1
				h1.1v-3.8h0.2c0.3,0,0.5,0.1,0.6,0.3c0,0.1,0.1,0.3,0.1,0.9v2.6h1v-2c0-0.7,0-1.1,0-1.2c0-0.1-0.1-0.3-0.2-0.4
				c-0.1-0.1-0.3-0.2-0.5-0.3v-0.4C128.6,37,128.8,36.9,128.8,36.8z M128,35.8c0,0.5-0.1,0.7-0.2,0.8c-0.1,0.1-0.3,0.2-0.5,0.2h-0.2
				v-2.3h0.2c0.2,0,0.4,0.1,0.5,0.2c0.1,0.1,0.2,0.3,0.2,0.7V35.8z"/>
			<polygon class="st0" points="131.2,37.9 132.2,37.9 132.2,36.7 131.2,36.7 131.2,34.7 132.2,34.7 132.2,33.4 130,33.4 130,41.5 
				132.3,41.5 132.3,40.2 131.2,40.2 			"/>
		</g>
		<path class="st0" d="M138.2,39.8V39l-0.7,0.6l-0.7-1.8l0.1-0.1c0.3-0.4,0.4-0.9,0.4-1.4s-0.1-0.9-0.3-1.2s-0.5-0.4-0.9-0.4
			s-0.8,0.1-1,0.5c-0.3,0.3-0.4,0.8-0.4,1.3c0,0.6,0.2,1.1,0.5,1.5l0.2,0.2l-0.2,0.1c-0.2,0.1-0.4,0.3-0.5,0.6
			c-0.1,0.2-0.2,0.6-0.2,1c0,0.5,0.1,1,0.3,1.4c0.2,0.3,0.5,0.5,0.8,0.5c0.4,0,0.8-0.2,1.2-0.6L137,41l0.2,0.6h0.9l-0.5-1.3
			L138.2,39.8z M135.6,35.6c0.1-0.2,0.2-0.2,0.4-0.2c0.1,0,0.3,0,0.4,0.3c0.1,0.1,0.1,0.3,0.1,0.4c0,0.3-0.1,0.7-0.3,1l-0.2,0.3
			l-0.2-0.3c-0.2-0.3-0.3-0.7-0.3-1C135.5,35.9,135.6,35.7,135.6,35.6z M136.5,40.4c-0.2,0.2-0.4,0.3-0.6,0.3
			c-0.2,0-0.4-0.1-0.5-0.3c-0.1-0.1-0.1-0.3-0.1-0.6s0.1-0.6,0.3-0.9l0.2-0.3l0.7,1.6L136.5,40.4z"/>
		<g>
			<polygon class="st0" points="140.4,41.5 141.5,41.5 141.5,37.9 142.5,37.9 142.5,36.7 141.5,36.7 141.5,34.7 142.6,34.7 
				142.6,33.4 140.4,33.4 			"/>
			<path class="st0" d="M146.3,34c-0.1-0.3-0.3-0.5-0.5-0.6s-0.5-0.2-0.8-0.2s-0.6,0.1-0.8,0.2c-0.2,0.1-0.4,0.3-0.5,0.6
				s-0.2,0.6-0.2,0.9c0,0.4,0,1,0,1.8v1.5c0,0.9,0,1.5,0,1.8s0.1,0.6,0.3,0.9c0.1,0.3,0.3,0.5,0.5,0.6s0.5,0.2,0.8,0.2
				s0.6-0.1,0.8-0.2c0.2-0.1,0.4-0.3,0.5-0.6s0.2-0.6,0.2-0.9c0-0.3,0-0.9,0-1.8v-1.5c0-0.9,0-1.5,0-1.8
				C146.5,34.6,146.4,34.3,146.3,34z M145.5,39.3c0,0.7,0,0.9-0.1,1c-0.1,0.2-0.2,0.4-0.4,0.4s-0.4-0.1-0.4-0.3c0-0.1,0-0.3,0-1v-4
				c0-0.6,0-0.8,0.1-0.9c0.1-0.2,0.3-0.3,0.4-0.3c0.2,0,0.3,0.1,0.4,0.3c0,0.1,0.1,0.3,0.1,0.8v4H145.5z"/>
			<polygon class="st0" points="148.8,33.4 147.6,33.4 147.6,41.5 149.7,41.5 149.7,40.2 148.8,40.2 			"/>
			<polygon class="st0" points="153.8,33.4 152.8,33.4 152.1,36.6 151.7,36.5 151.7,33.4 150.5,33.4 150.5,41.5 151.7,41.5 
				151.7,38.1 152.1,38 152.7,41.5 153.9,41.5 153,37 			"/>
			<path class="st0" d="M157.2,33.6c-0.3-0.2-0.6-0.3-1-0.3s-0.7,0.1-1,0.4c-0.3,0.3-0.4,0.6-0.5,0.9c-0.1,0.4-0.1,0.9-0.1,1.7v2.5
				c0,0.6,0,1,0,1.3s0.1,0.5,0.2,0.8c0.1,0.2,0.3,0.4,0.5,0.6c0.2,0.1,0.4,0.2,0.6,0.2c0.2,0,0.3,0,0.4-0.1c0.1-0.1,0.2-0.3,0.3-0.5
				l0.3-0.6l0.3,1.1h0.6v-4.1h-1.4v0.8h0.3v1.2c0,0.4,0,0.7-0.1,0.9s-0.2,0.4-0.4,0.4s-0.4-0.1-0.4-0.3c0-0.1-0.1-0.4-0.1-0.8v-4.1
				c0-0.6,0-0.8,0.1-0.9c0.1-0.2,0.2-0.3,0.4-0.3s0.4,0.1,0.4,0.4c0,0.1,0.1,0.3,0.1,1v0.6h1.1V36c0-0.7,0-1.2-0.1-1.5
				C157.6,34.1,157.5,33.8,157.2,33.6z"/>
			<path class="st0" d="M159.3,33.4l-0.8,8.1h1.2l0.1-1.5h1l0.1,1.5h1.2l-0.9-8.1H159.3z M159.8,38.9v-0.2c0-0.8,0.1-2,0.3-3.6h0.4
				c0.1,1.4,0.2,2.6,0.2,3.6v0.2H159.8z"/>
			<path class="st0" d="M165.3,37.2h-0.4l-0.2-2.2c-0.1-0.6-0.1-1.1-0.2-1.6h-1.6v8.1h0.9v-5.4h0.4l0.6,5.4h0.6l0.5-5.5h0.4v5.5h0.9
				v-8.1h-1.6L165.3,37.2z"/>
			<polygon class="st0" points="169.4,37.9 170.4,37.9 170.4,36.7 169.4,36.7 169.4,34.7 170.5,34.7 170.5,33.4 168.3,33.4 
				168.3,41.5 170.6,41.5 170.6,40.2 169.4,40.2 			"/>
		</g>
		<g>
			<polygon class="st0" points="178.5,40.2 178.4,40.2 178.4,37.9 178.5,37.9 179.4,37.9 179.4,36.7 178.5,36.7 178.4,36.7 
				178.4,34.7 178.5,34.7 179.5,34.7 179.5,33.4 178.5,33.4 177.3,33.4 177.3,41.5 178.5,41.5 179.6,41.5 179.6,40.2 			"/>
			<g>
				<polygon class="st0" points="174.2,41.5 175.3,41.5 175.3,37.9 176.3,37.9 176.3,36.7 175.3,36.7 175.3,34.7 176.4,34.7 
					176.4,33.4 174.2,33.4 				"/>
				<path class="st0" d="M182,36.5c-0.3-0.2-0.4-0.4-0.5-0.6c-0.1-0.2-0.1-0.4-0.1-0.7s0-0.4,0.1-0.6c0.1-0.2,0.2-0.3,0.4-0.3
					s0.3,0.1,0.4,0.3c0,0.1,0.1,0.2,0.1,0.7v0.4h1v-0.1c0-0.7,0-1.1-0.1-1.4c-0.1-0.2-0.2-0.4-0.5-0.6c-0.3-0.2-0.6-0.2-0.9-0.2
					c-0.3,0-0.6,0.1-0.8,0.2c-0.2,0.1-0.4,0.3-0.5,0.6s-0.2,0.7-0.2,1.3c0,0.4,0,0.8,0.1,1.1s0.2,0.5,0.3,0.6s0.3,0.3,0.8,0.8
					c0.4,0.4,0.7,0.6,0.8,0.8s0.2,0.5,0.2,1.1c0,0.3,0,0.5-0.1,0.6c-0.1,0.3-0.3,0.3-0.4,0.3c-0.2,0-0.3-0.1-0.4-0.3
					c0-0.1-0.1-0.2-0.1-0.7V39h-1v0.3c0,0.6,0,1.1,0.1,1.4c0.1,0.3,0.2,0.5,0.5,0.7s0.6,0.3,0.9,0.3c0.3,0,0.6-0.1,0.9-0.3
					c0.3-0.2,0.4-0.4,0.5-0.6c0.1-0.3,0.1-0.7,0.1-1.3c0-0.8-0.1-1.4-0.3-1.7C183.1,37.5,182.6,37,182,36.5z"/>
				<polygon class="st0" points="184.2,34.7 185.1,34.7 185.1,41.5 186.2,41.5 186.2,34.7 187.2,34.7 187.2,33.4 184.2,33.4 				"/>
				<rect x="188" y="33.4" class="st0" width="1.1" height="8.1"/>
				<path class="st0" d="M192.2,34.8c-0.1,1.3-0.2,2.8-0.3,4.4h-0.4c-0.1-1.6-0.2-3.5-0.4-5.7h-1.2l0.9,8.1h2l0.8-8.1h-1.2
					L192.2,34.8z"/>
				<path class="st0" d="M194.5,33.4l-0.8,8.1h1.2L195,40h1l0.1,1.5h1.2l-0.9-8.1H194.5z M195,38.9v-0.2c0-0.8,0.1-2,0.3-3.6h0.4
					c0.1,1.4,0.2,2.6,0.2,3.6v0.2H195z"/>
				<polygon class="st0" points="199.1,33.4 198,33.4 198,41.5 200.1,41.5 200.1,40.2 199.1,40.2 				"/>
			</g>
		</g>
	</g>
</g>
</svg>
