<?xml version="1.0" encoding="utf-8"?>
<!-- Generator: Adobe Illustrator 24.0.1, SVG Export Plug-In . SVG Version: 6.00 Build 0)  -->
<svg version="1.1" xmlns="http://www.w3.org/2000/svg" xmlns:xlink="http://www.w3.org/1999/xlink" x="0px" y="0px"
	 viewBox="0 0 400.5 382.8" style="enable-background:new 0 0 400.5 382.8;" xml:space="preserve">
<style type="text/css">
	.st0{fill:url(#SVGID_1_);}
	.st1{fill:#FFFFFF;}
	.st2{clip-path:url(#SVGID_3_);}
	.st3{fill:url(#SVGID_4_);}
	.st4{fill:url(#SVGID_5_);}
	.st5{fill:url(#SVGID_6_);}
	.st6{fill:url(#SVGID_7_);}
	.st7{fill:url(#SVGID_8_);}
	.st8{fill:url(#SVGID_9_);}
	.st9{fill:url(#SVGID_10_);}
	.st10{fill:url(#SVGID_11_);}
	.st11{fill:url(#SVGID_12_);}
	.st12{fill:url(#SVGID_13_);}
	.st13{fill:url(#SVGID_14_);}
	.st14{fill:url(#SVGID_15_);}
	.st15{fill:url(#SVGID_16_);}
	.st16{fill:url(#SVGID_17_);}
	.st17{fill:url(#SVGID_18_);}
	.st18{fill:url(#SVGID_19_);}
	.st19{fill:url(#SVGID_20_);}
	.st20{fill:#FEFEFE;}
	.st21{fill:#766CE7;}
	.st22{fill:none;stroke:#FFFFFF;stroke-width:0.8268;stroke-linecap:round;stroke-linejoin:round;stroke-miterlimit:10;}
	.st23{fill:#E8E6FF;}
	.st24{fill:url(#SVGID_21_);}
	.st25{fill:#766CE7;stroke:#766CE7;stroke-width:0.3307;stroke-miterlimit:10;}
	.st26{fill:url(#SVGID_22_);}
	.st27{fill:url(#SVGID_23_);}
	.st28{fill:url(#SVGID_24_);}
	.st29{fill:url(#SVGID_25_);}
	.st30{fill:url(#SVGID_26_);}
	.st31{fill:url(#SVGID_27_);}
	.st32{fill:url(#SVGID_28_);}
	.st33{fill:url(#SVGID_29_);}
	.st34{fill:url(#SVGID_30_);}
	.st35{fill:url(#SVGID_31_);}
	.st36{fill:url(#SVGID_32_);}
	.st37{fill:url(#SVGID_33_);}
	.st38{fill:url(#SVGID_34_);}
	.st39{fill:url(#SVGID_35_);}
	.st40{fill:url(#SVGID_36_);}
	.st41{fill:url(#SVGID_37_);}
	.st42{fill:#DE7BBB;}
	.st43{fill:#8BB8E8;}
	.st44{fill:#D25D95;}
</style>
<g id="BACKGROUND">
</g>
<g id="OBJECTS">
	<g>
		<linearGradient id="SVGID_1_" gradientUnits="userSpaceOnUse" x1="306.6146" y1="-64.7154" x2="367.7184" y2="207.6336">
			<stop  offset="0" style="stop-color:#D25D95"/>
			<stop  offset="0.3754" style="stop-color:#9D81DE"/>
			<stop  offset="0.7233" style="stop-color:#8BB8E8"/>
		</linearGradient>
		<circle class="st0" cx="332.1" cy="48.9" r="48.9"/>
		<g>
			
				<linearGradient id="SVGID_3_" gradientUnits="userSpaceOnUse" x1="581.7485" y1="-1075.1621" x2="398.6575" y2="-840.4619" gradientTransform="matrix(0.7071 0.7071 -0.7071 0.7071 -981.0741 618.0305)">
				<stop  offset="0" style="stop-color:#D25D95"/>
				<stop  offset="0.3754" style="stop-color:#9D81DE"/>
				<stop  offset="0.7233" style="stop-color:#8BB8E8"/>
			</linearGradient>
			<path style="fill:url(#SVGID_3_);" d="M29.2,330.4L29.2,330.4c-6.8-6.8-6.8-17.9,0-24.8l69.5-69.5c6.8-6.8,17.9-6.8,24.8,0h0
				c6.8,6.8,6.8,17.9,0,24.8L54,330.4C47.2,337.2,36.1,337.2,29.2,330.4z"/>
			
				<linearGradient id="SVGID_4_" gradientUnits="userSpaceOnUse" x1="-1628.5951" y1="-849.0266" x2="-1811.686" y2="-614.3264" gradientTransform="matrix(-0.7071 -0.7071 0.7071 -0.7071 -349.9011 -1496.588)">
				<stop  offset="0" style="stop-color:#D25D95"/>
				<stop  offset="0.3754" style="stop-color:#9D81DE"/>
				<stop  offset="0.7233" style="stop-color:#8BB8E8"/>
			</linearGradient>
			<path class="st3" d="M362.6,194.1L362.6,194.1c6.8,6.8,6.8,17.9,0,24.8l-69.5,69.5c-6.8,6.8-17.9,6.8-24.8,0l0,0
				c-6.8-6.8-6.8-17.9,0-24.8l69.5-69.5C344.7,187.3,355.8,187.3,362.6,194.1z"/>
			
				<linearGradient id="SVGID_5_" gradientUnits="userSpaceOnUse" x1="652.6091" y1="-1197.0049" x2="469.518" y2="-962.3044" gradientTransform="matrix(0.7071 0.7071 -0.7071 0.7071 -981.0741 618.0305)">
				<stop  offset="0" style="stop-color:#D25D95"/>
				<stop  offset="0.3754" style="stop-color:#9D81DE"/>
				<stop  offset="0.7233" style="stop-color:#8BB8E8"/>
			</linearGradient>
			<path class="st4" d="M165.5,294.3L165.5,294.3c-6.8-6.8-6.8-17.9,0-24.8l69.5-69.5c6.8-6.8,17.9-6.8,24.8,0h0
				c6.8,6.8,6.8,17.9,0,24.8l-69.5,69.5C183.4,301.2,172.3,301.2,165.5,294.3z"/>
			
				<linearGradient id="SVGID_6_" gradientUnits="userSpaceOnUse" x1="688.1562" y1="-1114.6849" x2="505.0652" y2="-879.9847" gradientTransform="matrix(0.7071 0.7071 -0.7071 0.7071 -981.0741 618.0305)">
				<stop  offset="0" style="stop-color:#D25D95"/>
				<stop  offset="0.3754" style="stop-color:#9D81DE"/>
				<stop  offset="0.7233" style="stop-color:#8BB8E8"/>
			</linearGradient>
			<path class="st5" d="M132.4,377.7L132.4,377.7c-6.8-6.8-6.8-17.9,0-24.8l69.5-69.5c6.8-6.8,17.9-6.8,24.8,0h0
				c6.8,6.8,6.8,17.9,0,24.8l-69.5,69.5C150.3,384.5,139.3,384.5,132.4,377.7z"/>
			<g>
				
					<linearGradient id="SVGID_7_" gradientUnits="userSpaceOnUse" x1="567.6062" y1="-1121.0568" x2="332.6442" y2="-819.8644" gradientTransform="matrix(0.7071 0.7071 -0.7071 0.7071 -981.0741 618.0305)">
					<stop  offset="0" style="stop-color:#D25D95"/>
					<stop  offset="0.3754" style="stop-color:#9D81DE"/>
					<stop  offset="0.7233" style="stop-color:#8BB8E8"/>
				</linearGradient>
				<path class="st6" d="M5.1,306.8L5.1,306.8c-6.8-6.8-6.8-17.9,0-24.8l97.9-99.3c6.8-6.8,17.9-6.8,24.8,0l0,0
					c6.8,6.8,6.8,17.9,0,24.8l-97.9,99.3C23.1,313.6,12,313.6,5.1,306.8z"/>
			</g>
		</g>
		<g>
			
				<linearGradient id="SVGID_8_" gradientUnits="userSpaceOnUse" x1="-162.9408" y1="-1017.4022" x2="-277.1765" y2="-870.9659" gradientTransform="matrix(0.7071 0.7071 -0.7071 0.7071 -403.916 1059.6476)">
				<stop  offset="0" style="stop-color:#D25D95"/>
				<stop  offset="0.3754" style="stop-color:#9D81DE"/>
				<stop  offset="0.7233" style="stop-color:#8BB8E8"/>
			</linearGradient>
			<path class="st7" d="M97.9,264.9L97.9,264.9c-0.8-0.8-0.8-2,0-2.8l59.4-59.4c0.8-0.8,2-0.8,2.8,0l0,0c0.8,0.8,0.8,2,0,2.8
				l-59.4,59.4C100,265.7,98.7,265.7,97.9,264.9z"/>
			
				<linearGradient id="SVGID_9_" gradientUnits="userSpaceOnUse" x1="-3254.4185" y1="130.8351" x2="-3368.6541" y2="277.2714" gradientTransform="matrix(-0.7071 -0.7071 0.7071 -0.7071 -2384.5073 -1971.0228)">
				<stop  offset="0" style="stop-color:#D25D95"/>
				<stop  offset="0.3754" style="stop-color:#9D81DE"/>
				<stop  offset="0.7233" style="stop-color:#8BB8E8"/>
			</linearGradient>
			<path class="st8" d="M111.5,197.8L111.5,197.8c0.8,0.8,0.8,2,0,2.8L52.1,260c-0.8,0.8-2,0.8-2.8,0l0,0c-0.8-0.8-0.8-2,0-2.8
				l59.4-59.4C109.5,197,110.8,197,111.5,197.8z"/>
			
				<linearGradient id="SVGID_10_" gradientUnits="userSpaceOnUse" x1="-127.3936" y1="-1069.7875" x2="-241.6293" y2="-923.3513" gradientTransform="matrix(0.7071 0.7071 -0.7071 0.7071 -403.916 1059.6476)">
				<stop  offset="0" style="stop-color:#D25D95"/>
				<stop  offset="0.3754" style="stop-color:#9D81DE"/>
				<stop  offset="0.7233" style="stop-color:#8BB8E8"/>
			</linearGradient>
			<path class="st9" d="M160.1,253L160.1,253c-0.8-0.8-0.8-2,0-2.8l59.4-59.4c0.8-0.8,2-0.8,2.8,0l0,0c0.8,0.8,0.8,2,0,2.8
				L162.9,253C162.2,253.8,160.9,253.8,160.1,253z"/>
			
				<linearGradient id="SVGID_11_" gradientUnits="userSpaceOnUse" x1="-126.692" y1="-964.3152" x2="-240.9277" y2="-817.8791" gradientTransform="matrix(0.7071 0.7071 -0.7071 0.7071 -403.916 1059.6476)">
				<stop  offset="0" style="stop-color:#D25D95"/>
				<stop  offset="0.3754" style="stop-color:#9D81DE"/>
				<stop  offset="0.7233" style="stop-color:#8BB8E8"/>
			</linearGradient>
			<path class="st10" d="M86,328.1L86,328.1c-0.8-0.8-0.8-2,0-2.8l59.4-59.4c0.8-0.8,2-0.8,2.8,0l0,0c0.8,0.8,0.8,2,0,2.8
				l-59.4,59.4C88.1,328.9,86.8,328.9,86,328.1z"/>
			
				<linearGradient id="SVGID_12_" gradientUnits="userSpaceOnUse" x1="-2361.8403" y1="-463.0205" x2="-2476.0762" y2="-316.5843" gradientTransform="matrix(-0.7071 -0.7071 0.7071 -0.7071 -1114.5073 -1731.0228)">
				<stop  offset="0" style="stop-color:#D25D95"/>
				<stop  offset="0.3754" style="stop-color:#9D81DE"/>
				<stop  offset="0.7233" style="stop-color:#8BB8E8"/>
			</linearGradient>
			<path class="st11" d="M330.5,226.5L330.5,226.5c0.8,0.8,0.8,2,0,2.8l-59.4,59.4c-0.8,0.8-2,0.8-2.8,0l0,0c-0.8-0.8-0.8-2,0-2.8
				l59.4-59.4C328.4,225.8,329.7,225.8,330.5,226.5z"/>
			
				<linearGradient id="SVGID_13_" gradientUnits="userSpaceOnUse" x1="-2404.6372" y1="-490.3825" x2="-2518.873" y2="-343.9463" gradientTransform="matrix(-0.7071 -0.7071 0.7071 -0.7071 -1114.5073 -1731.0228)">
				<stop  offset="0" style="stop-color:#D25D95"/>
				<stop  offset="0.3754" style="stop-color:#9D81DE"/>
				<stop  offset="0.7233" style="stop-color:#8BB8E8"/>
			</linearGradient>
			<path class="st12" d="M341.4,276.1L341.4,276.1c0.8,0.8,0.8,2,0,2.8L282,338.4c-0.8,0.8-2,0.8-2.8,0h0c-0.8-0.8-0.8-2,0-2.8
				l59.4-59.4C339.4,275.4,340.6,275.4,341.4,276.1z"/>
			
				<linearGradient id="SVGID_14_" gradientUnits="userSpaceOnUse" x1="-2330.9705" y1="-527.5667" x2="-2445.2063" y2="-381.1305" gradientTransform="matrix(-0.7071 -0.7071 0.7071 -0.7071 -1114.5073 -1731.0228)">
				<stop  offset="0" style="stop-color:#D25D95"/>
				<stop  offset="0.3754" style="stop-color:#9D81DE"/>
				<stop  offset="0.7233" style="stop-color:#8BB8E8"/>
			</linearGradient>
			<path class="st13" d="M263,250.3L263,250.3c0.8,0.8,0.8,2,0,2.8l-59.4,59.4c-0.8,0.8-2,0.8-2.8,0l0,0c-0.8-0.8-0.8-2,0-2.8
				l59.4-59.4C261,249.6,262.2,249.6,263,250.3z"/>
			
				<linearGradient id="SVGID_15_" gradientUnits="userSpaceOnUse" x1="-162.9408" y1="-1116.5601" x2="-277.1765" y2="-970.1238" gradientTransform="matrix(0.7071 0.7071 -0.7071 0.7071 -403.916 1059.6476)">
				<stop  offset="0" style="stop-color:#D25D95"/>
				<stop  offset="0.3754" style="stop-color:#9D81DE"/>
				<stop  offset="0.7233" style="stop-color:#8BB8E8"/>
			</linearGradient>
			<path class="st14" d="M168.1,194.8L168.1,194.8c-0.8-0.8-0.8-2,0-2.8l59.4-59.4c0.8-0.8,2-0.8,2.8,0l0,0c0.8,0.8,0.8,2,0,2.8
				l-59.4,59.4C170.1,195.6,168.8,195.6,168.1,194.8z"/>
			
				<linearGradient id="SVGID_16_" gradientUnits="userSpaceOnUse" x1="-2029.9021" y1="-754.1155" x2="-2144.1377" y2="-607.6794" gradientTransform="matrix(-0.7071 -0.7071 0.7071 -0.7071 -604.5073 -1675.0228)">
				<stop  offset="0" style="stop-color:#D25D95"/>
				<stop  offset="0.3754" style="stop-color:#9D81DE"/>
				<stop  offset="0.7233" style="stop-color:#8BB8E8"/>
			</linearGradient>
			<path class="st15" d="M399.9,253.7L399.9,253.7c0.8,0.8,0.8,2,0,2.8l-59.4,59.4c-0.8,0.8-2,0.8-2.8,0l0,0c-0.8-0.8-0.8-2,0-2.8
				l59.4-59.4C397.9,252.9,399.2,252.9,399.9,253.7z"/>
			
				<linearGradient id="SVGID_17_" gradientUnits="userSpaceOnUse" x1="-3157.1499" y1="238.5706" x2="-3271.3855" y2="385.0067" gradientTransform="matrix(-0.7071 -0.7071 0.7071 -0.7071 -2400.5073 -1789.0228)">
				<stop  offset="0" style="stop-color:#D25D95"/>
				<stop  offset="0.3754" style="stop-color:#9D81DE"/>
				<stop  offset="0.7233" style="stop-color:#8BB8E8"/>
			</linearGradient>
			<path class="st16" d="M102.9,234.8L102.9,234.8c0.8,0.8,0.8,2,0,2.8L43.5,297c-0.8,0.8-2,0.8-2.8,0l0,0c-0.8-0.8-0.8-2,0-2.8
				l59.4-59.4C100.9,234,102.2,234,102.9,234.8z"/>
		</g>
	</g>
</g>
<g id="DESIGNED_BY_FREEPIK">
</g>
</svg>
