<svg xmlns="http://www.w3.org/2000/svg" viewBox="0 0 1200 1200"><defs><style>.cls-1{fill:#aba4a6;}</style></defs><title>tile</title><g id="圖層_2" data-name="圖層 2"><g id="栝鍣_6" data-name="栝鍣 6"><rect class="cls-1" y="601" width="1" height="38"/><rect class="cls-1" y="641" width="1" height="38"/><rect class="cls-1" y="761" width="1" height="38"/><rect class="cls-1" y="961" width="1" height="38"/><rect class="cls-1" y="721" width="1" height="38"/><rect class="cls-1" y="801" width="1" height="38"/><rect class="cls-1" y="841" width="1" height="38"/><rect class="cls-1" y="1161" width="1" height="38"/><rect class="cls-1" y="161" width="1" height="38"/><rect class="cls-1" y="521" width="1" height="38"/><rect class="cls-1" y="121" width="1" height="38"/><rect class="cls-1" y="681" width="1" height="38"/><rect class="cls-1" y="1081" width="1" height="38"/><rect class="cls-1" y="81" width="1" height="38"/><rect class="cls-1" y="481" width="1" height="38"/><rect class="cls-1" y="241" width="1" height="38"/><rect class="cls-1" y="281" width="1" height="38"/><rect class="cls-1" y="881" width="1" height="38"/><rect class="cls-1" y="1041" width="1" height="38"/><rect class="cls-1" y="201" width="1" height="38"/><rect class="cls-1" y="41" width="1" height="38"/><rect class="cls-1" y="441" width="1" height="38"/><rect class="cls-1" y="321" width="1" height="38"/><rect class="cls-1" y="1" width="1" height="38"/><rect class="cls-1" y="361" width="1" height="38"/><rect class="cls-1" y="401" width="1" height="38"/><rect class="cls-1" y="561" width="1" height="38"/><rect class="cls-1" y="1001" width="1" height="38"/><rect class="cls-1" y="1121" width="1" height="38"/><rect class="cls-1" y="921" width="1" height="38"/><rect class="cls-1" x="39" y="1161" width="2" height="38"/><rect class="cls-1" x="39" y="161" width="2" height="38"/><rect class="cls-1" x="39" y="201" width="2" height="38"/><rect class="cls-1" x="39" y="561" width="2" height="38"/><rect class="cls-1" x="39" y="481" width="2" height="38"/><rect class="cls-1" x="39" y="321" width="2" height="38"/><rect class="cls-1" x="39" y="961" width="2" height="38"/><rect class="cls-1" x="39" y="521" width="2" height="38"/><rect class="cls-1" x="39" y="81" width="2" height="38"/><rect class="cls-1" x="39" y="721" width="2" height="38"/><rect class="cls-1" x="39" y="441" width="2" height="38"/><rect class="cls-1" x="39" y="881" width="2" height="38"/><rect class="cls-1" x="39" y="1" width="2" height="38"/><rect class="cls-1" x="39" y="641" width="2" height="38"/><rect class="cls-1" x="39" y="761" width="2" height="38"/><rect class="cls-1" x="39" y="801" width="2" height="38"/><rect class="cls-1" x="39" y="281" width="2" height="38"/><rect class="cls-1" x="39" y="41" width="2" height="38"/><rect class="cls-1" x="39" y="921" width="2" height="38"/><rect class="cls-1" x="39" y="601" width="2" height="38"/><rect class="cls-1" x="39" y="841" width="2" height="38"/><rect class="cls-1" x="39" y="681" width="2" height="38"/><rect class="cls-1" x="39" y="401" width="2" height="38"/><rect class="cls-1" x="39" y="241" width="2" height="38"/><rect class="cls-1" x="39" y="1001" width="2" height="38"/><rect class="cls-1" x="39" y="1041" width="2" height="38"/><rect class="cls-1" x="39" y="121" width="2" height="38"/><rect class="cls-1" x="39" y="1121" width="2" height="38"/><rect class="cls-1" x="39" y="361" width="2" height="38"/><rect class="cls-1" x="39" y="1081" width="2" height="38"/><rect class="cls-1" x="79" y="761" width="2" height="38"/><rect class="cls-1" x="79" y="1121" width="2" height="38"/><rect class="cls-1" x="79" y="441" width="2" height="38"/><rect class="cls-1" x="79" y="201" width="2" height="38"/><rect class="cls-1" x="79" y="961" width="2" height="38"/><rect class="cls-1" x="79" y="161" width="2" height="38"/><rect class="cls-1" x="79" y="521" width="2" height="38"/><rect class="cls-1" x="79" y="1041" width="2" height="38"/><rect class="cls-1" x="79" y="881" width="2" height="38"/><rect class="cls-1" x="79" y="241" width="2" height="38"/><rect class="cls-1" x="79" y="1001" width="2" height="38"/><rect class="cls-1" x="79" y="321" width="2" height="38"/><rect class="cls-1" x="79" y="1161" width="2" height="38"/><rect class="cls-1" x="79" y="41" width="2" height="38"/><rect class="cls-1" x="79" y="681" width="2" height="38"/><rect class="cls-1" x="79" y="281" width="2" height="38"/><rect class="cls-1" x="79" y="401" width="2" height="38"/><rect class="cls-1" x="79" y="361" width="2" height="38"/><rect class="cls-1" x="79" y="641" width="2" height="38"/><rect class="cls-1" x="79" y="481" width="2" height="38"/><rect class="cls-1" x="79" y="801" width="2" height="38"/><rect class="cls-1" x="79" y="1081" width="2" height="38"/><rect class="cls-1" x="79" y="921" width="2" height="38"/><rect class="cls-1" x="79" y="561" width="2" height="38"/><rect class="cls-1" x="79" y="721" width="2" height="38"/><rect class="cls-1" x="79" y="121" width="2" height="38"/><rect class="cls-1" x="79" y="841" width="2" height="38"/><rect class="cls-1" x="79" y="601" width="2" height="38"/><rect class="cls-1" x="79" y="81" width="2" height="38"/><rect class="cls-1" x="79" y="1" width="2" height="38"/><rect class="cls-1" x="119" y="121" width="2" height="38"/><rect class="cls-1" x="119" y="921" width="2" height="38"/><rect class="cls-1" x="119" y="161" width="2" height="38"/><rect class="cls-1" x="119" y="961" width="2" height="38"/><rect class="cls-1" x="119" y="841" width="2" height="38"/><rect class="cls-1" x="119" y="881" width="2" height="38"/><rect class="cls-1" x="119" y="241" width="2" height="38"/><rect class="cls-1" x="119" y="41" width="2" height="38"/><rect class="cls-1" x="119" y="681" width="2" height="38"/><rect class="cls-1" x="119" y="1081" width="2" height="38"/><rect class="cls-1" x="119" y="1041" width="2" height="38"/><rect class="cls-1" x="119" y="481" width="2" height="38"/><rect class="cls-1" x="119" y="81" width="2" height="38"/><rect class="cls-1" x="119" y="361" width="2" height="38"/><rect class="cls-1" x="119" y="1" width="2" height="38"/><rect class="cls-1" x="119" y="281" width="2" height="38"/><rect class="cls-1" x="119" y="521" width="2" height="38"/><rect class="cls-1" x="119" y="1161" width="2" height="38"/><rect class="cls-1" x="119" y="561" width="2" height="38"/><rect class="cls-1" x="119" y="321" width="2" height="38"/><rect class="cls-1" x="119" y="1121" width="2" height="38"/><rect class="cls-1" x="119" y="641" width="2" height="38"/><rect class="cls-1" x="119" y="601" width="2" height="38"/><rect class="cls-1" x="119" y="441" width="2" height="38"/><rect class="cls-1" x="119" y="721" width="2" height="38"/><rect class="cls-1" x="119" y="1001" width="2" height="38"/><rect class="cls-1" x="119" y="401" width="2" height="38"/><rect class="cls-1" x="119" y="761" width="2" height="38"/><rect class="cls-1" x="119" y="801" width="2" height="38"/><rect class="cls-1" x="119" y="201" width="2" height="38"/><rect class="cls-1" x="159" y="801" width="2" height="38"/><rect class="cls-1" x="159" y="401" width="2" height="38"/><rect class="cls-1" x="159" y="761" width="2" height="38"/><rect class="cls-1" x="159" y="1001" width="2" height="38"/><rect class="cls-1" x="159" y="441" width="2" height="38"/><rect class="cls-1" x="159" y="881" width="2" height="38"/><rect class="cls-1" x="159" y="201" width="2" height="38"/><rect class="cls-1" x="159" y="361" width="2" height="38"/><rect class="cls-1" x="159" y="481" width="2" height="38"/><rect class="cls-1" x="159" y="601" width="2" height="38"/><rect class="cls-1" x="159" y="41" width="2" height="38"/><rect class="cls-1" x="159" y="521" width="2" height="38"/><rect class="cls-1" x="159" y="641" width="2" height="38"/><rect class="cls-1" x="159" y="1121" width="2" height="38"/><rect class="cls-1" x="159" y="721" width="2" height="38"/><rect class="cls-1" x="159" y="1" width="2" height="38"/><rect class="cls-1" x="159" y="1161" width="2" height="38"/><rect class="cls-1" x="159" y="321" width="2" height="38"/><rect class="cls-1" x="159" y="561" width="2" height="38"/><rect class="cls-1" x="159" y="121" width="2" height="38"/><rect class="cls-1" x="159" y="281" width="2" height="38"/><rect class="cls-1" x="159" y="241" width="2" height="38"/><rect class="cls-1" x="159" y="1041" width="2" height="38"/><rect class="cls-1" x="159" y="161" width="2" height="38"/><rect class="cls-1" x="159" y="81" width="2" height="38"/><rect class="cls-1" x="159" y="921" width="2" height="38"/><rect class="cls-1" x="159" y="681" width="2" height="38"/><rect class="cls-1" x="159" y="1081" width="2" height="38"/><rect class="cls-1" x="159" y="961" width="2" height="38"/><rect class="cls-1" x="159" y="841" width="2" height="38"/><rect class="cls-1" x="199" y="1001" width="2" height="38"/><rect class="cls-1" x="199" y="201" width="2" height="38"/><rect class="cls-1" x="199" y="801" width="2" height="38"/><rect class="cls-1" x="199" y="761" width="2" height="38"/><rect class="cls-1" x="199" y="481" width="2" height="38"/><rect class="cls-1" x="199" y="681" width="2" height="38"/><rect class="cls-1" x="199" y="881" width="2" height="38"/><rect class="cls-1" x="199" y="841" width="2" height="38"/><rect class="cls-1" x="199" y="361" width="2" height="38"/><rect class="cls-1" x="199" y="81" width="2" height="38"/><rect class="cls-1" x="199" y="601" width="2" height="38"/><rect class="cls-1" x="199" y="1" width="2" height="38"/><rect class="cls-1" x="199" y="721" width="2" height="38"/><rect class="cls-1" x="199" y="1041" width="2" height="38"/><rect class="cls-1" x="199" y="241" width="2" height="38"/><rect class="cls-1" x="199" y="521" width="2" height="38"/><rect class="cls-1" x="199" y="281" width="2" height="38"/><rect class="cls-1" x="199" y="641" width="2" height="38"/><rect class="cls-1" x="199" y="161" width="2" height="38"/><rect class="cls-1" x="199" y="121" width="2" height="38"/><rect class="cls-1" x="199" y="401" width="2" height="38"/><rect class="cls-1" x="199" y="561" width="2" height="38"/><rect class="cls-1" x="199" y="441" width="2" height="38"/><rect class="cls-1" x="199" y="41" width="2" height="38"/><rect class="cls-1" x="199" y="1121" width="2" height="38"/><rect class="cls-1" x="199" y="921" width="2" height="38"/><rect class="cls-1" x="199" y="1161" width="2" height="38"/><rect class="cls-1" x="199" y="321" width="2" height="38"/><rect class="cls-1" x="199" y="1081" width="2" height="38"/><rect class="cls-1" x="199" y="961" width="2" height="38"/><rect class="cls-1" x="239" y="41" width="2" height="38"/><rect class="cls-1" x="239" y="161" width="2" height="38"/><rect class="cls-1" x="239" y="841" width="2" height="38"/><rect class="cls-1" x="239" y="81" width="2" height="38"/><rect class="cls-1" x="239" y="721" width="2" height="38"/><rect class="cls-1" x="239" y="121" width="2" height="38"/><rect class="cls-1" x="239" y="961" width="2" height="38"/><rect class="cls-1" x="239" y="1081" width="2" height="38"/><rect class="cls-1" x="239" y="241" width="2" height="38"/><rect class="cls-1" x="239" y="681" width="2" height="38"/><rect class="cls-1" x="239" y="881" width="2" height="38"/><rect class="cls-1" x="239" y="361" width="2" height="38"/><rect class="cls-1" x="239" y="1121" width="2" height="38"/><rect class="cls-1" x="239" y="521" width="2" height="38"/><rect class="cls-1" x="239" y="641" width="2" height="38"/><rect class="cls-1" x="239" y="761" width="2" height="38"/><rect class="cls-1" x="239" y="1041" width="2" height="38"/><rect class="cls-1" x="239" y="481" width="2" height="38"/><rect class="cls-1" x="239" y="281" width="2" height="38"/><rect class="cls-1" x="239" y="441" width="2" height="38"/><rect class="cls-1" x="239" y="1161" width="2" height="38"/><rect class="cls-1" x="239" y="201" width="2" height="38"/><rect class="cls-1" x="239" y="321" width="2" height="38"/><rect class="cls-1" x="239" y="1" width="2" height="38"/><rect class="cls-1" x="239" y="401" width="2" height="38"/><rect class="cls-1" x="239" y="801" width="2" height="38"/><rect class="cls-1" x="239" y="921" width="2" height="38"/><rect class="cls-1" x="239" y="601" width="2" height="38"/><rect class="cls-1" x="239" y="561" width="2" height="38"/><rect class="cls-1" x="239" y="1001" width="2" height="38"/><rect class="cls-1" x="279" y="961" width="2" height="38"/><rect class="cls-1" x="279" y="41" width="2" height="38"/><rect class="cls-1" x="279" y="1081" width="2" height="38"/><rect class="cls-1" x="279" y="121" width="2" height="38"/><rect class="cls-1" x="279" y="761" width="2" height="38"/><rect class="cls-1" x="279" y="561" width="2" height="38"/><rect class="cls-1" x="279" y="841" width="2" height="38"/><rect class="cls-1" x="279" y="641" width="2" height="38"/><rect class="cls-1" x="279" y="1" width="2" height="38"/><rect class="cls-1" x="279" y="601" width="2" height="38"/><rect class="cls-1" x="279" y="521" width="2" height="38"/><rect class="cls-1" x="279" y="721" width="2" height="38"/><rect class="cls-1" x="279" y="1001" width="2" height="38"/><rect class="cls-1" x="279" y="1121" width="2" height="38"/><rect class="cls-1" x="279" y="361" width="2" height="38"/><rect class="cls-1" x="279" y="201" width="2" height="38"/><rect class="cls-1" x="279" y="801" width="2" height="38"/><rect class="cls-1" x="279" y="881" width="2" height="38"/><rect class="cls-1" x="279" y="281" width="2" height="38"/><rect class="cls-1" x="279" y="1041" width="2" height="38"/><rect class="cls-1" x="279" y="241" width="2" height="38"/><rect class="cls-1" x="279" y="441" width="2" height="38"/><rect class="cls-1" x="279" y="401" width="2" height="38"/><rect class="cls-1" x="279" y="921" width="2" height="38"/><rect class="cls-1" x="279" y="1161" width="2" height="38"/><rect class="cls-1" x="279" y="681" width="2" height="38"/><rect class="cls-1" x="279" y="321" width="2" height="38"/><rect class="cls-1" x="279" y="81" width="2" height="38"/><rect class="cls-1" x="279" y="161" width="2" height="38"/><rect class="cls-1" x="279" y="481" width="2" height="38"/><rect class="cls-1" x="319" y="761" width="2" height="38"/><rect class="cls-1" x="319" y="921" width="2" height="38"/><rect class="cls-1" x="319" y="41" width="2" height="38"/><rect class="cls-1" x="319" y="601" width="2" height="38"/><rect class="cls-1" x="319" y="681" width="2" height="38"/><rect class="cls-1" x="319" y="521" width="2" height="38"/><rect class="cls-1" x="319" y="721" width="2" height="38"/><rect class="cls-1" x="319" y="321" width="2" height="38"/><rect class="cls-1" x="319" y="641" width="2" height="38"/><rect class="cls-1" x="319" y="841" width="2" height="38"/><rect class="cls-1" x="319" y="281" width="2" height="38"/><rect class="cls-1" x="319" y="1081" width="2" height="38"/><rect class="cls-1" x="319" y="121" width="2" height="38"/><rect class="cls-1" x="319" y="481" width="2" height="38"/><rect class="cls-1" x="319" y="801" width="2" height="38"/><rect class="cls-1" x="319" y="201" width="2" height="38"/><rect class="cls-1" x="319" y="161" width="2" height="38"/><rect class="cls-1" x="319" y="401" width="2" height="38"/><rect class="cls-1" x="319" y="1121" width="2" height="38"/><rect class="cls-1" x="319" y="961" width="2" height="38"/><rect class="cls-1" x="319" y="81" width="2" height="38"/><rect class="cls-1" x="319" y="881" width="2" height="38"/><rect class="cls-1" x="319" y="1161" width="2" height="38"/><rect class="cls-1" x="319" y="561" width="2" height="38"/><rect class="cls-1" x="319" y="1041" width="2" height="38"/><rect class="cls-1" x="319" y="441" width="2" height="38"/><rect class="cls-1" x="319" y="1001" width="2" height="38"/><rect class="cls-1" x="319" y="361" width="2" height="38"/><rect class="cls-1" x="319" y="241" width="2" height="38"/><rect class="cls-1" x="319" y="1" width="2" height="38"/><rect class="cls-1" x="359" y="961" width="2" height="38"/><rect class="cls-1" x="359" y="1081" width="2" height="38"/><rect class="cls-1" x="359" y="321" width="2" height="38"/><rect class="cls-1" x="359" y="921" width="2" height="38"/><rect class="cls-1" x="359" y="121" width="2" height="38"/><rect class="cls-1" x="359" y="481" width="2" height="38"/><rect class="cls-1" x="359" y="1041" width="2" height="38"/><rect class="cls-1" x="359" y="681" width="2" height="38"/><rect class="cls-1" x="359" y="361" width="2" height="38"/><rect class="cls-1" x="359" y="761" width="2" height="38"/><rect class="cls-1" x="359" y="201" width="2" height="38"/><rect class="cls-1" x="359" y="801" width="2" height="38"/><rect class="cls-1" x="359" y="841" width="2" height="38"/><rect class="cls-1" x="359" y="401" width="2" height="38"/><rect class="cls-1" x="359" y="521" width="2" height="38"/><rect class="cls-1" x="359" y="81" width="2" height="38"/><rect class="cls-1" x="359" y="1161" width="2" height="38"/><rect class="cls-1" x="359" y="561" width="2" height="38"/><rect class="cls-1" x="359" y="441" width="2" height="38"/><rect class="cls-1" x="359" y="721" width="2" height="38"/><rect class="cls-1" x="359" y="241" width="2" height="38"/><rect class="cls-1" x="359" y="1001" width="2" height="38"/><rect class="cls-1" x="359" y="641" width="2" height="38"/><rect class="cls-1" x="359" y="161" width="2" height="38"/><rect class="cls-1" x="359" y="1" width="2" height="38"/><rect class="cls-1" x="359" y="881" width="2" height="38"/><rect class="cls-1" x="359" y="601" width="2" height="38"/><rect class="cls-1" x="359" y="41" width="2" height="38"/><rect class="cls-1" x="359" y="1121" width="2" height="38"/><rect class="cls-1" x="359" y="281" width="2" height="38"/><rect class="cls-1" x="399" y="161" width="2" height="38"/><rect class="cls-1" x="399" y="881" width="2" height="38"/><rect class="cls-1" x="399" y="401" width="2" height="38"/><rect class="cls-1" x="399" y="601" width="2" height="38"/><rect class="cls-1" x="399" y="1001" width="2" height="38"/><rect class="cls-1" x="399" y="921" width="2" height="38"/><rect class="cls-1" x="399" y="761" width="2" height="38"/><rect class="cls-1" x="399" y="841" width="2" height="38"/><rect class="cls-1" x="399" y="201" width="2" height="38"/><rect class="cls-1" x="399" y="801" width="2" height="38"/><rect class="cls-1" x="399" y="1081" width="2" height="38"/><rect class="cls-1" x="399" y="961" width="2" height="38"/><rect class="cls-1" x="399" y="281" width="2" height="38"/><rect class="cls-1" x="399" y="361" width="2" height="38"/><rect class="cls-1" x="399" y="41" width="2" height="38"/><rect class="cls-1" x="399" y="121" width="2" height="38"/><rect class="cls-1" x="399" y="481" width="2" height="38"/><rect class="cls-1" x="399" y="1" width="2" height="38"/><rect class="cls-1" x="399" y="521" width="2" height="38"/><rect class="cls-1" x="399" y="681" width="2" height="38"/><rect class="cls-1" x="399" y="641" width="2" height="38"/><rect class="cls-1" x="399" y="1161" width="2" height="38"/><rect class="cls-1" x="399" y="441" width="2" height="38"/><rect class="cls-1" x="399" y="561" width="2" height="38"/><rect class="cls-1" x="399" y="1041" width="2" height="38"/><rect class="cls-1" x="399" y="81" width="2" height="38"/><rect class="cls-1" x="399" y="241" width="2" height="38"/><rect class="cls-1" x="399" y="321" width="2" height="38"/><rect class="cls-1" x="399" y="721" width="2" height="38"/><rect class="cls-1" x="399" y="1121" width="2" height="38"/><rect class="cls-1" x="439" y="1001" width="2" height="38"/><rect class="cls-1" x="439" y="201" width="2" height="38"/><rect class="cls-1" x="439" y="961" width="2" height="38"/><rect class="cls-1" x="439" y="241" width="2" height="38"/><rect class="cls-1" x="439" y="161" width="2" height="38"/><rect class="cls-1" x="439" y="121" width="2" height="38"/><rect class="cls-1" x="439" y="721" width="2" height="38"/><rect class="cls-1" x="439" y="1041" width="2" height="38"/><rect class="cls-1" x="439" y="401" width="2" height="38"/><rect class="cls-1" x="439" y="1081" width="2" height="38"/><rect class="cls-1" x="439" y="801" width="2" height="38"/><rect class="cls-1" x="439" y="921" width="2" height="38"/><rect class="cls-1" x="439" y="601" width="2" height="38"/><rect class="cls-1" x="439" y="761" width="2" height="38"/><rect class="cls-1" x="439" y="81" width="2" height="38"/><rect class="cls-1" x="439" y="841" width="2" height="38"/><rect class="cls-1" x="439" y="441" width="2" height="38"/><rect class="cls-1" x="439" y="281" width="2" height="38"/><rect class="cls-1" x="439" y="481" width="2" height="38"/><rect class="cls-1" x="439" y="361" width="2" height="38"/><rect class="cls-1" x="439" y="881" width="2" height="38"/><rect class="cls-1" x="439" y="521" width="2" height="38"/><rect class="cls-1" x="439" y="41" width="2" height="38"/><rect class="cls-1" x="439" y="641" width="2" height="38"/><rect class="cls-1" x="439" y="1121" width="2" height="38"/><rect class="cls-1" x="439" y="1161" width="2" height="38"/><rect class="cls-1" x="439" y="561" width="2" height="38"/><rect class="cls-1" x="439" y="1" width="2" height="38"/><rect class="cls-1" x="439" y="321" width="2" height="38"/><rect class="cls-1" x="439" y="681" width="2" height="38"/><rect class="cls-1" x="479" y="801" width="2" height="38"/><rect class="cls-1" x="479" y="681" width="2" height="38"/><rect class="cls-1" x="479" y="481" width="2" height="38"/><rect class="cls-1" x="479" y="441" width="2" height="38"/><rect class="cls-1" x="479" y="361" width="2" height="38"/><rect class="cls-1" x="479" y="321" width="2" height="38"/><rect class="cls-1" x="479" y="1161" width="2" height="38"/><rect class="cls-1" x="479" y="161" width="2" height="38"/><rect class="cls-1" x="479" y="521" width="2" height="38"/><rect class="cls-1" x="479" y="881" width="2" height="38"/><rect class="cls-1" x="479" y="1081" width="2" height="38"/><rect class="cls-1" x="479" y="241" width="2" height="38"/><rect class="cls-1" x="479" y="641" width="2" height="38"/><rect class="cls-1" x="479" y="121" width="2" height="38"/><rect class="cls-1" x="479" y="721" width="2" height="38"/><rect class="cls-1" x="479" y="921" width="2" height="38"/><rect class="cls-1" x="479" y="961" width="2" height="38"/><rect class="cls-1" x="479" y="281" width="2" height="38"/><rect class="cls-1" x="479" y="401" width="2" height="38"/><rect class="cls-1" x="479" y="201" width="2" height="38"/><rect class="cls-1" x="479" y="841" width="2" height="38"/><rect class="cls-1" x="479" y="1121" width="2" height="38"/><rect class="cls-1" x="479" y="41" width="2" height="38"/><rect class="cls-1" x="479" y="561" width="2" height="38"/><rect class="cls-1" x="479" y="601" width="2" height="38"/><rect class="cls-1" x="479" y="1001" width="2" height="38"/><rect class="cls-1" x="479" y="81" width="2" height="38"/><rect class="cls-1" x="479" y="761" width="2" height="38"/><rect class="cls-1" x="479" y="1" width="2" height="38"/><rect class="cls-1" x="479" y="1041" width="2" height="38"/><rect class="cls-1" x="519" y="801" width="2" height="38"/><rect class="cls-1" x="519" y="1161" width="2" height="38"/><rect class="cls-1" x="519" y="521" width="2" height="38"/><rect class="cls-1" x="519" y="921" width="2" height="38"/><rect class="cls-1" x="519" y="1081" width="2" height="38"/><rect class="cls-1" x="519" y="481" width="2" height="38"/><rect class="cls-1" x="519" y="1001" width="2" height="38"/><rect class="cls-1" x="519" y="721" width="2" height="38"/><rect class="cls-1" x="519" y="321" width="2" height="38"/><rect class="cls-1" x="519" y="401" width="2" height="38"/><rect class="cls-1" x="519" y="241" width="2" height="38"/><rect class="cls-1" x="519" y="761" width="2" height="38"/><rect class="cls-1" x="519" y="161" width="2" height="38"/><rect class="cls-1" x="519" y="441" width="2" height="38"/><rect class="cls-1" x="519" y="881" width="2" height="38"/><rect class="cls-1" x="519" y="601" width="2" height="38"/><rect class="cls-1" x="519" y="961" width="2" height="38"/><rect class="cls-1" x="519" y="1041" width="2" height="38"/><rect class="cls-1" x="519" y="1" width="2" height="38"/><rect class="cls-1" x="519" y="1121" width="2" height="38"/><rect class="cls-1" x="519" y="641" width="2" height="38"/><rect class="cls-1" x="519" y="841" width="2" height="38"/><rect class="cls-1" x="519" y="121" width="2" height="38"/><rect class="cls-1" x="519" y="281" width="2" height="38"/><rect class="cls-1" x="519" y="41" width="2" height="38"/><rect class="cls-1" x="519" y="681" width="2" height="38"/><rect class="cls-1" x="519" y="561" width="2" height="38"/><rect class="cls-1" x="519" y="81" width="2" height="38"/><rect class="cls-1" x="519" y="361" width="2" height="38"/><rect class="cls-1" x="519" y="201" width="2" height="38"/><rect class="cls-1" x="559" y="681" width="2" height="38"/><rect class="cls-1" x="559" y="1161" width="2" height="38"/><rect class="cls-1" x="559" y="281" width="2" height="38"/><rect class="cls-1" x="559" y="641" width="2" height="38"/><rect class="cls-1" x="559" y="761" width="2" height="38"/><rect class="cls-1" x="559" y="721" width="2" height="38"/><rect class="cls-1" x="559" y="241" width="2" height="38"/><rect class="cls-1" x="559" y="1001" width="2" height="38"/><rect class="cls-1" x="559" y="521" width="2" height="38"/><rect class="cls-1" x="559" y="1081" width="2" height="38"/><rect class="cls-1" x="559" y="921" width="2" height="38"/><rect class="cls-1" x="559" y="161" width="2" height="38"/><rect class="cls-1" x="559" y="561" width="2" height="38"/><rect class="cls-1" x="559" y="121" width="2" height="38"/><rect class="cls-1" x="559" y="881" width="2" height="38"/><rect class="cls-1" x="559" y="81" width="2" height="38"/><rect class="cls-1" x="559" y="361" width="2" height="38"/><rect class="cls-1" x="559" y="1041" width="2" height="38"/><rect class="cls-1" x="559" y="441" width="2" height="38"/><rect class="cls-1" x="559" y="401" width="2" height="38"/><rect class="cls-1" x="559" y="841" width="2" height="38"/><rect class="cls-1" x="559" y="481" width="2" height="38"/><rect class="cls-1" x="559" y="961" width="2" height="38"/><rect class="cls-1" x="559" y="601" width="2" height="38"/><rect class="cls-1" x="559" y="201" width="2" height="38"/><rect class="cls-1" x="559" y="801" width="2" height="38"/><rect class="cls-1" x="559" y="1" width="2" height="38"/><rect class="cls-1" x="559" y="321" width="2" height="38"/><rect class="cls-1" x="559" y="1121" width="2" height="38"/><rect class="cls-1" x="559" y="41" width="2" height="38"/><rect class="cls-1" x="599" y="161" width="2" height="38"/><rect class="cls-1" x="599" y="881" width="2" height="38"/><rect class="cls-1" x="599" y="321" width="2" height="38"/><rect class="cls-1" x="599" y="521" width="2" height="38"/><rect class="cls-1" x="599" y="1081" width="2" height="38"/><rect class="cls-1" x="599" y="841" width="2" height="38"/><rect class="cls-1" x="599" y="681" width="2" height="38"/><rect class="cls-1" x="599" y="441" width="2" height="38"/><rect class="cls-1" x="599" y="401" width="2" height="38"/><rect class="cls-1" x="599" y="41" width="2" height="38"/><rect class="cls-1" x="599" y="721" width="2" height="38"/><rect class="cls-1" x="599" y="801" width="2" height="38"/><rect class="cls-1" x="599" y="561" width="2" height="38"/><rect class="cls-1" x="599" y="201" width="2" height="38"/><rect class="cls-1" x="599" y="481" width="2" height="38"/><rect class="cls-1" x="599" y="1" width="2" height="38"/><rect class="cls-1" x="599" y="1121" width="2" height="38"/><rect class="cls-1" x="599" y="81" width="2" height="38"/><rect class="cls-1" x="599" y="761" width="2" height="38"/><rect class="cls-1" x="599" y="281" width="2" height="38"/><rect class="cls-1" x="599" y="241" width="2" height="38"/><rect class="cls-1" x="599" y="961" width="2" height="38"/><rect class="cls-1" x="599" y="1041" width="2" height="38"/><rect class="cls-1" x="599" y="121" width="2" height="38"/><rect class="cls-1" x="599" y="921" width="2" height="38"/><rect class="cls-1" x="599" y="1001" width="2" height="38"/><rect class="cls-1" x="599" y="1161" width="2" height="38"/><rect class="cls-1" x="599" y="361" width="2" height="38"/><rect class="cls-1" x="599" y="641" width="2" height="38"/><rect class="cls-1" x="599" y="601" width="2" height="38"/><rect class="cls-1" x="639" y="1001" width="2" height="38"/><rect class="cls-1" x="639" y="401" width="2" height="38"/><rect class="cls-1" x="639" y="721" width="2" height="38"/><rect class="cls-1" x="639" y="1041" width="2" height="38"/><rect class="cls-1" x="639" y="681" width="2" height="38"/><rect class="cls-1" x="639" y="441" width="2" height="38"/><rect class="cls-1" x="639" y="481" width="2" height="38"/><rect class="cls-1" x="639" y="561" width="2" height="38"/><rect class="cls-1" x="639" y="521" width="2" height="38"/><rect class="cls-1" x="639" y="841" width="2" height="38"/><rect class="cls-1" x="639" y="881" width="2" height="38"/><rect class="cls-1" x="639" y="1" width="2" height="38"/><rect class="cls-1" x="639" y="1081" width="2" height="38"/><rect class="cls-1" x="639" y="201" width="2" height="38"/><rect class="cls-1" x="639" y="161" width="2" height="38"/><rect class="cls-1" x="639" y="1121" width="2" height="38"/><rect class="cls-1" x="639" y="1161" width="2" height="38"/><rect class="cls-1" x="639" y="41" width="2" height="38"/><rect class="cls-1" x="639" y="241" width="2" height="38"/><rect class="cls-1" x="639" y="641" width="2" height="38"/><rect class="cls-1" x="639" y="761" width="2" height="38"/><rect class="cls-1" x="639" y="801" width="2" height="38"/><rect class="cls-1" x="639" y="321" width="2" height="38"/><rect class="cls-1" x="639" y="601" width="2" height="38"/><rect class="cls-1" x="639" y="361" width="2" height="38"/><rect class="cls-1" x="639" y="81" width="2" height="38"/><rect class="cls-1" x="639" y="921" width="2" height="38"/><rect class="cls-1" x="639" y="281" width="2" height="38"/><rect class="cls-1" x="639" y="961" width="2" height="38"/><rect class="cls-1" x="639" y="121" width="2" height="38"/><rect class="cls-1" x="679" y="1041" width="2" height="38"/><rect class="cls-1" x="679" y="841" width="2" height="38"/><rect class="cls-1" x="679" y="321" width="2" height="38"/><rect class="cls-1" x="679" y="1" width="2" height="38"/><rect class="cls-1" x="679" y="961" width="2" height="38"/><rect class="cls-1" x="679" y="81" width="2" height="38"/><rect class="cls-1" x="679" y="561" width="2" height="38"/><rect class="cls-1" x="679" y="521" width="2" height="38"/><rect class="cls-1" x="679" y="361" width="2" height="38"/><rect class="cls-1" x="679" y="161" width="2" height="38"/><rect class="cls-1" x="679" y="601" width="2" height="38"/><rect class="cls-1" x="679" y="881" width="2" height="38"/><rect class="cls-1" x="679" y="1001" width="2" height="38"/><rect class="cls-1" x="679" y="641" width="2" height="38"/><rect class="cls-1" x="679" y="281" width="2" height="38"/><rect class="cls-1" x="679" y="241" width="2" height="38"/><rect class="cls-1" x="679" y="481" width="2" height="38"/><rect class="cls-1" x="679" y="1161" width="2" height="38"/><rect class="cls-1" x="679" y="401" width="2" height="38"/><rect class="cls-1" x="679" y="761" width="2" height="38"/><rect class="cls-1" x="679" y="201" width="2" height="38"/><rect class="cls-1" x="679" y="721" width="2" height="38"/><rect class="cls-1" x="679" y="801" width="2" height="38"/><rect class="cls-1" x="679" y="681" width="2" height="38"/><rect class="cls-1" x="679" y="441" width="2" height="38"/><rect class="cls-1" x="679" y="121" width="2" height="38"/><rect class="cls-1" x="679" y="921" width="2" height="38"/><rect class="cls-1" x="679" y="1081" width="2" height="38"/><rect class="cls-1" x="679" y="41" width="2" height="38"/><rect class="cls-1" x="679" y="1121" width="2" height="38"/><rect class="cls-1" x="719" y="641" width="2" height="38"/><rect class="cls-1" x="719" y="441" width="2" height="38"/><rect class="cls-1" x="719" y="881" width="2" height="38"/><rect class="cls-1" x="719" y="361" width="2" height="38"/><rect class="cls-1" x="719" y="161" width="2" height="38"/><rect class="cls-1" x="719" y="1041" width="2" height="38"/><rect class="cls-1" x="719" y="41" width="2" height="38"/><rect class="cls-1" x="719" y="1001" width="2" height="38"/><rect class="cls-1" x="719" y="841" width="2" height="38"/><rect class="cls-1" x="719" y="961" width="2" height="38"/><rect class="cls-1" x="719" y="321" width="2" height="38"/><rect class="cls-1" x="719" y="761" width="2" height="38"/><rect class="cls-1" x="719" y="601" width="2" height="38"/><rect class="cls-1" x="719" y="1161" width="2" height="38"/><rect class="cls-1" x="719" y="241" width="2" height="38"/><rect class="cls-1" x="719" y="721" width="2" height="38"/><rect class="cls-1" x="719" y="801" width="2" height="38"/><rect class="cls-1" x="719" y="481" width="2" height="38"/><rect class="cls-1" x="719" y="921" width="2" height="38"/><rect class="cls-1" x="719" y="521" width="2" height="38"/><rect class="cls-1" x="719" y="681" width="2" height="38"/><rect class="cls-1" x="719" y="1" width="2" height="38"/><rect class="cls-1" x="719" y="1121" width="2" height="38"/><rect class="cls-1" x="719" y="561" width="2" height="38"/><rect class="cls-1" x="719" y="1081" width="2" height="38"/><rect class="cls-1" x="719" y="401" width="2" height="38"/><rect class="cls-1" x="719" y="81" width="2" height="38"/><rect class="cls-1" x="719" y="121" width="2" height="38"/><rect class="cls-1" x="719" y="281" width="2" height="38"/><rect class="cls-1" x="719" y="201" width="2" height="38"/><rect class="cls-1" x="759" y="201" width="2" height="38"/><rect class="cls-1" x="759" y="41" width="2" height="38"/><rect class="cls-1" x="759" y="761" width="2" height="38"/><rect class="cls-1" x="759" y="321" width="2" height="38"/><rect class="cls-1" x="759" y="1161" width="2" height="38"/><rect class="cls-1" x="759" y="1121" width="2" height="38"/><rect class="cls-1" x="759" y="1081" width="2" height="38"/><rect class="cls-1" x="759" y="801" width="2" height="38"/><rect class="cls-1" x="759" y="601" width="2" height="38"/><rect class="cls-1" x="759" y="641" width="2" height="38"/><rect class="cls-1" x="759" y="441" width="2" height="38"/><rect class="cls-1" x="759" y="481" width="2" height="38"/><rect class="cls-1" x="759" y="881" width="2" height="38"/><rect class="cls-1" x="759" y="721" width="2" height="38"/><rect class="cls-1" x="759" y="1041" width="2" height="38"/><rect class="cls-1" x="759" y="161" width="2" height="38"/><rect class="cls-1" x="759" y="361" width="2" height="38"/><rect class="cls-1" x="759" y="921" width="2" height="38"/><rect class="cls-1" x="759" y="281" width="2" height="38"/><rect class="cls-1" x="759" y="961" width="2" height="38"/><rect class="cls-1" x="759" y="1001" width="2" height="38"/><rect class="cls-1" x="759" y="681" width="2" height="38"/><rect class="cls-1" x="759" y="121" width="2" height="38"/><rect class="cls-1" x="759" y="561" width="2" height="38"/><rect class="cls-1" x="759" y="521" width="2" height="38"/><rect class="cls-1" x="759" y="241" width="2" height="38"/><rect class="cls-1" x="759" y="401" width="2" height="38"/><rect class="cls-1" x="759" y="1" width="2" height="38"/><rect class="cls-1" x="759" y="841" width="2" height="38"/><rect class="cls-1" x="759" y="81" width="2" height="38"/><rect class="cls-1" x="799" y="721" width="2" height="38"/><rect class="cls-1" x="799" y="441" width="2" height="38"/><rect class="cls-1" x="799" y="921" width="2" height="38"/><rect class="cls-1" x="799" y="401" width="2" height="38"/><rect class="cls-1" x="799" y="41" width="2" height="38"/><rect class="cls-1" x="799" y="1121" width="2" height="38"/><rect class="cls-1" x="799" y="961" width="2" height="38"/><rect class="cls-1" x="799" y="561" width="2" height="38"/><rect class="cls-1" x="799" y="201" width="2" height="38"/><rect class="cls-1" x="799" y="361" width="2" height="38"/><rect class="cls-1" x="799" y="521" width="2" height="38"/><rect class="cls-1" x="799" y="281" width="2" height="38"/><rect class="cls-1" x="799" y="681" width="2" height="38"/><rect class="cls-1" x="799" y="601" width="2" height="38"/><rect class="cls-1" x="799" y="761" width="2" height="38"/><rect class="cls-1" x="799" y="841" width="2" height="38"/><rect class="cls-1" x="799" y="241" width="2" height="38"/><rect class="cls-1" x="799" y="1081" width="2" height="38"/><rect class="cls-1" x="799" y="161" width="2" height="38"/><rect class="cls-1" x="799" y="881" width="2" height="38"/><rect class="cls-1" x="799" y="321" width="2" height="38"/><rect class="cls-1" x="799" y="1" width="2" height="38"/><rect class="cls-1" x="799" y="801" width="2" height="38"/><rect class="cls-1" x="799" y="81" width="2" height="38"/><rect class="cls-1" x="799" y="1161" width="2" height="38"/><rect class="cls-1" x="799" y="1001" width="2" height="38"/><rect class="cls-1" x="799" y="641" width="2" height="38"/><rect class="cls-1" x="799" y="121" width="2" height="38"/><rect class="cls-1" x="799" y="481" width="2" height="38"/><rect class="cls-1" x="799" y="1041" width="2" height="38"/><rect class="cls-1" x="839" y="721" width="2" height="38"/><rect class="cls-1" x="839" y="601" width="2" height="38"/><rect class="cls-1" x="839" y="241" width="2" height="38"/><rect class="cls-1" x="839" y="521" width="2" height="38"/><rect class="cls-1" x="839" y="681" width="2" height="38"/><rect class="cls-1" x="839" y="481" width="2" height="38"/><rect class="cls-1" x="839" y="441" width="2" height="38"/><rect class="cls-1" x="839" y="761" width="2" height="38"/><rect class="cls-1" x="839" y="641" width="2" height="38"/><rect class="cls-1" x="839" y="361" width="2" height="38"/><rect class="cls-1" x="839" y="401" width="2" height="38"/><rect class="cls-1" x="839" y="561" width="2" height="38"/><rect class="cls-1" x="839" y="321" width="2" height="38"/><rect class="cls-1" x="839" y="281" width="2" height="38"/><rect class="cls-1" x="839" y="801" width="2" height="38"/><rect class="cls-1" x="839" y="41" width="2" height="38"/><rect class="cls-1" x="839" y="961" width="2" height="38"/><rect class="cls-1" x="839" y="161" width="2" height="38"/><rect class="cls-1" x="839" y="881" width="2" height="38"/><rect class="cls-1" x="839" y="841" width="2" height="38"/><rect class="cls-1" x="839" y="201" width="2" height="38"/><rect class="cls-1" x="839" y="1161" width="2" height="38"/><rect class="cls-1" x="839" y="1081" width="2" height="38"/><rect class="cls-1" x="839" y="1121" width="2" height="38"/><rect class="cls-1" x="839" y="1041" width="2" height="38"/><rect class="cls-1" x="839" y="121" width="2" height="38"/><rect class="cls-1" x="839" y="1001" width="2" height="38"/><rect class="cls-1" x="839" y="81" width="2" height="38"/><rect class="cls-1" x="839" y="1" width="2" height="38"/><rect class="cls-1" x="839" y="921" width="2" height="38"/><rect class="cls-1" x="879" y="1" width="2" height="38"/><rect class="cls-1" x="879" y="841" width="2" height="38"/><rect class="cls-1" x="879" y="761" width="2" height="38"/><rect class="cls-1" x="879" y="521" width="2" height="38"/><rect class="cls-1" x="879" y="561" width="2" height="38"/><rect class="cls-1" x="879" y="361" width="2" height="38"/><rect class="cls-1" x="879" y="921" width="2" height="38"/><rect class="cls-1" x="879" y="161" width="2" height="38"/><rect class="cls-1" x="879" y="201" width="2" height="38"/><rect class="cls-1" x="879" y="881" width="2" height="38"/><rect class="cls-1" x="879" y="601" width="2" height="38"/><rect class="cls-1" x="879" y="241" width="2" height="38"/><rect class="cls-1" x="879" y="401" width="2" height="38"/><rect class="cls-1" x="879" y="641" width="2" height="38"/><rect class="cls-1" x="879" y="801" width="2" height="38"/><rect class="cls-1" x="879" y="681" width="2" height="38"/><rect class="cls-1" x="879" y="1001" width="2" height="38"/><rect class="cls-1" x="879" y="1041" width="2" height="38"/><rect class="cls-1" x="879" y="121" width="2" height="38"/><rect class="cls-1" x="879" y="481" width="2" height="38"/><rect class="cls-1" x="879" y="441" width="2" height="38"/><rect class="cls-1" x="879" y="1161" width="2" height="38"/><rect class="cls-1" x="879" y="1081" width="2" height="38"/><rect class="cls-1" x="879" y="41" width="2" height="38"/><rect class="cls-1" x="879" y="321" width="2" height="38"/><rect class="cls-1" x="879" y="961" width="2" height="38"/><rect class="cls-1" x="879" y="721" width="2" height="38"/><rect class="cls-1" x="879" y="281" width="2" height="38"/><rect class="cls-1" x="879" y="1121" width="2" height="38"/><rect class="cls-1" x="879" y="81" width="2" height="38"/><rect class="cls-1" x="919" y="1161" width="2" height="38"/><rect class="cls-1" x="919" y="1041" width="2" height="38"/><rect class="cls-1" x="919" y="1081" width="2" height="38"/><rect class="cls-1" x="919" y="121" width="2" height="38"/><rect class="cls-1" x="919" y="921" width="2" height="38"/><rect class="cls-1" x="919" y="161" width="2" height="38"/><rect class="cls-1" x="919" y="961" width="2" height="38"/><rect class="cls-1" x="919" y="1001" width="2" height="38"/><rect class="cls-1" x="919" y="81" width="2" height="38"/><rect class="cls-1" x="919" y="521" width="2" height="38"/><rect class="cls-1" x="919" y="1" width="2" height="38"/><rect class="cls-1" x="919" y="361" width="2" height="38"/><rect class="cls-1" x="919" y="481" width="2" height="38"/><rect class="cls-1" x="919" y="41" width="2" height="38"/><rect class="cls-1" x="919" y="1121" width="2" height="38"/><rect class="cls-1" x="919" y="601" width="2" height="38"/><rect class="cls-1" x="919" y="881" width="2" height="38"/><rect class="cls-1" x="919" y="281" width="2" height="38"/><rect class="cls-1" x="919" y="681" width="2" height="38"/><rect class="cls-1" x="919" y="721" width="2" height="38"/><rect class="cls-1" x="919" y="641" width="2" height="38"/><rect class="cls-1" x="919" y="761" width="2" height="38"/><rect class="cls-1" x="919" y="321" width="2" height="38"/><rect class="cls-1" x="919" y="561" width="2" height="38"/><rect class="cls-1" x="919" y="441" width="2" height="38"/><rect class="cls-1" x="919" y="801" width="2" height="38"/><rect class="cls-1" x="919" y="201" width="2" height="38"/><rect class="cls-1" x="919" y="841" width="2" height="38"/><rect class="cls-1" x="919" y="401" width="2" height="38"/><rect class="cls-1" x="919" y="241" width="2" height="38"/><rect class="cls-1" x="959" y="161" width="2" height="38"/><rect class="cls-1" x="959" y="201" width="2" height="38"/><rect class="cls-1" x="959" y="881" width="2" height="38"/><rect class="cls-1" x="959" y="921" width="2" height="38"/><rect class="cls-1" x="959" y="241" width="2" height="38"/><rect class="cls-1" x="959" y="761" width="2" height="38"/><rect class="cls-1" x="959" y="481" width="2" height="38"/><rect class="cls-1" x="959" y="521" width="2" height="38"/><rect class="cls-1" x="959" y="801" width="2" height="38"/><rect class="cls-1" x="959" y="841" width="2" height="38"/><rect class="cls-1" x="959" y="601" width="2" height="38"/><rect class="cls-1" x="959" y="401" width="2" height="38"/><rect class="cls-1" x="959" y="1081" width="2" height="38"/><rect class="cls-1" x="959" y="81" width="2" height="38"/><rect class="cls-1" x="959" y="721" width="2" height="38"/><rect class="cls-1" x="959" y="441" width="2" height="38"/><rect class="cls-1" x="959" y="1041" width="2" height="38"/><rect class="cls-1" x="959" y="961" width="2" height="38"/><rect class="cls-1" x="959" y="121" width="2" height="38"/><rect class="cls-1" x="959" y="321" width="2" height="38"/><rect class="cls-1" x="959" y="41" width="2" height="38"/><rect class="cls-1" x="959" y="1001" width="2" height="38"/><rect class="cls-1" x="959" y="1161" width="2" height="38"/><rect class="cls-1" x="959" y="1121" width="2" height="38"/><rect class="cls-1" x="959" y="561" width="2" height="38"/><rect class="cls-1" x="959" y="1" width="2" height="38"/><rect class="cls-1" x="959" y="281" width="2" height="38"/><rect class="cls-1" x="959" y="361" width="2" height="38"/><rect class="cls-1" x="959" y="641" width="2" height="38"/><rect class="cls-1" x="959" y="681" width="2" height="38"/><rect class="cls-1" x="999" y="241" width="2" height="38"/><rect class="cls-1" x="999" y="961" width="2" height="38"/><rect class="cls-1" x="999" y="921" width="2" height="38"/><rect class="cls-1" x="999" y="841" width="2" height="38"/><rect class="cls-1" x="999" y="481" width="2" height="38"/><rect class="cls-1" x="999" y="761" width="2" height="38"/><rect class="cls-1" x="999" y="881" width="2" height="38"/><rect class="cls-1" x="999" y="201" width="2" height="38"/><rect class="cls-1" x="999" y="801" width="2" height="38"/><rect class="cls-1" x="999" y="41" width="2" height="38"/><rect class="cls-1" x="999" y="401" width="2" height="38"/><rect class="cls-1" x="999" y="601" width="2" height="38"/><rect class="cls-1" x="999" y="521" width="2" height="38"/><rect class="cls-1" x="999" y="321" width="2" height="38"/><rect class="cls-1" x="999" y="161" width="2" height="38"/><rect class="cls-1" x="999" y="441" width="2" height="38"/><rect class="cls-1" x="999" y="81" width="2" height="38"/><rect class="cls-1" x="999" y="1121" width="2" height="38"/><rect class="cls-1" x="999" y="281" width="2" height="38"/><rect class="cls-1" x="999" y="561" width="2" height="38"/><rect class="cls-1" x="999" y="121" width="2" height="38"/><rect class="cls-1" x="999" y="641" width="2" height="38"/><rect class="cls-1" x="999" y="1041" width="2" height="38"/><rect class="cls-1" x="999" y="1161" width="2" height="38"/><rect class="cls-1" x="999" y="1001" width="2" height="38"/><rect class="cls-1" x="999" y="1081" width="2" height="38"/><rect class="cls-1" x="999" y="1" width="2" height="38"/><rect class="cls-1" x="999" y="681" width="2" height="38"/><rect class="cls-1" x="999" y="361" width="2" height="38"/><rect class="cls-1" x="999" y="721" width="2" height="38"/><rect class="cls-1" x="1039" y="281" width="2" height="38"/><rect class="cls-1" x="1039" y="1121" width="2" height="38"/><rect class="cls-1" x="1039" y="161" width="2" height="38"/><rect class="cls-1" x="1039" y="121" width="2" height="38"/><rect class="cls-1" x="1039" y="841" width="2" height="38"/><rect class="cls-1" x="1039" y="81" width="2" height="38"/><rect class="cls-1" x="1039" y="1041" width="2" height="38"/><rect class="cls-1" x="1039" y="801" width="2" height="38"/><rect class="cls-1" x="1039" y="561" width="2" height="38"/><rect class="cls-1" x="1039" y="241" width="2" height="38"/><rect class="cls-1" x="1039" y="1081" width="2" height="38"/><rect class="cls-1" x="1039" y="441" width="2" height="38"/><rect class="cls-1" x="1039" y="401" width="2" height="38"/><rect class="cls-1" x="1039" y="1001" width="2" height="38"/><rect class="cls-1" x="1039" y="881" width="2" height="38"/><rect class="cls-1" x="1039" y="481" width="2" height="38"/><rect class="cls-1" x="1039" y="1161" width="2" height="38"/><rect class="cls-1" x="1039" y="961" width="2" height="38"/><rect class="cls-1" x="1039" y="521" width="2" height="38"/><rect class="cls-1" x="1039" y="201" width="2" height="38"/><rect class="cls-1" x="1039" y="1" width="2" height="38"/><rect class="cls-1" x="1039" y="921" width="2" height="38"/><rect class="cls-1" x="1039" y="361" width="2" height="38"/><rect class="cls-1" x="1039" y="761" width="2" height="38"/><rect class="cls-1" x="1039" y="41" width="2" height="38"/><rect class="cls-1" x="1039" y="721" width="2" height="38"/><rect class="cls-1" x="1039" y="681" width="2" height="38"/><rect class="cls-1" x="1039" y="601" width="2" height="38"/><rect class="cls-1" x="1039" y="321" width="2" height="38"/><rect class="cls-1" x="1039" y="641" width="2" height="38"/><rect class="cls-1" x="1079" y="961" width="2" height="38"/><rect class="cls-1" x="1079" y="1001" width="2" height="38"/><rect class="cls-1" x="1079" y="761" width="2" height="38"/><rect class="cls-1" x="1079" y="441" width="2" height="38"/><rect class="cls-1" x="1079" y="321" width="2" height="38"/><rect class="cls-1" x="1079" y="241" width="2" height="38"/><rect class="cls-1" x="1079" y="841" width="2" height="38"/><rect class="cls-1" x="1079" y="41" width="2" height="38"/><rect class="cls-1" x="1079" y="561" width="2" height="38"/><rect class="cls-1" x="1079" y="1161" width="2" height="38"/><rect class="cls-1" x="1079" y="1" width="2" height="38"/><rect class="cls-1" x="1079" y="81" width="2" height="38"/><rect class="cls-1" x="1079" y="521" width="2" height="38"/><rect class="cls-1" x="1079" y="881" width="2" height="38"/><rect class="cls-1" x="1079" y="1041" width="2" height="38"/><rect class="cls-1" x="1079" y="161" width="2" height="38"/><rect class="cls-1" x="1079" y="1081" width="2" height="38"/><rect class="cls-1" x="1079" y="801" width="2" height="38"/><rect class="cls-1" x="1079" y="681" width="2" height="38"/><rect class="cls-1" x="1079" y="281" width="2" height="38"/><rect class="cls-1" x="1079" y="921" width="2" height="38"/><rect class="cls-1" x="1079" y="1121" width="2" height="38"/><rect class="cls-1" x="1079" y="641" width="2" height="38"/><rect class="cls-1" x="1079" y="481" width="2" height="38"/><rect class="cls-1" x="1079" y="601" width="2" height="38"/><rect class="cls-1" x="1079" y="121" width="2" height="38"/><rect class="cls-1" x="1079" y="361" width="2" height="38"/><rect class="cls-1" x="1079" y="401" width="2" height="38"/><rect class="cls-1" x="1079" y="201" width="2" height="38"/><rect class="cls-1" x="1079" y="721" width="2" height="38"/><rect class="cls-1" x="1119" y="401" width="2" height="38"/><rect class="cls-1" x="1119" y="721" width="2" height="38"/><rect class="cls-1" x="1119" y="1" width="2" height="38"/><rect class="cls-1" x="1119" y="761" width="2" height="38"/><rect class="cls-1" x="1119" y="681" width="2" height="38"/><rect class="cls-1" x="1119" y="961" width="2" height="38"/><rect class="cls-1" x="1119" y="1001" width="2" height="38"/><rect class="cls-1" x="1119" y="361" width="2" height="38"/><rect class="cls-1" x="1119" y="121" width="2" height="38"/><rect class="cls-1" x="1119" y="561" width="2" height="38"/><rect class="cls-1" x="1119" y="481" width="2" height="38"/><rect class="cls-1" x="1119" y="841" width="2" height="38"/><rect class="cls-1" x="1119" y="641" width="2" height="38"/><rect class="cls-1" x="1119" y="601" width="2" height="38"/><rect class="cls-1" x="1119" y="1161" width="2" height="38"/><rect class="cls-1" x="1119" y="281" width="2" height="38"/><rect class="cls-1" x="1119" y="441" width="2" height="38"/><rect class="cls-1" x="1119" y="41" width="2" height="38"/><rect class="cls-1" x="1119" y="1081" width="2" height="38"/><rect class="cls-1" x="1119" y="521" width="2" height="38"/><rect class="cls-1" x="1119" y="801" width="2" height="38"/><rect class="cls-1" x="1119" y="1041" width="2" height="38"/><rect class="cls-1" x="1119" y="241" width="2" height="38"/><rect class="cls-1" x="1119" y="81" width="2" height="38"/><rect class="cls-1" x="1119" y="1121" width="2" height="38"/><rect class="cls-1" x="1119" y="321" width="2" height="38"/><rect class="cls-1" x="1119" y="881" width="2" height="38"/><rect class="cls-1" x="1119" y="921" width="2" height="38"/><rect class="cls-1" x="1119" y="201" width="2" height="38"/><rect class="cls-1" x="1119" y="161" width="2" height="38"/><rect class="cls-1" x="1159" y="841" width="2" height="38"/><rect class="cls-1" x="1159" y="681" width="2" height="38"/><rect class="cls-1" x="1159" y="441" width="2" height="38"/><rect class="cls-1" x="1159" y="401" width="2" height="38"/><rect class="cls-1" x="1159" y="521" width="2" height="38"/><rect class="cls-1" x="1159" y="1081" width="2" height="38"/><rect class="cls-1" x="1159" y="201" width="2" height="38"/><rect class="cls-1" x="1159" y="1001" width="2" height="38"/><rect class="cls-1" x="1159" y="921" width="2" height="38"/><rect class="cls-1" x="1159" y="761" width="2" height="38"/><rect class="cls-1" x="1159" y="1" width="2" height="38"/><rect class="cls-1" x="1159" y="161" width="2" height="38"/><rect class="cls-1" x="1159" y="281" width="2" height="38"/><rect class="cls-1" x="1159" y="121" width="2" height="38"/><rect class="cls-1" x="1159" y="1041" width="2" height="38"/><rect class="cls-1" x="1159" y="881" width="2" height="38"/><rect class="cls-1" x="1159" y="641" width="2" height="38"/><rect class="cls-1" x="1159" y="601" width="2" height="38"/><rect class="cls-1" x="1159" y="561" width="2" height="38"/><rect class="cls-1" x="1159" y="361" width="2" height="38"/><rect class="cls-1" x="1159" y="1161" width="2" height="38"/><rect class="cls-1" x="1159" y="721" width="2" height="38"/><rect class="cls-1" x="1159" y="321" width="2" height="38"/><rect class="cls-1" x="1159" y="961" width="2" height="38"/><rect class="cls-1" x="1159" y="481" width="2" height="38"/><rect class="cls-1" x="1159" y="81" width="2" height="38"/><rect class="cls-1" x="1159" y="801" width="2" height="38"/><rect class="cls-1" x="1159" y="241" width="2" height="38"/><rect class="cls-1" x="1159" y="41" width="2" height="38"/><rect class="cls-1" x="1159" y="1121" width="2" height="38"/><rect class="cls-1" x="1199" y="721" width="1" height="38"/><rect class="cls-1" x="1199" y="1041" width="1" height="38"/><rect class="cls-1" x="1199" y="841" width="1" height="38"/><rect class="cls-1" x="1199" y="321" width="1" height="38"/><rect class="cls-1" x="1199" y="961" width="1" height="38"/><rect class="cls-1" x="1199" y="561" width="1" height="38"/><rect class="cls-1" x="1199" y="641" width="1" height="38"/><rect class="cls-1" x="1199" y="121" width="1" height="38"/><rect class="cls-1" x="1199" y="881" width="1" height="38"/><rect class="cls-1" x="1199" y="801" width="1" height="38"/><rect class="cls-1" x="1199" y="481" width="1" height="38"/><rect class="cls-1" x="1199" y="241" width="1" height="38"/><rect class="cls-1" x="1199" y="1161" width="1" height="38"/><rect class="cls-1" x="1199" y="81" width="1" height="38"/><rect class="cls-1" x="1199" y="401" width="1" height="38"/><rect class="cls-1" x="1199" y="201" width="1" height="38"/><rect class="cls-1" x="1199" y="601" width="1" height="38"/><rect class="cls-1" x="1199" y="1081" width="1" height="38"/><rect class="cls-1" x="1199" y="41" width="1" height="38"/><rect class="cls-1" x="1199" y="1121" width="1" height="38"/><rect class="cls-1" x="1199" y="361" width="1" height="38"/><rect class="cls-1" x="1199" y="521" width="1" height="38"/><rect class="cls-1" x="1199" y="1" width="1" height="38"/><rect class="cls-1" x="1199" y="441" width="1" height="38"/><rect class="cls-1" x="1199" y="161" width="1" height="38"/><rect class="cls-1" x="1199" y="681" width="1" height="38"/><rect class="cls-1" x="1199" y="921" width="1" height="38"/><rect class="cls-1" x="1199" y="281" width="1" height="38"/><rect class="cls-1" x="1199" y="1001" width="1" height="38"/><rect class="cls-1" x="1199" y="761" width="1" height="38"/><polygon class="cls-1" points="1199 1199 1161 1199 1159 1199 1121 1199 1119 1199 1081 1199 1079 1199 1041 1199 1039 1199 1001 1199 999 1199 961 1199 959 1199 921 1199 919 1199 881 1199 879 1199 841 1199 839 1199 801 1199 799 1199 761 1199 759 1199 721 1199 719 1199 681 1199 679 1199 641 1199 639 1199 601 1199 599 1199 561 1199 559 1199 521 1199 519 1199 481 1199 479 1199 441 1199 439 1199 401 1199 399 1199 361 1199 359 1199 321 1199 319 1199 281 1199 279 1199 241 1199 239 1199 201 1199 199 1199 161 1199 159 1199 121 1199 119 1199 81 1199 79 1199 41 1199 39 1199 1 1199 0 1199 0 1200 1 1200 39 1200 41 1200 79 1200 81 1200 119 1200 121 1200 159 1200 161 1200 199 1200 201 1200 239 1200 241 1200 279 1200 281 1200 319 1200 321 1200 359 1200 361 1200 399 1200 401 1200 439 1200 441 1200 479 1200 481 1200 519 1200 521 1200 559 1200 561 1200 599 1200 601 1200 639 1200 641 1200 679 1200 681 1200 719 1200 721 1200 759 1200 761 1200 799 1200 801 1200 839 1200 841 1200 879 1200 881 1200 919 1200 921 1200 959 1200 961 1200 999 1200 1001 1200 1039 1200 1041 1200 1079 1200 1081 1200 1119 1200 1121 1200 1159 1200 1161 1200 1199 1200 1200 1200 1200 1199 1199 1199"/><polygon class="cls-1" points="39 1161 41 1161 79 1161 81 1161 119 1161 121 1161 159 1161 161 1161 199 1161 201 1161 239 1161 241 1161 279 1161 281 1161 319 1161 321 1161 359 1161 361 1161 399 1161 401 1161 439 1161 441 1161 479 1161 481 1161 519 1161 521 1161 559 1161 561 1161 599 1161 601 1161 639 1161 641 1161 679 1161 681 1161 719 1161 721 1161 759 1161 761 1161 799 1161 801 1161 839 1161 841 1161 879 1161 881 1161 919 1161 921 1161 959 1161 961 1161 999 1161 1001 1161 1039 1161 1041 1161 1079 1161 1081 1161 1119 1161 1121 1161 1159 1161 1161 1161 1199 1161 1200 1161 1200 1159 1199 1159 1161 1159 1159 1159 1121 1159 1119 1159 1081 1159 1079 1159 1041 1159 1039 1159 1001 1159 999 1159 961 1159 959 1159 921 1159 919 1159 881 1159 879 1159 841 1159 839 1159 801 1159 799 1159 761 1159 759 1159 721 1159 719 1159 681 1159 679 1159 641 1159 639 1159 601 1159 599 1159 561 1159 559 1159 521 1159 519 1159 481 1159 479 1159 441 1159 439 1159 401 1159 399 1159 361 1159 359 1159 321 1159 319 1159 281 1159 279 1159 241 1159 239 1159 201 1159 199 1159 161 1159 159 1159 121 1159 119 1159 81 1159 79 1159 41 1159 39 1159 1 1159 0 1159 0 1161 1 1161 39 1161"/><polygon class="cls-1" points="39 1121 41 1121 79 1121 81 1121 119 1121 121 1121 159 1121 161 1121 199 1121 201 1121 239 1121 241 1121 279 1121 281 1121 319 1121 321 1121 359 1121 361 1121 399 1121 401 1121 439 1121 441 1121 479 1121 481 1121 519 1121 521 1121 559 1121 561 1121 599 1121 601 1121 639 1121 641 1121 679 1121 681 1121 719 1121 721 1121 759 1121 761 1121 799 1121 801 1121 839 1121 841 1121 879 1121 881 1121 919 1121 921 1121 959 1121 961 1121 999 1121 1001 1121 1039 1121 1041 1121 1079 1121 1081 1121 1119 1121 1121 1121 1159 1121 1161 1121 1199 1121 1200 1121 1200 1119 1199 1119 1161 1119 1159 1119 1121 1119 1119 1119 1081 1119 1079 1119 1041 1119 1039 1119 1001 1119 999 1119 961 1119 959 1119 921 1119 919 1119 881 1119 879 1119 841 1119 839 1119 801 1119 799 1119 761 1119 759 1119 721 1119 719 1119 681 1119 679 1119 641 1119 639 1119 601 1119 599 1119 561 1119 559 1119 521 1119 519 1119 481 1119 479 1119 441 1119 439 1119 401 1119 399 1119 361 1119 359 1119 321 1119 319 1119 281 1119 279 1119 241 1119 239 1119 201 1119 199 1119 161 1119 159 1119 121 1119 119 1119 81 1119 79 1119 41 1119 39 1119 1 1119 0 1119 0 1121 1 1121 39 1121"/><polygon class="cls-1" points="39 1081 41 1081 79 1081 81 1081 119 1081 121 1081 159 1081 161 1081 199 1081 201 1081 239 1081 241 1081 279 1081 281 1081 319 1081 321 1081 359 1081 361 1081 399 1081 401 1081 439 1081 441 1081 479 1081 481 1081 519 1081 521 1081 559 1081 561 1081 599 1081 601 1081 639 1081 641 1081 679 1081 681 1081 719 1081 721 1081 759 1081 761 1081 799 1081 801 1081 839 1081 841 1081 879 1081 881 1081 919 1081 921 1081 959 1081 961 1081 999 1081 1001 1081 1039 1081 1041 1081 1079 1081 1081 1081 1119 1081 1121 1081 1159 1081 1161 1081 1199 1081 1200 1081 1200 1079 1199 1079 1161 1079 1159 1079 1121 1079 1119 1079 1081 1079 1079 1079 1041 1079 1039 1079 1001 1079 999 1079 961 1079 959 1079 921 1079 919 1079 881 1079 879 1079 841 1079 839 1079 801 1079 799 1079 761 1079 759 1079 721 1079 719 1079 681 1079 679 1079 641 1079 639 1079 601 1079 599 1079 561 1079 559 1079 521 1079 519 1079 481 1079 479 1079 441 1079 439 1079 401 1079 399 1079 361 1079 359 1079 321 1079 319 1079 281 1079 279 1079 241 1079 239 1079 201 1079 199 1079 161 1079 159 1079 121 1079 119 1079 81 1079 79 1079 41 1079 39 1079 1 1079 0 1079 0 1081 1 1081 39 1081"/><polygon class="cls-1" points="39 1041 41 1041 79 1041 81 1041 119 1041 121 1041 159 1041 161 1041 199 1041 201 1041 239 1041 241 1041 279 1041 281 1041 319 1041 321 1041 359 1041 361 1041 399 1041 401 1041 439 1041 441 1041 479 1041 481 1041 519 1041 521 1041 559 1041 561 1041 599 1041 601 1041 639 1041 641 1041 679 1041 681 1041 719 1041 721 1041 759 1041 761 1041 799 1041 801 1041 839 1041 841 1041 879 1041 881 1041 919 1041 921 1041 959 1041 961 1041 999 1041 1001 1041 1039 1041 1041 1041 1079 1041 1081 1041 1119 1041 1121 1041 1159 1041 1161 1041 1199 1041 1200 1041 1200 1039 1199 1039 1161 1039 1159 1039 1121 1039 1119 1039 1081 1039 1079 1039 1041 1039 1039 1039 1001 1039 999 1039 961 1039 959 1039 921 1039 919 1039 881 1039 879 1039 841 1039 839 1039 801 1039 799 1039 761 1039 759 1039 721 1039 719 1039 681 1039 679 1039 641 1039 639 1039 601 1039 599 1039 561 1039 559 1039 521 1039 519 1039 481 1039 479 1039 441 1039 439 1039 401 1039 399 1039 361 1039 359 1039 321 1039 319 1039 281 1039 279 1039 241 1039 239 1039 201 1039 199 1039 161 1039 159 1039 121 1039 119 1039 81 1039 79 1039 41 1039 39 1039 1 1039 0 1039 0 1041 1 1041 39 1041"/><polygon class="cls-1" points="39 1001 41 1001 79 1001 81 1001 119 1001 121 1001 159 1001 161 1001 199 1001 201 1001 239 1001 241 1001 279 1001 281 1001 319 1001 321 1001 359 1001 361 1001 399 1001 401 1001 439 1001 441 1001 479 1001 481 1001 519 1001 521 1001 559 1001 561 1001 599 1001 601 1001 639 1001 641 1001 679 1001 681 1001 719 1001 721 1001 759 1001 761 1001 799 1001 801 1001 839 1001 841 1001 879 1001 881 1001 919 1001 921 1001 959 1001 961 1001 999 1001 1001 1001 1039 1001 1041 1001 1079 1001 1081 1001 1119 1001 1121 1001 1159 1001 1161 1001 1199 1001 1200 1001 1200 999 1199 999 1161 999 1159 999 1121 999 1119 999 1081 999 1079 999 1041 999 1039 999 1001 999 999 999 961 999 959 999 921 999 919 999 881 999 879 999 841 999 839 999 801 999 799 999 761 999 759 999 721 999 719 999 681 999 679 999 641 999 639 999 601 999 599 999 561 999 559 999 521 999 519 999 481 999 479 999 441 999 439 999 401 999 399 999 361 999 359 999 321 999 319 999 281 999 279 999 241 999 239 999 201 999 199 999 161 999 159 999 121 999 119 999 81 999 79 999 41 999 39 999 1 999 0 999 0 1001 1 1001 39 1001"/><polygon class="cls-1" points="39 961 41 961 79 961 81 961 119 961 121 961 159 961 161 961 199 961 201 961 239 961 241 961 279 961 281 961 319 961 321 961 359 961 361 961 399 961 401 961 439 961 441 961 479 961 481 961 519 961 521 961 559 961 561 961 599 961 601 961 639 961 641 961 679 961 681 961 719 961 721 961 759 961 761 961 799 961 801 961 839 961 841 961 879 961 881 961 919 961 921 961 959 961 961 961 999 961 1001 961 1039 961 1041 961 1079 961 1081 961 1119 961 1121 961 1159 961 1161 961 1199 961 1200 961 1200 959 1199 959 1161 959 1159 959 1121 959 1119 959 1081 959 1079 959 1041 959 1039 959 1001 959 999 959 961 959 959 959 921 959 919 959 881 959 879 959 841 959 839 959 801 959 799 959 761 959 759 959 721 959 719 959 681 959 679 959 641 959 639 959 601 959 599 959 561 959 559 959 521 959 519 959 481 959 479 959 441 959 439 959 401 959 399 959 361 959 359 959 321 959 319 959 281 959 279 959 241 959 239 959 201 959 199 959 161 959 159 959 121 959 119 959 81 959 79 959 41 959 39 959 1 959 0 959 0 961 1 961 39 961"/><polygon class="cls-1" points="39 921 41 921 79 921 81 921 119 921 121 921 159 921 161 921 199 921 201 921 239 921 241 921 279 921 281 921 319 921 321 921 359 921 361 921 399 921 401 921 439 921 441 921 479 921 481 921 519 921 521 921 559 921 561 921 599 921 601 921 639 921 641 921 679 921 681 921 719 921 721 921 759 921 761 921 799 921 801 921 839 921 841 921 879 921 881 921 919 921 921 921 959 921 961 921 999 921 1001 921 1039 921 1041 921 1079 921 1081 921 1119 921 1121 921 1159 921 1161 921 1199 921 1200 921 1200 919 1199 919 1161 919 1159 919 1121 919 1119 919 1081 919 1079 919 1041 919 1039 919 1001 919 999 919 961 919 959 919 921 919 919 919 881 919 879 919 841 919 839 919 801 919 799 919 761 919 759 919 721 919 719 919 681 919 679 919 641 919 639 919 601 919 599 919 561 919 559 919 521 919 519 919 481 919 479 919 441 919 439 919 401 919 399 919 361 919 359 919 321 919 319 919 281 919 279 919 241 919 239 919 201 919 199 919 161 919 159 919 121 919 119 919 81 919 79 919 41 919 39 919 1 919 0 919 0 921 1 921 39 921"/><polygon class="cls-1" points="39 881 41 881 79 881 81 881 119 881 121 881 159 881 161 881 199 881 201 881 239 881 241 881 279 881 281 881 319 881 321 881 359 881 361 881 399 881 401 881 439 881 441 881 479 881 481 881 519 881 521 881 559 881 561 881 599 881 601 881 639 881 641 881 679 881 681 881 719 881 721 881 759 881 761 881 799 881 801 881 839 881 841 881 879 881 881 881 919 881 921 881 959 881 961 881 999 881 1001 881 1039 881 1041 881 1079 881 1081 881 1119 881 1121 881 1159 881 1161 881 1199 881 1200 881 1200 879 1199 879 1161 879 1159 879 1121 879 1119 879 1081 879 1079 879 1041 879 1039 879 1001 879 999 879 961 879 959 879 921 879 919 879 881 879 879 879 841 879 839 879 801 879 799 879 761 879 759 879 721 879 719 879 681 879 679 879 641 879 639 879 601 879 599 879 561 879 559 879 521 879 519 879 481 879 479 879 441 879 439 879 401 879 399 879 361 879 359 879 321 879 319 879 281 879 279 879 241 879 239 879 201 879 199 879 161 879 159 879 121 879 119 879 81 879 79 879 41 879 39 879 1 879 0 879 0 881 1 881 39 881"/><polygon class="cls-1" points="39 841 41 841 79 841 81 841 119 841 121 841 159 841 161 841 199 841 201 841 239 841 241 841 279 841 281 841 319 841 321 841 359 841 361 841 399 841 401 841 439 841 441 841 479 841 481 841 519 841 521 841 559 841 561 841 599 841 601 841 639 841 641 841 679 841 681 841 719 841 721 841 759 841 761 841 799 841 801 841 839 841 841 841 879 841 881 841 919 841 921 841 959 841 961 841 999 841 1001 841 1039 841 1041 841 1079 841 1081 841 1119 841 1121 841 1159 841 1161 841 1199 841 1200 841 1200 839 1199 839 1161 839 1159 839 1121 839 1119 839 1081 839 1079 839 1041 839 1039 839 1001 839 999 839 961 839 959 839 921 839 919 839 881 839 879 839 841 839 839 839 801 839 799 839 761 839 759 839 721 839 719 839 681 839 679 839 641 839 639 839 601 839 599 839 561 839 559 839 521 839 519 839 481 839 479 839 441 839 439 839 401 839 399 839 361 839 359 839 321 839 319 839 281 839 279 839 241 839 239 839 201 839 199 839 161 839 159 839 121 839 119 839 81 839 79 839 41 839 39 839 1 839 0 839 0 841 1 841 39 841"/><polygon class="cls-1" points="39 801 41 801 79 801 81 801 119 801 121 801 159 801 161 801 199 801 201 801 239 801 241 801 279 801 281 801 319 801 321 801 359 801 361 801 399 801 401 801 439 801 441 801 479 801 481 801 519 801 521 801 559 801 561 801 599 801 601 801 639 801 641 801 679 801 681 801 719 801 721 801 759 801 761 801 799 801 801 801 839 801 841 801 879 801 881 801 919 801 921 801 959 801 961 801 999 801 1001 801 1039 801 1041 801 1079 801 1081 801 1119 801 1121 801 1159 801 1161 801 1199 801 1200 801 1200 799 1199 799 1161 799 1159 799 1121 799 1119 799 1081 799 1079 799 1041 799 1039 799 1001 799 999 799 961 799 959 799 921 799 919 799 881 799 879 799 841 799 839 799 801 799 799 799 761 799 759 799 721 799 719 799 681 799 679 799 641 799 639 799 601 799 599 799 561 799 559 799 521 799 519 799 481 799 479 799 441 799 439 799 401 799 399 799 361 799 359 799 321 799 319 799 281 799 279 799 241 799 239 799 201 799 199 799 161 799 159 799 121 799 119 799 81 799 79 799 41 799 39 799 1 799 0 799 0 801 1 801 39 801"/><polygon class="cls-1" points="39 761 41 761 79 761 81 761 119 761 121 761 159 761 161 761 199 761 201 761 239 761 241 761 279 761 281 761 319 761 321 761 359 761 361 761 399 761 401 761 439 761 441 761 479 761 481 761 519 761 521 761 559 761 561 761 599 761 601 761 639 761 641 761 679 761 681 761 719 761 721 761 759 761 761 761 799 761 801 761 839 761 841 761 879 761 881 761 919 761 921 761 959 761 961 761 999 761 1001 761 1039 761 1041 761 1079 761 1081 761 1119 761 1121 761 1159 761 1161 761 1199 761 1200 761 1200 759 1199 759 1161 759 1159 759 1121 759 1119 759 1081 759 1079 759 1041 759 1039 759 1001 759 999 759 961 759 959 759 921 759 919 759 881 759 879 759 841 759 839 759 801 759 799 759 761 759 759 759 721 759 719 759 681 759 679 759 641 759 639 759 601 759 599 759 561 759 559 759 521 759 519 759 481 759 479 759 441 759 439 759 401 759 399 759 361 759 359 759 321 759 319 759 281 759 279 759 241 759 239 759 201 759 199 759 161 759 159 759 121 759 119 759 81 759 79 759 41 759 39 759 1 759 0 759 0 761 1 761 39 761"/><polygon class="cls-1" points="39 721 41 721 79 721 81 721 119 721 121 721 159 721 161 721 199 721 201 721 239 721 241 721 279 721 281 721 319 721 321 721 359 721 361 721 399 721 401 721 439 721 441 721 479 721 481 721 519 721 521 721 559 721 561 721 599 721 601 721 639 721 641 721 679 721 681 721 719 721 721 721 759 721 761 721 799 721 801 721 839 721 841 721 879 721 881 721 919 721 921 721 959 721 961 721 999 721 1001 721 1039 721 1041 721 1079 721 1081 721 1119 721 1121 721 1159 721 1161 721 1199 721 1200 721 1200 719 1199 719 1161 719 1159 719 1121 719 1119 719 1081 719 1079 719 1041 719 1039 719 1001 719 999 719 961 719 959 719 921 719 919 719 881 719 879 719 841 719 839 719 801 719 799 719 761 719 759 719 721 719 719 719 681 719 679 719 641 719 639 719 601 719 599 719 561 719 559 719 521 719 519 719 481 719 479 719 441 719 439 719 401 719 399 719 361 719 359 719 321 719 319 719 281 719 279 719 241 719 239 719 201 719 199 719 161 719 159 719 121 719 119 719 81 719 79 719 41 719 39 719 1 719 0 719 0 721 1 721 39 721"/><polygon class="cls-1" points="39 681 41 681 79 681 81 681 119 681 121 681 159 681 161 681 199 681 201 681 239 681 241 681 279 681 281 681 319 681 321 681 359 681 361 681 399 681 401 681 439 681 441 681 479 681 481 681 519 681 521 681 559 681 561 681 599 681 601 681 639 681 641 681 679 681 681 681 719 681 721 681 759 681 761 681 799 681 801 681 839 681 841 681 879 681 881 681 919 681 921 681 959 681 961 681 999 681 1001 681 1039 681 1041 681 1079 681 1081 681 1119 681 1121 681 1159 681 1161 681 1199 681 1200 681 1200 679 1199 679 1161 679 1159 679 1121 679 1119 679 1081 679 1079 679 1041 679 1039 679 1001 679 999 679 961 679 959 679 921 679 919 679 881 679 879 679 841 679 839 679 801 679 799 679 761 679 759 679 721 679 719 679 681 679 679 679 641 679 639 679 601 679 599 679 561 679 559 679 521 679 519 679 481 679 479 679 441 679 439 679 401 679 399 679 361 679 359 679 321 679 319 679 281 679 279 679 241 679 239 679 201 679 199 679 161 679 159 679 121 679 119 679 81 679 79 679 41 679 39 679 1 679 0 679 0 681 1 681 39 681"/><polygon class="cls-1" points="39 641 41 641 79 641 81 641 119 641 121 641 159 641 161 641 199 641 201 641 239 641 241 641 279 641 281 641 319 641 321 641 359 641 361 641 399 641 401 641 439 641 441 641 479 641 481 641 519 641 521 641 559 641 561 641 599 641 601 641 639 641 641 641 679 641 681 641 719 641 721 641 759 641 761 641 799 641 801 641 839 641 841 641 879 641 881 641 919 641 921 641 959 641 961 641 999 641 1001 641 1039 641 1041 641 1079 641 1081 641 1119 641 1121 641 1159 641 1161 641 1199 641 1200 641 1200 639 1199 639 1161 639 1159 639 1121 639 1119 639 1081 639 1079 639 1041 639 1039 639 1001 639 999 639 961 639 959 639 921 639 919 639 881 639 879 639 841 639 839 639 801 639 799 639 761 639 759 639 721 639 719 639 681 639 679 639 641 639 639 639 601 639 599 639 561 639 559 639 521 639 519 639 481 639 479 639 441 639 439 639 401 639 399 639 361 639 359 639 321 639 319 639 281 639 279 639 241 639 239 639 201 639 199 639 161 639 159 639 121 639 119 639 81 639 79 639 41 639 39 639 1 639 0 639 0 641 1 641 39 641"/><polygon class="cls-1" points="39 601 41 601 79 601 81 601 119 601 121 601 159 601 161 601 199 601 201 601 239 601 241 601 279 601 281 601 319 601 321 601 359 601 361 601 399 601 401 601 439 601 441 601 479 601 481 601 519 601 521 601 559 601 561 601 599 601 601 601 639 601 641 601 679 601 681 601 719 601 721 601 759 601 761 601 799 601 801 601 839 601 841 601 879 601 881 601 919 601 921 601 959 601 961 601 999 601 1001 601 1039 601 1041 601 1079 601 1081 601 1119 601 1121 601 1159 601 1161 601 1199 601 1200 601 1200 599 1199 599 1161 599 1159 599 1121 599 1119 599 1081 599 1079 599 1041 599 1039 599 1001 599 999 599 961 599 959 599 921 599 919 599 881 599 879 599 841 599 839 599 801 599 799 599 761 599 759 599 721 599 719 599 681 599 679 599 641 599 639 599 601 599 599 599 561 599 559 599 521 599 519 599 481 599 479 599 441 599 439 599 401 599 399 599 361 599 359 599 321 599 319 599 281 599 279 599 241 599 239 599 201 599 199 599 161 599 159 599 121 599 119 599 81 599 79 599 41 599 39 599 1 599 0 599 0 601 1 601 39 601"/><polygon class="cls-1" points="39 561 41 561 79 561 81 561 119 561 121 561 159 561 161 561 199 561 201 561 239 561 241 561 279 561 281 561 319 561 321 561 359 561 361 561 399 561 401 561 439 561 441 561 479 561 481 561 519 561 521 561 559 561 561 561 599 561 601 561 639 561 641 561 679 561 681 561 719 561 721 561 759 561 761 561 799 561 801 561 839 561 841 561 879 561 881 561 919 561 921 561 959 561 961 561 999 561 1001 561 1039 561 1041 561 1079 561 1081 561 1119 561 1121 561 1159 561 1161 561 1199 561 1200 561 1200 559 1199 559 1161 559 1159 559 1121 559 1119 559 1081 559 1079 559 1041 559 1039 559 1001 559 999 559 961 559 959 559 921 559 919 559 881 559 879 559 841 559 839 559 801 559 799 559 761 559 759 559 721 559 719 559 681 559 679 559 641 559 639 559 601 559 599 559 561 559 559 559 521 559 519 559 481 559 479 559 441 559 439 559 401 559 399 559 361 559 359 559 321 559 319 559 281 559 279 559 241 559 239 559 201 559 199 559 161 559 159 559 121 559 119 559 81 559 79 559 41 559 39 559 1 559 0 559 0 561 1 561 39 561"/><polygon class="cls-1" points="39 521 41 521 79 521 81 521 119 521 121 521 159 521 161 521 199 521 201 521 239 521 241 521 279 521 281 521 319 521 321 521 359 521 361 521 399 521 401 521 439 521 441 521 479 521 481 521 519 521 521 521 559 521 561 521 599 521 601 521 639 521 641 521 679 521 681 521 719 521 721 521 759 521 761 521 799 521 801 521 839 521 841 521 879 521 881 521 919 521 921 521 959 521 961 521 999 521 1001 521 1039 521 1041 521 1079 521 1081 521 1119 521 1121 521 1159 521 1161 521 1199 521 1200 521 1200 519 1199 519 1161 519 1159 519 1121 519 1119 519 1081 519 1079 519 1041 519 1039 519 1001 519 999 519 961 519 959 519 921 519 919 519 881 519 879 519 841 519 839 519 801 519 799 519 761 519 759 519 721 519 719 519 681 519 679 519 641 519 639 519 601 519 599 519 561 519 559 519 521 519 519 519 481 519 479 519 441 519 439 519 401 519 399 519 361 519 359 519 321 519 319 519 281 519 279 519 241 519 239 519 201 519 199 519 161 519 159 519 121 519 119 519 81 519 79 519 41 519 39 519 1 519 0 519 0 521 1 521 39 521"/><polygon class="cls-1" points="39 481 41 481 79 481 81 481 119 481 121 481 159 481 161 481 199 481 201 481 239 481 241 481 279 481 281 481 319 481 321 481 359 481 361 481 399 481 401 481 439 481 441 481 479 481 481 481 519 481 521 481 559 481 561 481 599 481 601 481 639 481 641 481 679 481 681 481 719 481 721 481 759 481 761 481 799 481 801 481 839 481 841 481 879 481 881 481 919 481 921 481 959 481 961 481 999 481 1001 481 1039 481 1041 481 1079 481 1081 481 1119 481 1121 481 1159 481 1161 481 1199 481 1200 481 1200 479 1199 479 1161 479 1159 479 1121 479 1119 479 1081 479 1079 479 1041 479 1039 479 1001 479 999 479 961 479 959 479 921 479 919 479 881 479 879 479 841 479 839 479 801 479 799 479 761 479 759 479 721 479 719 479 681 479 679 479 641 479 639 479 601 479 599 479 561 479 559 479 521 479 519 479 481 479 479 479 441 479 439 479 401 479 399 479 361 479 359 479 321 479 319 479 281 479 279 479 241 479 239 479 201 479 199 479 161 479 159 479 121 479 119 479 81 479 79 479 41 479 39 479 1 479 0 479 0 481 1 481 39 481"/><polygon class="cls-1" points="39 441 41 441 79 441 81 441 119 441 121 441 159 441 161 441 199 441 201 441 239 441 241 441 279 441 281 441 319 441 321 441 359 441 361 441 399 441 401 441 439 441 441 441 479 441 481 441 519 441 521 441 559 441 561 441 599 441 601 441 639 441 641 441 679 441 681 441 719 441 721 441 759 441 761 441 799 441 801 441 839 441 841 441 879 441 881 441 919 441 921 441 959 441 961 441 999 441 1001 441 1039 441 1041 441 1079 441 1081 441 1119 441 1121 441 1159 441 1161 441 1199 441 1200 441 1200 439 1199 439 1161 439 1159 439 1121 439 1119 439 1081 439 1079 439 1041 439 1039 439 1001 439 999 439 961 439 959 439 921 439 919 439 881 439 879 439 841 439 839 439 801 439 799 439 761 439 759 439 721 439 719 439 681 439 679 439 641 439 639 439 601 439 599 439 561 439 559 439 521 439 519 439 481 439 479 439 441 439 439 439 401 439 399 439 361 439 359 439 321 439 319 439 281 439 279 439 241 439 239 439 201 439 199 439 161 439 159 439 121 439 119 439 81 439 79 439 41 439 39 439 1 439 0 439 0 441 1 441 39 441"/><polygon class="cls-1" points="39 401 41 401 79 401 81 401 119 401 121 401 159 401 161 401 199 401 201 401 239 401 241 401 279 401 281 401 319 401 321 401 359 401 361 401 399 401 401 401 439 401 441 401 479 401 481 401 519 401 521 401 559 401 561 401 599 401 601 401 639 401 641 401 679 401 681 401 719 401 721 401 759 401 761 401 799 401 801 401 839 401 841 401 879 401 881 401 919 401 921 401 959 401 961 401 999 401 1001 401 1039 401 1041 401 1079 401 1081 401 1119 401 1121 401 1159 401 1161 401 1199 401 1200 401 1200 399 1199 399 1161 399 1159 399 1121 399 1119 399 1081 399 1079 399 1041 399 1039 399 1001 399 999 399 961 399 959 399 921 399 919 399 881 399 879 399 841 399 839 399 801 399 799 399 761 399 759 399 721 399 719 399 681 399 679 399 641 399 639 399 601 399 599 399 561 399 559 399 521 399 519 399 481 399 479 399 441 399 439 399 401 399 399 399 361 399 359 399 321 399 319 399 281 399 279 399 241 399 239 399 201 399 199 399 161 399 159 399 121 399 119 399 81 399 79 399 41 399 39 399 1 399 0 399 0 401 1 401 39 401"/><polygon class="cls-1" points="39 361 41 361 79 361 81 361 119 361 121 361 159 361 161 361 199 361 201 361 239 361 241 361 279 361 281 361 319 361 321 361 359 361 361 361 399 361 401 361 439 361 441 361 479 361 481 361 519 361 521 361 559 361 561 361 599 361 601 361 639 361 641 361 679 361 681 361 719 361 721 361 759 361 761 361 799 361 801 361 839 361 841 361 879 361 881 361 919 361 921 361 959 361 961 361 999 361 1001 361 1039 361 1041 361 1079 361 1081 361 1119 361 1121 361 1159 361 1161 361 1199 361 1200 361 1200 359 1199 359 1161 359 1159 359 1121 359 1119 359 1081 359 1079 359 1041 359 1039 359 1001 359 999 359 961 359 959 359 921 359 919 359 881 359 879 359 841 359 839 359 801 359 799 359 761 359 759 359 721 359 719 359 681 359 679 359 641 359 639 359 601 359 599 359 561 359 559 359 521 359 519 359 481 359 479 359 441 359 439 359 401 359 399 359 361 359 359 359 321 359 319 359 281 359 279 359 241 359 239 359 201 359 199 359 161 359 159 359 121 359 119 359 81 359 79 359 41 359 39 359 1 359 0 359 0 361 1 361 39 361"/><polygon class="cls-1" points="39 321 41 321 79 321 81 321 119 321 121 321 159 321 161 321 199 321 201 321 239 321 241 321 279 321 281 321 319 321 321 321 359 321 361 321 399 321 401 321 439 321 441 321 479 321 481 321 519 321 521 321 559 321 561 321 599 321 601 321 639 321 641 321 679 321 681 321 719 321 721 321 759 321 761 321 799 321 801 321 839 321 841 321 879 321 881 321 919 321 921 321 959 321 961 321 999 321 1001 321 1039 321 1041 321 1079 321 1081 321 1119 321 1121 321 1159 321 1161 321 1199 321 1200 321 1200 319 1199 319 1161 319 1159 319 1121 319 1119 319 1081 319 1079 319 1041 319 1039 319 1001 319 999 319 961 319 959 319 921 319 919 319 881 319 879 319 841 319 839 319 801 319 799 319 761 319 759 319 721 319 719 319 681 319 679 319 641 319 639 319 601 319 599 319 561 319 559 319 521 319 519 319 481 319 479 319 441 319 439 319 401 319 399 319 361 319 359 319 321 319 319 319 281 319 279 319 241 319 239 319 201 319 199 319 161 319 159 319 121 319 119 319 81 319 79 319 41 319 39 319 1 319 0 319 0 321 1 321 39 321"/><polygon class="cls-1" points="39 281 41 281 79 281 81 281 119 281 121 281 159 281 161 281 199 281 201 281 239 281 241 281 279 281 281 281 319 281 321 281 359 281 361 281 399 281 401 281 439 281 441 281 479 281 481 281 519 281 521 281 559 281 561 281 599 281 601 281 639 281 641 281 679 281 681 281 719 281 721 281 759 281 761 281 799 281 801 281 839 281 841 281 879 281 881 281 919 281 921 281 959 281 961 281 999 281 1001 281 1039 281 1041 281 1079 281 1081 281 1119 281 1121 281 1159 281 1161 281 1199 281 1200 281 1200 279 1199 279 1161 279 1159 279 1121 279 1119 279 1081 279 1079 279 1041 279 1039 279 1001 279 999 279 961 279 959 279 921 279 919 279 881 279 879 279 841 279 839 279 801 279 799 279 761 279 759 279 721 279 719 279 681 279 679 279 641 279 639 279 601 279 599 279 561 279 559 279 521 279 519 279 481 279 479 279 441 279 439 279 401 279 399 279 361 279 359 279 321 279 319 279 281 279 279 279 241 279 239 279 201 279 199 279 161 279 159 279 121 279 119 279 81 279 79 279 41 279 39 279 1 279 0 279 0 281 1 281 39 281"/><polygon class="cls-1" points="39 241 41 241 79 241 81 241 119 241 121 241 159 241 161 241 199 241 201 241 239 241 241 241 279 241 281 241 319 241 321 241 359 241 361 241 399 241 401 241 439 241 441 241 479 241 481 241 519 241 521 241 559 241 561 241 599 241 601 241 639 241 641 241 679 241 681 241 719 241 721 241 759 241 761 241 799 241 801 241 839 241 841 241 879 241 881 241 919 241 921 241 959 241 961 241 999 241 1001 241 1039 241 1041 241 1079 241 1081 241 1119 241 1121 241 1159 241 1161 241 1199 241 1200 241 1200 239 1199 239 1161 239 1159 239 1121 239 1119 239 1081 239 1079 239 1041 239 1039 239 1001 239 999 239 961 239 959 239 921 239 919 239 881 239 879 239 841 239 839 239 801 239 799 239 761 239 759 239 721 239 719 239 681 239 679 239 641 239 639 239 601 239 599 239 561 239 559 239 521 239 519 239 481 239 479 239 441 239 439 239 401 239 399 239 361 239 359 239 321 239 319 239 281 239 279 239 241 239 239 239 201 239 199 239 161 239 159 239 121 239 119 239 81 239 79 239 41 239 39 239 1 239 0 239 0 241 1 241 39 241"/><polygon class="cls-1" points="39 201 41 201 79 201 81 201 119 201 121 201 159 201 161 201 199 201 201 201 239 201 241 201 279 201 281 201 319 201 321 201 359 201 361 201 399 201 401 201 439 201 441 201 479 201 481 201 519 201 521 201 559 201 561 201 599 201 601 201 639 201 641 201 679 201 681 201 719 201 721 201 759 201 761 201 799 201 801 201 839 201 841 201 879 201 881 201 919 201 921 201 959 201 961 201 999 201 1001 201 1039 201 1041 201 1079 201 1081 201 1119 201 1121 201 1159 201 1161 201 1199 201 1200 201 1200 199 1199 199 1161 199 1159 199 1121 199 1119 199 1081 199 1079 199 1041 199 1039 199 1001 199 999 199 961 199 959 199 921 199 919 199 881 199 879 199 841 199 839 199 801 199 799 199 761 199 759 199 721 199 719 199 681 199 679 199 641 199 639 199 601 199 599 199 561 199 559 199 521 199 519 199 481 199 479 199 441 199 439 199 401 199 399 199 361 199 359 199 321 199 319 199 281 199 279 199 241 199 239 199 201 199 199 199 161 199 159 199 121 199 119 199 81 199 79 199 41 199 39 199 1 199 0 199 0 201 1 201 39 201"/><polygon class="cls-1" points="39 161 41 161 79 161 81 161 119 161 121 161 159 161 161 161 199 161 201 161 239 161 241 161 279 161 281 161 319 161 321 161 359 161 361 161 399 161 401 161 439 161 441 161 479 161 481 161 519 161 521 161 559 161 561 161 599 161 601 161 639 161 641 161 679 161 681 161 719 161 721 161 759 161 761 161 799 161 801 161 839 161 841 161 879 161 881 161 919 161 921 161 959 161 961 161 999 161 1001 161 1039 161 1041 161 1079 161 1081 161 1119 161 1121 161 1159 161 1161 161 1199 161 1200 161 1200 159 1199 159 1161 159 1159 159 1121 159 1119 159 1081 159 1079 159 1041 159 1039 159 1001 159 999 159 961 159 959 159 921 159 919 159 881 159 879 159 841 159 839 159 801 159 799 159 761 159 759 159 721 159 719 159 681 159 679 159 641 159 639 159 601 159 599 159 561 159 559 159 521 159 519 159 481 159 479 159 441 159 439 159 401 159 399 159 361 159 359 159 321 159 319 159 281 159 279 159 241 159 239 159 201 159 199 159 161 159 159 159 121 159 119 159 81 159 79 159 41 159 39 159 1 159 0 159 0 161 1 161 39 161"/><polygon class="cls-1" points="39 121 41 121 79 121 81 121 119 121 121 121 159 121 161 121 199 121 201 121 239 121 241 121 279 121 281 121 319 121 321 121 359 121 361 121 399 121 401 121 439 121 441 121 479 121 481 121 519 121 521 121 559 121 561 121 599 121 601 121 639 121 641 121 679 121 681 121 719 121 721 121 759 121 761 121 799 121 801 121 839 121 841 121 879 121 881 121 919 121 921 121 959 121 961 121 999 121 1001 121 1039 121 1041 121 1079 121 1081 121 1119 121 1121 121 1159 121 1161 121 1199 121 1200 121 1200 119 1199 119 1161 119 1159 119 1121 119 1119 119 1081 119 1079 119 1041 119 1039 119 1001 119 999 119 961 119 959 119 921 119 919 119 881 119 879 119 841 119 839 119 801 119 799 119 761 119 759 119 721 119 719 119 681 119 679 119 641 119 639 119 601 119 599 119 561 119 559 119 521 119 519 119 481 119 479 119 441 119 439 119 401 119 399 119 361 119 359 119 321 119 319 119 281 119 279 119 241 119 239 119 201 119 199 119 161 119 159 119 121 119 119 119 81 119 79 119 41 119 39 119 1 119 0 119 0 121 1 121 39 121"/><polygon class="cls-1" points="39 81 41 81 79 81 81 81 119 81 121 81 159 81 161 81 199 81 201 81 239 81 241 81 279 81 281 81 319 81 321 81 359 81 361 81 399 81 401 81 439 81 441 81 479 81 481 81 519 81 521 81 559 81 561 81 599 81 601 81 639 81 641 81 679 81 681 81 719 81 721 81 759 81 761 81 799 81 801 81 839 81 841 81 879 81 881 81 919 81 921 81 959 81 961 81 999 81 1001 81 1039 81 1041 81 1079 81 1081 81 1119 81 1121 81 1159 81 1161 81 1199 81 1200 81 1200 79 1199 79 1161 79 1159 79 1121 79 1119 79 1081 79 1079 79 1041 79 1039 79 1001 79 999 79 961 79 959 79 921 79 919 79 881 79 879 79 841 79 839 79 801 79 799 79 761 79 759 79 721 79 719 79 681 79 679 79 641 79 639 79 601 79 599 79 561 79 559 79 521 79 519 79 481 79 479 79 441 79 439 79 401 79 399 79 361 79 359 79 321 79 319 79 281 79 279 79 241 79 239 79 201 79 199 79 161 79 159 79 121 79 119 79 81 79 79 79 41 79 39 79 1 79 0 79 0 81 1 81 39 81"/><polygon class="cls-1" points="39 41 41 41 79 41 81 41 119 41 121 41 159 41 161 41 199 41 201 41 239 41 241 41 279 41 281 41 319 41 321 41 359 41 361 41 399 41 401 41 439 41 441 41 479 41 481 41 519 41 521 41 559 41 561 41 599 41 601 41 639 41 641 41 679 41 681 41 719 41 721 41 759 41 761 41 799 41 801 41 839 41 841 41 879 41 881 41 919 41 921 41 959 41 961 41 999 41 1001 41 1039 41 1041 41 1079 41 1081 41 1119 41 1121 41 1159 41 1161 41 1199 41 1200 41 1200 39 1199 39 1161 39 1159 39 1121 39 1119 39 1081 39 1079 39 1041 39 1039 39 1001 39 999 39 961 39 959 39 921 39 919 39 881 39 879 39 841 39 839 39 801 39 799 39 761 39 759 39 721 39 719 39 681 39 679 39 641 39 639 39 601 39 599 39 561 39 559 39 521 39 519 39 481 39 479 39 441 39 439 39 401 39 399 39 361 39 359 39 321 39 319 39 281 39 279 39 241 39 239 39 201 39 199 39 161 39 159 39 121 39 119 39 81 39 79 39 41 39 39 39 1 39 0 39 0 41 1 41 39 41"/><polygon class="cls-1" points="39 1 41 1 79 1 81 1 119 1 121 1 159 1 161 1 199 1 201 1 239 1 241 1 279 1 281 1 319 1 321 1 359 1 361 1 399 1 401 1 439 1 441 1 479 1 481 1 519 1 521 1 559 1 561 1 599 1 601 1 639 1 641 1 679 1 681 1 719 1 721 1 759 1 761 1 799 1 801 1 839 1 841 1 879 1 881 1 919 1 921 1 959 1 961 1 999 1 1001 1 1039 1 1041 1 1079 1 1081 1 1119 1 1121 1 1159 1 1161 1 1199 1 1200 1 1200 0 1199 0 1161 0 1159 0 1121 0 1119 0 1081 0 1079 0 1041 0 1039 0 1001 0 999 0 961 0 959 0 921 0 919 0 881 0 879 0 841 0 839 0 801 0 799 0 761 0 759 0 721 0 719 0 681 0 679 0 641 0 639 0 601 0 599 0 561 0 559 0 521 0 519 0 481 0 479 0 441 0 439 0 401 0 399 0 361 0 359 0 321 0 319 0 281 0 279 0 241 0 239 0 201 0 199 0 161 0 159 0 121 0 119 0 81 0 79 0 41 0 39 0 1 0 0 0 0 1 1 1 39 1"/></g></g></svg>